Quicksand-Light.ufo
<glyph name="exclam" format="2">
  <advance width="158"/>
  <unicode hex="0021"/>
  <note>
exclam
</note>
  <outline>
    <contour>
      <point x="79" y="187" type="curve" smooth="yes"/>
      <point x="87" y="187"/>
      <point x="93" y="191"/>
      <point x="94" y="203" type="curve"/>
      <point x="99" y="669" type="line" smooth="yes"/>
      <point x="99" y="687"/>
      <point x="96" y="700"/>
      <point x="79" y="700" type="curve" smooth="yes"/>
      <point x="62" y="700"/>
      <point x="59" y="687"/>
      <point x="59" y="669" type="curve" smooth="yes"/>
      <point x="64" y="203" type="line"/>
      <point x="65" y="191"/>
      <point x="71" y="187"/>
    </contour>
    <contour>
      <point x="77" y="0" type="curve" smooth="yes"/>
      <point x="81" y="0" type="line" smooth="yes"/>
      <point x="99" y="0"/>
      <point x="108" y="13"/>
      <point x="108" y="31" type="curve" smooth="yes"/>
      <point x="108" y="54" type="line" smooth="yes"/>
      <point x="108" y="72"/>
      <point x="99" y="85"/>
      <point x="81" y="85" type="curve" smooth="yes"/>
      <point x="77" y="85" type="line" smooth="yes"/>
      <point x="59" y="85"/>
      <point x="50" y="72"/>
      <point x="50" y="54" type="curve" smooth="yes"/>
      <point x="50" y="31" type="line" smooth="yes"/>
      <point x="50" y="13"/>
      <point x="59" y="0"/>
    </contour>
  </outline>
</glyph>
<glyph name="quotedbl" format="2">
  <advance width="367"/>
  <unicode hex="0022"/>
  <note>
quotedbl
</note>
  <outline>
    <contour>
      <point x="76" y="681" type="curve" smooth="yes"/>
      <point x="47" y="467" type="line" smooth="yes"/>
      <point x="45" y="454"/>
      <point x="48" y="446"/>
      <point x="55" y="446" type="curve" smooth="yes"/>
      <point x="67" y="446"/>
      <point x="75" y="451"/>
      <point x="78" y="463" type="curve" smooth="yes"/>
      <point x="140" y="681" type="line" smooth="yes"/>
      <point x="143" y="691"/>
      <point x="141" y="700"/>
      <point x="131" y="700" type="curve"/>
      <point x="98" y="700" type="line" smooth="yes"/>
      <point x="85" y="700"/>
      <point x="78" y="694"/>
    </contour>
    <contour>
      <point x="256" y="681" type="curve" smooth="yes"/>
      <point x="227" y="467" type="line" smooth="yes"/>
      <point x="225" y="454"/>
      <point x="228" y="446"/>
      <point x="235" y="446" type="curve" smooth="yes"/>
      <point x="247" y="446"/>
      <point x="255" y="451"/>
      <point x="258" y="463" type="curve" smooth="yes"/>
      <point x="320" y="681" type="line" smooth="yes"/>
      <point x="323" y="691"/>
      <point x="321" y="699"/>
      <point x="311" y="700" type="curve"/>
      <point x="278" y="700" type="line" smooth="yes"/>
      <point x="265" y="700"/>
      <point x="258" y="694"/>
    </contour>
  </outline>
</glyph>
<glyph name="numbersign" format="2">
  <advance width="641"/>
  <unicode hex="0023"/>
  <note>
numbersign
</note>
  <outline>
    <contour>
      <point x="137" y="0" type="curve" smooth="yes"/>
      <point x="149" y="0"/>
      <point x="158" y="8"/>
      <point x="160" y="20" type="curve" smooth="yes"/>
      <point x="272" y="669" type="line" smooth="yes"/>
      <point x="275" y="686"/>
      <point x="265" y="700"/>
      <point x="249" y="700" type="curve" smooth="yes"/>
      <point x="237" y="700"/>
      <point x="228" y="692"/>
      <point x="226" y="680" type="curve" smooth="yes"/>
      <point x="114" y="32" type="line" smooth="yes"/>
      <point x="111" y="14"/>
      <point x="121" y="0"/>
    </contour>
    <contour>
      <point x="86" y="470" type="curve" smooth="yes"/>
      <point x="596" y="470" type="line" smooth="yes"/>
      <point x="610" y="470"/>
      <point x="621" y="479"/>
      <point x="621" y="492" type="curve" smooth="yes"/>
      <point x="621" y="506"/>
      <point x="610" y="517"/>
      <point x="596" y="517" type="curve" smooth="yes"/>
      <point x="85" y="517" type="line" smooth="yes"/>
      <point x="71" y="517"/>
      <point x="60" y="508"/>
      <point x="60" y="495" type="curve" smooth="yes"/>
      <point x="60" y="481"/>
      <point x="71" y="470"/>
    </contour>
    <contour>
      <point x="392" y="0" type="curve" smooth="yes"/>
      <point x="404" y="0"/>
      <point x="413" y="8"/>
      <point x="415" y="20" type="curve" smooth="yes"/>
      <point x="527" y="669" type="line" smooth="yes"/>
      <point x="530" y="686"/>
      <point x="520" y="700"/>
      <point x="504" y="700" type="curve" smooth="yes"/>
      <point x="492" y="700"/>
      <point x="483" y="692"/>
      <point x="481" y="680" type="curve" smooth="yes"/>
      <point x="369" y="32" type="line" smooth="yes"/>
      <point x="366" y="14"/>
      <point x="376" y="0"/>
    </contour>
    <contour>
      <point x="45" y="187" type="curve" smooth="yes"/>
      <point x="556" y="187" type="line" smooth="yes"/>
      <point x="570" y="187"/>
      <point x="581" y="196"/>
      <point x="581" y="209" type="curve" smooth="yes"/>
      <point x="581" y="223"/>
      <point x="570" y="234"/>
      <point x="556" y="234" type="curve" smooth="yes"/>
      <point x="45" y="234" type="line" smooth="yes"/>
      <point x="31" y="234"/>
      <point x="20" y="225"/>
      <point x="20" y="212" type="curve" smooth="yes"/>
      <point x="20" y="198"/>
      <point x="31" y="187"/>
    </contour>
  </outline>
</glyph>
<glyph name="percent" format="2">
  <advance width="763"/>
  <unicode hex="0025"/>
  <note>
percent
</note>
  <outline>
    <contour>
      <point x="177" y="350" type="curve"/>
      <point x="266" y="350"/>
      <point x="307" y="435"/>
      <point x="307" y="529" type="curve"/>
      <point x="307" y="623"/>
      <point x="267" y="708"/>
      <point x="179" y="708" type="curve"/>
      <point x="90" y="708"/>
      <point x="50" y="623"/>
      <point x="50" y="527" type="curve"/>
      <point x="50" y="434"/>
      <point x="89" y="350"/>
    </contour>
    <contour>
      <point x="179" y="390" type="curve"/>
      <point x="121" y="390"/>
      <point x="92" y="448"/>
      <point x="92" y="529" type="curve"/>
      <point x="92" y="606"/>
      <point x="115" y="668"/>
      <point x="177" y="668" type="curve"/>
      <point x="235" y="668"/>
      <point x="265" y="609"/>
      <point x="265" y="527" type="curve"/>
      <point x="265" y="450"/>
      <point x="241" y="390"/>
    </contour>
    <contour>
      <point x="583" y="-8" type="curve"/>
      <point x="672" y="-8"/>
      <point x="713" y="77"/>
      <point x="713" y="171" type="curve"/>
      <point x="713" y="265"/>
      <point x="673" y="350"/>
      <point x="585" y="350" type="curve"/>
      <point x="496" y="350"/>
      <point x="455" y="265"/>
      <point x="455" y="169" type="curve"/>
      <point x="455" y="76"/>
      <point x="495" y="-8"/>
    </contour>
    <contour>
      <point x="585" y="32" type="curve"/>
      <point x="527" y="32"/>
      <point x="497" y="90"/>
      <point x="497" y="171" type="curve"/>
      <point x="497" y="248"/>
      <point x="521" y="310"/>
      <point x="583" y="310" type="curve"/>
      <point x="641" y="310"/>
      <point x="671" y="251"/>
      <point x="671" y="169" type="curve"/>
      <point x="671" y="92"/>
      <point x="647" y="32"/>
    </contour>
    <component base="fraction" xOffset="113"/>
  </outline>
</glyph>
<glyph name="ampersand" format="2">
  <advance width="669"/>
  <unicode hex="0026"/>
  <note>
ampersand
</note>
  <outline>
    <contour>
      <point x="269" y="-10" type="curve"/>
      <point x="470" y="-10"/>
      <point x="573" y="133"/>
      <point x="595" y="273" type="curve"/>
      <point x="597" y="286"/>
      <point x="588" y="296"/>
      <point x="576" y="296" type="curve"/>
      <point x="565" y="296"/>
      <point x="557" y="289"/>
      <point x="555" y="279" type="curve"/>
      <point x="530" y="155"/>
      <point x="457" y="30"/>
      <point x="269" y="30" type="curve"/>
      <point x="144" y="30"/>
      <point x="72" y="126"/>
      <point x="72" y="226" type="curve"/>
      <point x="72" y="300"/>
      <point x="115" y="373"/>
      <point x="222" y="397" type="curve"/>
      <point x="191" y="428" type="line"/>
      <point x="81" y="392"/>
      <point x="30" y="304"/>
      <point x="30" y="221" type="curve"/>
      <point x="30" y="105"/>
      <point x="126" y="-10"/>
    </contour>
    <contour>
      <point x="624" y="4" type="curve"/>
      <point x="636" y="4"/>
      <point x="644" y="15"/>
      <point x="644" y="25" type="curve"/>
      <point x="644" y="31"/>
      <point x="641" y="37"/>
      <point x="635" y="41" type="curve"/>
      <point x="548" y="101"/>
      <point x="409" y="205"/>
      <point x="295" y="336" type="curve" smooth="yes"/>
      <point x="229" y="410"/>
      <point x="180" y="490"/>
      <point x="180" y="551" type="curve"/>
      <point x="180" y="623"/>
      <point x="227" y="670"/>
      <point x="316" y="670" type="curve"/>
      <point x="397" y="670"/>
      <point x="437" y="635"/>
      <point x="463" y="595" type="curve"/>
      <point x="467" y="589"/>
      <point x="473" y="586"/>
      <point x="480" y="586" type="curve"/>
      <point x="492" y="586"/>
      <point x="500" y="597"/>
      <point x="500" y="604" type="curve"/>
      <point x="500" y="609"/>
      <point x="497" y="614"/>
      <point x="496" y="616" type="curve"/>
      <point x="471" y="665"/>
      <point x="413" y="710"/>
      <point x="316" y="710" type="curve"/>
      <point x="205" y="710"/>
      <point x="138" y="645"/>
      <point x="138" y="553" type="curve"/>
      <point x="138" y="479"/>
      <point x="192" y="396"/>
      <point x="262" y="316" type="curve" smooth="yes"/>
      <point x="393" y="165"/>
      <point x="496" y="94"/>
      <point x="612" y="8" type="curve"/>
      <point x="616" y="6"/>
      <point x="620" y="4"/>
    </contour>
  </outline>
</glyph>
<glyph name="quotesingle" format="2">
  <advance width="187"/>
  <unicode hex="0027"/>
  <note>
quotesingle
</note>
  <outline>
    <contour>
      <point x="76" y="681" type="curve" smooth="yes"/>
      <point x="47" y="467" type="line" smooth="yes"/>
      <point x="45" y="454"/>
      <point x="48" y="446"/>
      <point x="55" y="446" type="curve" smooth="yes"/>
      <point x="67" y="446"/>
      <point x="75" y="451"/>
      <point x="78" y="463" type="curve" smooth="yes"/>
      <point x="140" y="681" type="line" smooth="yes"/>
      <point x="143" y="691"/>
      <point x="141" y="699"/>
      <point x="131" y="700" type="curve"/>
      <point x="98" y="700" type="line" smooth="yes"/>
      <point x="85" y="700"/>
      <point x="78" y="694"/>
    </contour>
  </outline>
</glyph>
<glyph name="parenleft" format="2">
  <advance width="379"/>
  <unicode hex="0028"/>
  <note>
parenleft
</note>
  <outline>
    <contour>
      <point x="331" y="-195" type="curve" smooth="yes"/>
      <point x="343" y="-195"/>
      <point x="348" y="-187"/>
      <point x="348" y="-177" type="curve" smooth="yes"/>
      <point x="348" y="-170"/>
      <point x="345" y="-163"/>
      <point x="339" y="-160" type="curve" smooth="yes"/>
      <point x="185" y="-84"/>
      <point x="100" y="90"/>
      <point x="100" y="256" type="curve" smooth="yes"/>
      <point x="100" y="422"/>
      <point x="189" y="592"/>
      <point x="339" y="672" type="curve" smooth="yes"/>
      <point x="346" y="676"/>
      <point x="349" y="683"/>
      <point x="349" y="689" type="curve" smooth="yes"/>
      <point x="349" y="700"/>
      <point x="341" y="708"/>
      <point x="331" y="708" type="curve" smooth="yes"/>
      <point x="328" y="708"/>
      <point x="324" y="707"/>
      <point x="321" y="705" type="curve"/>
      <point x="155" y="610"/>
      <point x="60" y="441"/>
      <point x="60" y="256" type="curve" smooth="yes"/>
      <point x="60" y="71"/>
      <point x="147" y="-113"/>
      <point x="320" y="-192" type="curve" smooth="yes"/>
      <point x="324" y="-194"/>
      <point x="327" y="-195"/>
    </contour>
  </outline>
</glyph>
<glyph name="parenright" format="2">
  <advance width="379"/>
  <unicode hex="0029"/>
  <note>
parenright
</note>
  <outline>
    <contour>
      <point x="48" y="-194" type="curve" smooth="yes"/>
      <point x="51" y="-194"/>
      <point x="55" y="-193"/>
      <point x="58" y="-191" type="curve"/>
      <point x="224" y="-99"/>
      <point x="319" y="73"/>
      <point x="319" y="258" type="curve" smooth="yes"/>
      <point x="319" y="443"/>
      <point x="232" y="626"/>
      <point x="59" y="706" type="curve" smooth="yes"/>
      <point x="55" y="708"/>
      <point x="52" y="709"/>
      <point x="48" y="709" type="curve" smooth="yes"/>
      <point x="36" y="709"/>
      <point x="31" y="701"/>
      <point x="31" y="691" type="curve" smooth="yes"/>
      <point x="31" y="684"/>
      <point x="34" y="677"/>
      <point x="40" y="674" type="curve" smooth="yes"/>
      <point x="194" y="598"/>
      <point x="279" y="424"/>
      <point x="279" y="258" type="curve" smooth="yes"/>
      <point x="279" y="92"/>
      <point x="190" y="-78"/>
      <point x="40" y="-158" type="curve" smooth="yes"/>
      <point x="33" y="-162"/>
      <point x="30" y="-169"/>
      <point x="30" y="-175" type="curve" smooth="yes"/>
      <point x="30" y="-186"/>
      <point x="38" y="-194"/>
    </contour>
  </outline>
</glyph>
<glyph name="asterisk" format="2">
  <advance width="291"/>
  <unicode hex="002A"/>
  <note>
asterisk
</note>
  <outline>
    <contour>
      <point x="145" y="406" type="curve" smooth="yes"/>
      <point x="157" y="406"/>
      <point x="166" y="416"/>
      <point x="165" y="428" type="curve" smooth="yes"/>
      <point x="159" y="525" type="line"/>
      <point x="158" y="529"/>
      <point x="161" y="531"/>
      <point x="164" y="529" type="curve" smooth="yes"/>
      <point x="246" y="473" type="line" smooth="yes"/>
      <point x="256" y="466"/>
      <point x="269" y="469"/>
      <point x="275" y="480" type="curve"/>
      <point x="281" y="490"/>
      <point x="277" y="502"/>
      <point x="265" y="508" type="curve" smooth="yes"/>
      <point x="175" y="551" type="line"/>
      <point x="171" y="552"/>
      <point x="171" y="556"/>
      <point x="175" y="557" type="curve"/>
      <point x="265" y="600" type="line" smooth="yes"/>
      <point x="277" y="606"/>
      <point x="281" y="618"/>
      <point x="275" y="628" type="curve"/>
      <point x="269" y="639"/>
      <point x="256" y="642"/>
      <point x="246" y="635" type="curve" smooth="yes"/>
      <point x="164" y="579" type="line" smooth="yes"/>
      <point x="161" y="577"/>
      <point x="158" y="579"/>
      <point x="159" y="583" type="curve"/>
      <point x="165" y="680" type="line" smooth="yes"/>
      <point x="166" y="692"/>
      <point x="158" y="702"/>
      <point x="147" y="702" type="curve" smooth="yes"/>
      <point x="135" y="702"/>
      <point x="126" y="692"/>
      <point x="127" y="680" type="curve" smooth="yes"/>
      <point x="133" y="583" type="line"/>
      <point x="134" y="579"/>
      <point x="131" y="577"/>
      <point x="128" y="579" type="curve" smooth="yes"/>
      <point x="46" y="635" type="line" smooth="yes"/>
      <point x="36" y="642"/>
      <point x="24" y="640"/>
      <point x="18" y="630" type="curve" smooth="yes"/>
      <point x="11" y="619"/>
      <point x="15" y="606"/>
      <point x="27" y="600" type="curve" smooth="yes"/>
      <point x="117" y="557" type="line"/>
      <point x="121" y="556"/>
      <point x="121" y="552"/>
      <point x="117" y="551" type="curve"/>
      <point x="27" y="508" type="line" smooth="yes"/>
      <point x="15" y="502"/>
      <point x="11" y="490"/>
      <point x="17" y="480" type="curve"/>
      <point x="23" y="469"/>
      <point x="36" y="466"/>
      <point x="46" y="473" type="curve" smooth="yes"/>
      <point x="128" y="529" type="line" smooth="yes"/>
      <point x="131" y="531"/>
      <point x="134" y="529"/>
      <point x="133" y="525" type="curve"/>
      <point x="127" y="428" type="line" smooth="yes"/>
      <point x="126" y="416"/>
      <point x="134" y="406"/>
    </contour>
  </outline>
</glyph>
<glyph name="plus" format="2">
  <advance width="556"/>
  <unicode hex="002B"/>
  <note>
plus
</note>
  <outline>
    <contour>
      <point x="71" y="223" type="curve"/>
      <point x="485" y="223" type="line"/>
      <point x="497" y="223"/>
      <point x="506" y="232"/>
      <point x="506" y="242" type="curve"/>
      <point x="506" y="254"/>
      <point x="497" y="263"/>
      <point x="485" y="263" type="curve"/>
      <point x="71" y="263" type="line"/>
      <point x="59" y="263"/>
      <point x="50" y="255"/>
      <point x="50" y="244" type="curve"/>
      <point x="50" y="232"/>
      <point x="59" y="223"/>
    </contour>
    <contour>
      <point x="278" y="0" type="curve"/>
      <point x="290" y="0"/>
      <point x="299" y="9"/>
      <point x="299" y="22" type="curve"/>
      <point x="299" y="457" type="line"/>
      <point x="299" y="469"/>
      <point x="291" y="478"/>
      <point x="278" y="478" type="curve"/>
      <point x="266" y="478"/>
      <point x="257" y="469"/>
      <point x="257" y="456" type="curve"/>
      <point x="257" y="21" type="line"/>
      <point x="257" y="9"/>
      <point x="266" y="0"/>
    </contour>
  </outline>
</glyph>
<glyph name="comma" format="2">
  <advance width="167"/>
  <unicode hex="002C"/>
  <note>
comma
</note>
  <outline>
    <contour>
      <point x="135" y="1" type="curve"/>
      <point x="135" y="30"/>
      <point x="115" y="48"/>
      <point x="88" y="48" type="curve"/>
      <point x="67" y="48"/>
      <point x="46" y="34"/>
      <point x="44" y="18" type="curve"/>
      <point x="43" y="10"/>
      <point x="46" y="2"/>
      <point x="52" y="-5" type="curve"/>
      <point x="58" y="0"/>
      <point x="69" y="4"/>
      <point x="78" y="4" type="curve"/>
      <point x="89" y="4"/>
      <point x="95" y="-5"/>
      <point x="95" y="-20" type="curve" smooth="yes"/>
      <point x="95" y="-40"/>
      <point x="85" y="-63"/>
      <point x="66" y="-73" type="curve" smooth="yes"/>
      <point x="47" y="-83"/>
      <point x="31" y="-78"/>
      <point x="31" y="-97" type="curve"/>
      <point x="31" y="-108"/>
      <point x="40" y="-113"/>
      <point x="49" y="-113" type="curve"/>
      <point x="85" y="-113"/>
      <point x="135" y="-63"/>
    </contour>
  </outline>
</glyph>
<glyph name="hyphen" format="2">
  <advance width="388"/>
  <unicode hex="002D"/>
  <note>
hyphen
</note>
  <outline>
    <contour>
      <point x="79" y="225" type="curve"/>
      <point x="309" y="225" type="line"/>
      <point x="320" y="225"/>
      <point x="328" y="233"/>
      <point x="328" y="244" type="curve"/>
      <point x="328" y="256"/>
      <point x="320" y="265"/>
      <point x="309" y="265" type="curve"/>
      <point x="79" y="265" type="line"/>
      <point x="68" y="265"/>
      <point x="60" y="257"/>
      <point x="60" y="246" type="curve"/>
      <point x="60" y="234"/>
      <point x="68" y="225"/>
    </contour>
  </outline>
</glyph>
<glyph name="period" format="2">
  <advance width="158"/>
  <unicode hex="002E"/>
  <note>
period
</note>
  <outline>
    <contour>
      <point x="77" y="0" type="curve" smooth="yes"/>
      <point x="81" y="0" type="line" smooth="yes"/>
      <point x="99" y="0"/>
      <point x="108" y="13"/>
      <point x="108" y="31" type="curve" smooth="yes"/>
      <point x="108" y="54" type="line" smooth="yes"/>
      <point x="108" y="72"/>
      <point x="99" y="85"/>
      <point x="81" y="85" type="curve" smooth="yes"/>
      <point x="77" y="85" type="line" smooth="yes"/>
      <point x="59" y="85"/>
      <point x="50" y="72"/>
      <point x="50" y="54" type="curve" smooth="yes"/>
      <point x="50" y="31" type="line" smooth="yes"/>
      <point x="50" y="13"/>
      <point x="59" y="0"/>
    </contour>
  </outline>
</glyph>
<glyph name="slash" format="2">
  <advance width="507"/>
  <unicode hex="002F"/>
  <note>
slash
</note>
  <outline>
    <contour>
      <point x="20" y="-128" type="curve" smooth="yes"/>
      <point x="31" y="-128"/>
      <point x="38" y="-124"/>
      <point x="46" y="-109" type="curve" smooth="yes"/>
      <point x="491" y="763" type="line" smooth="yes"/>
      <point x="494" y="769"/>
      <point x="495" y="774"/>
      <point x="495" y="779" type="curve" smooth="yes"/>
      <point x="495" y="791"/>
      <point x="486" y="798"/>
      <point x="477" y="798" type="curve" smooth="yes"/>
      <point x="464" y="798"/>
      <point x="457" y="794"/>
      <point x="448" y="776" type="curve" smooth="yes"/>
      <point x="3" y="-95" type="line" smooth="yes"/>
      <point x="1" y="-99"/>
      <point x="0" y="-103"/>
      <point x="0" y="-107" type="curve" smooth="yes"/>
      <point x="0" y="-118"/>
      <point x="6" y="-128"/>
    </contour>
  </outline>
</glyph>
<glyph name="zero" format="2">
  <advance width="588"/>
  <unicode hex="0030"/>
  <note>
zero
</note>
  <anchor x="283" y="351" name="center"/>
  <outline>
    <contour>
      <point x="294" y="-10" type="curve"/>
      <point x="453" y="-10"/>
      <point x="528" y="151"/>
      <point x="528" y="350" type="curve"/>
      <point x="528" y="549"/>
      <point x="453" y="710"/>
      <point x="294" y="710" type="curve"/>
      <point x="135" y="710"/>
      <point x="60" y="549"/>
      <point x="60" y="350" type="curve"/>
      <point x="60" y="151"/>
      <point x="135" y="-10"/>
    </contour>
    <contour>
      <point x="294" y="32" type="curve"/>
      <point x="166" y="32"/>
      <point x="102" y="165"/>
      <point x="102" y="350" type="curve"/>
      <point x="102" y="536"/>
      <point x="166" y="668"/>
      <point x="294" y="668" type="curve"/>
      <point x="422" y="668"/>
      <point x="486" y="536"/>
      <point x="486" y="350" type="curve"/>
      <point x="486" y="165"/>
      <point x="422" y="32"/>
    </contour>
  </outline>
</glyph>
<glyph name="one" format="2">
  <advance width="323"/>
  <unicode hex="0031"/>
  <note>
one
</note>
  <outline>
    <contour>
      <point x="202" y="0" type="curve"/>
      <point x="214" y="0"/>
      <point x="223" y="9"/>
      <point x="223" y="20" type="curve"/>
      <point x="223" y="680" type="line"/>
      <point x="223" y="690"/>
      <point x="217" y="698"/>
      <point x="208" y="700" type="curve"/>
      <point x="203" y="701"/>
      <point x="197" y="701"/>
      <point x="191" y="697" type="curve"/>
      <point x="16" y="592" type="line"/>
      <point x="9" y="587"/>
      <point x="5" y="581"/>
      <point x="5" y="575" type="curve" smooth="yes"/>
      <point x="5" y="566"/>
      <point x="15" y="553"/>
      <point x="27" y="553" type="curve" smooth="yes"/>
      <point x="29" y="553"/>
      <point x="32" y="553"/>
      <point x="35" y="555" type="curve"/>
      <point x="191" y="648" type="line"/>
      <point x="181" y="654" type="line"/>
      <point x="181" y="20" type="line"/>
      <point x="181" y="9"/>
      <point x="190" y="0"/>
    </contour>
  </outline>
</glyph>
<glyph name="two" format="2">
  <advance width="577"/>
  <unicode hex="0032"/>
  <note>
two
</note>
  <outline>
    <contour>
      <point x="507" y="40" type="curve"/>
      <point x="145" y="40" type="line"/>
      <point x="154" y="28" type="line"/>
      <point x="369" y="272" type="line"/>
      <point x="470" y="382"/>
      <point x="501" y="448"/>
      <point x="501" y="517" type="curve"/>
      <point x="501" y="630"/>
      <point x="426" y="710"/>
      <point x="288" y="710" type="curve"/>
      <point x="202" y="710"/>
      <point x="125" y="668"/>
      <point x="93" y="586" type="curve"/>
      <point x="90" y="578"/>
      <point x="88" y="573"/>
      <point x="88" y="568" type="curve"/>
      <point x="88" y="560"/>
      <point x="101" y="552"/>
      <point x="110" y="552" type="curve"/>
      <point x="121" y="552"/>
      <point x="127" y="561"/>
      <point x="129" y="568" type="curve"/>
      <point x="154" y="643"/>
      <point x="217" y="670"/>
      <point x="285" y="670" type="curve"/>
      <point x="397" y="670"/>
      <point x="457" y="612"/>
      <point x="457" y="513" type="curve"/>
      <point x="457" y="445"/>
      <point x="417" y="382"/>
      <point x="336" y="296" type="curve"/>
      <point x="101" y="34" type="line"/>
      <point x="98" y="30"/>
      <point x="96" y="26"/>
      <point x="96" y="21" type="curve"/>
      <point x="96" y="5"/>
      <point x="109" y="0"/>
      <point x="121" y="0" type="curve" smooth="yes"/>
      <point x="507" y="0" type="line"/>
      <point x="518" y="0"/>
      <point x="527" y="8"/>
      <point x="527" y="20" type="curve"/>
      <point x="527" y="31"/>
      <point x="518" y="40"/>
    </contour>
  </outline>
</glyph>
<glyph name="three" format="2">
  <advance width="519"/>
  <unicode hex="0033"/>
  <note>
three
</note>
  <outline>
    <contour>
      <point x="81" y="90" type="curve"/>
      <point x="69" y="90"/>
      <point x="60" y="78"/>
      <point x="60" y="68" type="curve"/>
      <point x="60" y="63"/>
      <point x="62" y="58"/>
      <point x="66" y="54" type="curve"/>
      <point x="107" y="10"/>
      <point x="165" y="-10"/>
      <point x="222" y="-10" type="curve"/>
      <point x="350" y="-10"/>
      <point x="461" y="83"/>
      <point x="461" y="221" type="curve"/>
      <point x="461" y="371"/>
      <point x="348" y="442"/>
      <point x="242" y="442" type="curve"/>
      <point x="228" y="442"/>
      <point x="199" y="437"/>
      <point x="199" y="433" type="curve"/>
      <point x="219" y="427" type="line"/>
      <point x="431" y="665" type="line"/>
      <point x="435" y="669"/>
      <point x="437" y="674"/>
      <point x="437" y="679" type="curve" smooth="yes"/>
      <point x="437" y="684"/>
      <point x="433" y="700"/>
      <point x="416" y="700" type="curve"/>
      <point x="70" y="700" type="line"/>
      <point x="59" y="700"/>
      <point x="50" y="692"/>
      <point x="50" y="680" type="curve"/>
      <point x="50" y="669"/>
      <point x="59" y="660"/>
      <point x="70" y="660" type="curve"/>
      <point x="392" y="660" type="line"/>
      <point x="386" y="674" type="line"/>
      <point x="171" y="434" type="line"/>
      <point x="167" y="430"/>
      <point x="166" y="425"/>
      <point x="166" y="420" type="curve" smooth="yes"/>
      <point x="166" y="407"/>
      <point x="174" y="398"/>
      <point x="186" y="398" type="curve" smooth="yes"/>
      <point x="188" y="398"/>
      <point x="213" y="401"/>
      <point x="227" y="401" type="curve" smooth="yes"/>
      <point x="319" y="401"/>
      <point x="419" y="349"/>
      <point x="419" y="221" type="curve"/>
      <point x="419" y="110"/>
      <point x="332" y="32"/>
      <point x="222" y="32" type="curve"/>
      <point x="170" y="32"/>
      <point x="128" y="48"/>
      <point x="99" y="80" type="curve"/>
      <point x="91" y="89"/>
      <point x="86" y="90"/>
    </contour>
  </outline>
</glyph>
<glyph name="four" format="2">
  <advance width="505"/>
  <unicode hex="0034"/>
  <note>
four
</note>
  <outline>
    <contour>
      <point x="360" y="0" type="curve"/>
      <point x="371" y="0"/>
      <point x="380" y="9"/>
      <point x="380" y="20" type="curve"/>
      <point x="380" y="680" type="line"/>
      <point x="380" y="691"/>
      <point x="372" y="700"/>
      <point x="360" y="700" type="curve"/>
      <point x="359" y="700"/>
      <point x="349" y="700"/>
      <point x="343" y="692" type="curve"/>
      <point x="20" y="259" type="line"/>
      <point x="16" y="255"/>
      <point x="15" y="250"/>
      <point x="15" y="246" type="curve" smooth="yes"/>
      <point x="15" y="236"/>
      <point x="23" y="225"/>
      <point x="35" y="225" type="curve"/>
      <point x="456" y="225" type="line"/>
      <point x="467" y="225"/>
      <point x="476" y="233"/>
      <point x="476" y="244" type="curve"/>
      <point x="476" y="255"/>
      <point x="467" y="263"/>
      <point x="456" y="263" type="curve"/>
      <point x="62" y="263" type="line"/>
      <point x="65" y="252" type="line"/>
      <point x="351" y="637" type="line"/>
      <point x="340" y="645" type="line"/>
      <point x="340" y="20" type="line"/>
      <point x="340" y="9"/>
      <point x="348" y="0"/>
    </contour>
  </outline>
</glyph>
<glyph name="five" format="2">
  <advance width="539"/>
  <unicode hex="0035"/>
  <note>
five
</note>
  <outline>
    <contour>
      <point x="221" y="1" type="curve"/>
      <point x="372" y="1"/>
      <point x="469" y="98"/>
      <point x="469" y="242" type="curve"/>
      <point x="469" y="373"/>
      <point x="373" y="463"/>
      <point x="246" y="463" type="curve"/>
      <point x="172" y="463"/>
      <point x="108" y="437"/>
      <point x="77" y="417" type="curve"/>
      <point x="97" y="412" type="line"/>
      <point x="143" y="667" type="line"/>
      <point x="134" y="658" type="line"/>
      <point x="431" y="658" type="line"/>
      <point x="442" y="658"/>
      <point x="451" y="667"/>
      <point x="451" y="679" type="curve"/>
      <point x="451" y="691"/>
      <point x="442" y="700"/>
      <point x="431" y="700" type="curve"/>
      <point x="126" y="700" type="line" smooth="yes"/>
      <point x="113" y="700"/>
      <point x="105" y="689"/>
      <point x="104" y="683" type="curve" smooth="yes"/>
      <point x="57" y="402" type="line"/>
      <point x="53" y="387"/>
      <point x="67" y="378"/>
      <point x="78" y="378" type="curve"/>
      <point x="90" y="378"/>
      <point x="154" y="424"/>
      <point x="231" y="424" type="curve"/>
      <point x="355" y="424"/>
      <point x="429" y="348"/>
      <point x="429" y="239" type="curve"/>
      <point x="429" y="120"/>
      <point x="347" y="41"/>
      <point x="221" y="41" type="curve"/>
      <point x="174" y="41"/>
      <point x="127" y="57"/>
      <point x="88" y="89" type="curve"/>
      <point x="84" y="93"/>
      <point x="79" y="95"/>
      <point x="74" y="95" type="curve"/>
      <point x="63" y="95"/>
      <point x="54" y="81"/>
      <point x="54" y="72" type="curve"/>
      <point x="54" y="67"/>
      <point x="57" y="61"/>
      <point x="62" y="57" type="curve"/>
      <point x="107" y="19"/>
      <point x="164" y="1"/>
    </contour>
  </outline>
</glyph>
<glyph name="six" format="2">
  <advance width="533"/>
  <unicode hex="0036"/>
  <note>
six
</note>
  <outline>
    <contour>
      <point x="288" y="-10" type="curve"/>
      <point x="414" y="-10"/>
      <point x="503" y="96"/>
      <point x="503" y="211" type="curve"/>
      <point x="503" y="325"/>
      <point x="426" y="439"/>
      <point x="299" y="439" type="curve"/>
      <point x="212" y="439"/>
      <point x="133" y="390"/>
      <point x="95" y="314" type="curve"/>
      <point x="115" y="332" type="line"/>
      <point x="142" y="475"/>
      <point x="262" y="632"/>
      <point x="383" y="686" type="curve"/>
      <point x="392" y="690"/>
      <point x="397" y="696"/>
      <point x="397" y="704" type="curve"/>
      <point x="397" y="720"/>
      <point x="387" y="727"/>
      <point x="375" y="727" type="curve"/>
      <point x="372" y="727"/>
      <point x="369" y="726"/>
      <point x="366" y="725" type="curve"/>
      <point x="182" y="647"/>
      <point x="60" y="408"/>
      <point x="60" y="232" type="curve"/>
      <point x="60" y="111"/>
      <point x="127" y="-10"/>
    </contour>
    <contour>
      <point x="286" y="30" type="curve"/>
      <point x="167" y="30"/>
      <point x="101" y="116"/>
      <point x="101" y="207" type="curve"/>
      <point x="101" y="309"/>
      <point x="170" y="398"/>
      <point x="292" y="398" type="curve"/>
      <point x="405" y="398"/>
      <point x="461" y="306"/>
      <point x="461" y="211" type="curve"/>
      <point x="461" y="103"/>
      <point x="388" y="30"/>
    </contour>
  </outline>
</glyph>
<glyph name="seven" format="2">
  <advance width="501"/>
  <unicode hex="0037"/>
  <note>
seven
</note>
  <outline>
    <contour>
      <point x="170" y="-2" type="curve"/>
      <point x="179" y="-2"/>
      <point x="187" y="3"/>
      <point x="190" y="11" type="curve"/>
      <point x="469" y="672" type="line"/>
      <point x="470" y="674"/>
      <point x="471" y="680"/>
      <point x="471" y="682" type="curve" smooth="yes"/>
      <point x="471" y="692"/>
      <point x="468" y="700"/>
      <point x="454" y="700" type="curve" smooth="yes"/>
      <point x="80" y="700" type="line"/>
      <point x="69" y="700"/>
      <point x="60" y="692"/>
      <point x="60" y="680" type="curve"/>
      <point x="60" y="668"/>
      <point x="69" y="660"/>
      <point x="80" y="660" type="curve"/>
      <point x="435" y="660" type="line"/>
      <point x="423" y="669" type="line"/>
      <point x="151" y="26" type="line"/>
      <point x="150" y="23"/>
      <point x="149" y="19"/>
      <point x="149" y="16" type="curve"/>
      <point x="149" y="5"/>
      <point x="161" y="-2"/>
    </contour>
  </outline>
</glyph>
<glyph name="eight" format="2">
  <advance width="557"/>
  <unicode hex="0038"/>
  <note>
eight
</note>
  <outline>
    <contour>
      <point x="366" y="351" type="line"/>
      <point x="420" y="377"/>
      <point x="469" y="438"/>
      <point x="469" y="514" type="curve"/>
      <point x="469" y="619"/>
      <point x="384" y="700"/>
      <point x="278" y="700" type="curve"/>
      <point x="171" y="700"/>
      <point x="86" y="619"/>
      <point x="86" y="514" type="curve"/>
      <point x="86" y="438"/>
      <point x="136" y="375"/>
      <point x="190" y="350" type="curve"/>
      <point x="192" y="354" type="line"/>
      <point x="127" y="327"/>
      <point x="70" y="266"/>
      <point x="70" y="179" type="curve"/>
      <point x="70" y="74"/>
      <point x="160" y="-10"/>
      <point x="278" y="-10" type="curve"/>
      <point x="396" y="-10"/>
      <point x="487" y="74"/>
      <point x="487" y="179" type="curve"/>
      <point x="487" y="266"/>
      <point x="428" y="330"/>
      <point x="363" y="355" type="curve"/>
    </contour>
    <contour>
      <point x="128" y="514" type="curve"/>
      <point x="128" y="601"/>
      <point x="189" y="660"/>
      <point x="278" y="660" type="curve"/>
      <point x="366" y="660"/>
      <point x="427" y="601"/>
      <point x="427" y="514" type="curve"/>
      <point x="427" y="426"/>
      <point x="355" y="367"/>
      <point x="278" y="367" type="curve"/>
      <point x="200" y="367"/>
      <point x="128" y="426"/>
    </contour>
    <contour>
      <point x="278" y="30" type="curve"/>
      <point x="178" y="30"/>
      <point x="112" y="92"/>
      <point x="112" y="179" type="curve"/>
      <point x="112" y="267"/>
      <point x="189" y="331"/>
      <point x="278" y="331" type="curve"/>
      <point x="367" y="331"/>
      <point x="445" y="267"/>
      <point x="445" y="179" type="curve"/>
      <point x="445" y="92"/>
      <point x="378" y="30"/>
    </contour>
  </outline>
</glyph>
<glyph name="nine" format="2">
  <advance width="555"/>
  <unicode hex="0039"/>
  <note>
nine
</note>
  <outline>
    <contour>
      <point x="275" y="710" type="curve"/>
      <point x="149" y="710"/>
      <point x="60" y="604"/>
      <point x="60" y="489" type="curve"/>
      <point x="60" y="375"/>
      <point x="137" y="263"/>
      <point x="264" y="263" type="curve"/>
      <point x="351" y="263"/>
      <point x="430" y="310"/>
      <point x="468" y="386" type="curve"/>
      <point x="448" y="368" type="line"/>
      <point x="421" y="225"/>
      <point x="301" y="83"/>
      <point x="180" y="29" type="curve"/>
      <point x="171" y="25"/>
      <point x="166" y="19"/>
      <point x="166" y="11" type="curve"/>
      <point x="166" y="0"/>
      <point x="176" y="-12"/>
      <point x="188" y="-12" type="curve"/>
      <point x="191" y="-12"/>
      <point x="194" y="-11"/>
      <point x="197" y="-10" type="curve"/>
      <point x="381" y="68"/>
      <point x="503" y="292"/>
      <point x="503" y="468" type="curve"/>
      <point x="503" y="589"/>
      <point x="436" y="710"/>
    </contour>
    <contour>
      <point x="277" y="670" type="curve"/>
      <point x="396" y="670"/>
      <point x="462" y="584"/>
      <point x="462" y="493" type="curve"/>
      <point x="462" y="391"/>
      <point x="393" y="304"/>
      <point x="271" y="304" type="curve"/>
      <point x="158" y="304"/>
      <point x="102" y="394"/>
      <point x="102" y="489" type="curve"/>
      <point x="102" y="597"/>
      <point x="175" y="670"/>
    </contour>
  </outline>
</glyph>
<glyph name="colon" format="2">
  <advance width="158"/>
  <unicode hex="003A"/>
  <note>
colon
</note>
  <outline>
    <contour>
      <point x="77" y="425" type="curve" smooth="yes"/>
      <point x="81" y="425" type="line" smooth="yes"/>
      <point x="99" y="425"/>
      <point x="108" y="438"/>
      <point x="108" y="456" type="curve" smooth="yes"/>
      <point x="108" y="479" type="line" smooth="yes"/>
      <point x="108" y="497"/>
      <point x="99" y="510"/>
      <point x="81" y="510" type="curve" smooth="yes"/>
      <point x="77" y="510" type="line" smooth="yes"/>
      <point x="59" y="510"/>
      <point x="50" y="497"/>
      <point x="50" y="479" type="curve" smooth="yes"/>
      <point x="50" y="456" type="line" smooth="yes"/>
      <point x="50" y="438"/>
      <point x="59" y="425"/>
    </contour>
    <contour>
      <point x="77" y="0" type="curve" smooth="yes"/>
      <point x="81" y="0" type="line" smooth="yes"/>
      <point x="99" y="0"/>
      <point x="108" y="13"/>
      <point x="108" y="31" type="curve" smooth="yes"/>
      <point x="108" y="54" type="line" smooth="yes"/>
      <point x="108" y="72"/>
      <point x="99" y="85"/>
      <point x="81" y="85" type="curve" smooth="yes"/>
      <point x="77" y="85" type="line" smooth="yes"/>
      <point x="59" y="85"/>
      <point x="50" y="72"/>
      <point x="50" y="54" type="curve" smooth="yes"/>
      <point x="50" y="31" type="line" smooth="yes"/>
      <point x="50" y="13"/>
      <point x="59" y="0"/>
    </contour>
  </outline>
</glyph>
<glyph name="semicolon" format="2">
  <advance width="167"/>
  <unicode hex="003B"/>
  <note>
semicolon
</note>
  <outline>
    <contour>
      <point x="94" y="425" type="curve" smooth="yes"/>
      <point x="98" y="425" type="line" smooth="yes"/>
      <point x="116" y="425"/>
      <point x="129" y="438"/>
      <point x="129" y="456" type="curve" smooth="yes"/>
      <point x="129" y="479" type="line" smooth="yes"/>
      <point x="129" y="497"/>
      <point x="116" y="510"/>
      <point x="98" y="510" type="curve" smooth="yes"/>
      <point x="94" y="510" type="line" smooth="yes"/>
      <point x="76" y="510"/>
      <point x="63" y="497"/>
      <point x="63" y="479" type="curve" smooth="yes"/>
      <point x="63" y="456" type="line" smooth="yes"/>
      <point x="63" y="438"/>
      <point x="76" y="425"/>
    </contour>
    <component base="comma"/>
  </outline>
</glyph>
<glyph name="less" format="2">
  <advance width="522"/>
  <unicode hex="003C"/>
  <note>
less
</note>
  <outline>
    <contour>
      <point x="433" y="0" type="curve"/>
      <point x="444" y="0"/>
      <point x="452" y="9"/>
      <point x="452" y="19" type="curve"/>
      <point x="452" y="32"/>
      <point x="446" y="37"/>
      <point x="428" y="46" type="curve"/>
      <point x="79" y="239" type="line"/>
      <point x="79" y="236" type="line"/>
      <point x="433" y="433" type="line"/>
      <point x="443" y="438"/>
      <point x="449" y="444"/>
      <point x="449" y="457" type="curve"/>
      <point x="449" y="467"/>
      <point x="440" y="476"/>
      <point x="427" y="475" type="curve"/>
      <point x="422" y="475"/>
      <point x="416" y="473"/>
      <point x="411" y="470" type="curve"/>
      <point x="60" y="271" type="line"/>
      <point x="45" y="263"/>
      <point x="35" y="255"/>
      <point x="35" y="240" type="curve"/>
      <point x="35" y="225"/>
      <point x="40" y="217"/>
      <point x="56" y="209" type="curve"/>
      <point x="415" y="6" type="line"/>
      <point x="420" y="3"/>
      <point x="428" y="0"/>
    </contour>
  </outline>
</glyph>
<glyph name="equal" format="2">
  <advance width="436"/>
  <unicode hex="003D"/>
  <note>
equal
</note>
  <outline>
    <contour>
      <point x="71" y="297" type="curve"/>
      <point x="365" y="297" type="line"/>
      <point x="377" y="297"/>
      <point x="386" y="306"/>
      <point x="386" y="316" type="curve"/>
      <point x="386" y="328"/>
      <point x="377" y="337"/>
      <point x="365" y="337" type="curve"/>
      <point x="71" y="337" type="line"/>
      <point x="59" y="337"/>
      <point x="50" y="329"/>
      <point x="50" y="318" type="curve"/>
      <point x="50" y="306"/>
      <point x="59" y="297"/>
    </contour>
    <contour>
      <point x="71" y="118" type="curve"/>
      <point x="365" y="118" type="line"/>
      <point x="377" y="118"/>
      <point x="386" y="127"/>
      <point x="386" y="137" type="curve"/>
      <point x="386" y="149"/>
      <point x="377" y="158"/>
      <point x="365" y="158" type="curve"/>
      <point x="71" y="158" type="line"/>
      <point x="59" y="158"/>
      <point x="50" y="150"/>
      <point x="50" y="139" type="curve"/>
      <point x="50" y="127"/>
      <point x="59" y="118"/>
    </contour>
  </outline>
</glyph>
<glyph name="greater" format="2">
  <advance width="531"/>
  <unicode hex="003E"/>
  <note>
greater
</note>
  <outline>
    <contour>
      <point x="89" y="0" type="curve"/>
      <point x="94" y="0"/>
      <point x="102" y="3"/>
      <point x="107" y="6" type="curve"/>
      <point x="475" y="207" type="line"/>
      <point x="491" y="215"/>
      <point x="496" y="223"/>
      <point x="496" y="238" type="curve"/>
      <point x="496" y="253"/>
      <point x="486" y="261"/>
      <point x="471" y="269" type="curve"/>
      <point x="111" y="470" type="line"/>
      <point x="106" y="473"/>
      <point x="100" y="475"/>
      <point x="95" y="475" type="curve"/>
      <point x="82" y="476"/>
      <point x="73" y="467"/>
      <point x="73" y="457" type="curve"/>
      <point x="73" y="444"/>
      <point x="79" y="438"/>
      <point x="89" y="433" type="curve"/>
      <point x="452" y="234" type="line"/>
      <point x="452" y="237" type="line"/>
      <point x="94" y="46" type="line"/>
      <point x="76" y="37"/>
      <point x="70" y="32"/>
      <point x="70" y="19" type="curve"/>
      <point x="70" y="9"/>
      <point x="78" y="0"/>
    </contour>
  </outline>
</glyph>
<glyph name="question" format="2">
  <advance width="471"/>
  <unicode hex="003F"/>
  <note>
question
</note>
  <outline>
    <contour>
      <point x="216" y="343" type="curve"/>
      <point x="216" y="209" type="line"/>
      <point x="215" y="198"/>
      <point x="223" y="189"/>
      <point x="235" y="189" type="curve"/>
      <point x="246" y="189"/>
      <point x="254" y="198"/>
      <point x="254" y="209" type="curve"/>
      <point x="254" y="337" type="line"/>
      <point x="246" y="327"/>
      <point x="232" y="326"/>
      <point x="237" y="326" type="curve"/>
      <point x="351" y="326"/>
      <point x="443" y="431"/>
      <point x="443" y="529" type="curve"/>
      <point x="443" y="659"/>
      <point x="354" y="735"/>
      <point x="247" y="735" type="curve"/>
      <point x="173" y="735"/>
      <point x="103" y="696"/>
      <point x="63" y="640" type="curve"/>
      <point x="56" y="630"/>
      <point x="58" y="617"/>
      <point x="70" y="611" type="curve"/>
      <point x="80" y="606"/>
      <point x="89" y="609"/>
      <point x="96" y="618" type="curve"/>
      <point x="130" y="665"/>
      <point x="185" y="697"/>
      <point x="247" y="697" type="curve"/>
      <point x="333" y="697"/>
      <point x="400" y="630"/>
      <point x="400" y="529" type="curve"/>
      <point x="400" y="441"/>
      <point x="330" y="370"/>
      <point x="236" y="363" type="curve"/>
      <point x="225" y="363"/>
      <point x="216" y="354"/>
    </contour>
    <contour>
      <point x="237" y="0" type="curve"/>
      <point x="241" y="0" type="line"/>
      <point x="259" y="0"/>
      <point x="268" y="13"/>
      <point x="268" y="31" type="curve"/>
      <point x="268" y="54" type="line"/>
      <point x="268" y="72"/>
      <point x="259" y="85"/>
      <point x="241" y="85" type="curve"/>
      <point x="237" y="85" type="line"/>
      <point x="219" y="85"/>
      <point x="210" y="72"/>
      <point x="210" y="54" type="curve"/>
      <point x="210" y="31" type="line"/>
      <point x="210" y="13"/>
      <point x="219" y="0"/>
    </contour>
  </outline>
</glyph>
<glyph name="at" format="2">
  <advance width="975"/>
  <unicode hex="0040"/>
  <note>
at
</note>
  <outline>
    <contour>
      <point x="700" y="55" type="curve"/>
      <point x="825" y="55"/>
      <point x="925" y="233"/>
      <point x="925" y="396" type="curve"/>
      <point x="925" y="568"/>
      <point x="804" y="710"/>
      <point x="576" y="710" type="curve"/>
      <point x="278" y="710"/>
      <point x="40" y="518"/>
      <point x="40" y="206" type="curve"/>
      <point x="40" y="24"/>
      <point x="145" y="-162"/>
      <point x="414" y="-162" type="curve"/>
      <point x="526" y="-162"/>
      <point x="596" y="-126"/>
      <point x="653" y="-98" type="curve"/>
      <point x="663" y="-93"/>
      <point x="666" y="-83"/>
      <point x="662" y="-73" type="curve"/>
      <point x="657" y="-60"/>
      <point x="646" y="-62"/>
      <point x="639" y="-65" type="curve"/>
      <point x="575" y="-94"/>
      <point x="524" y="-124"/>
      <point x="414" y="-124" type="curve"/>
      <point x="176" y="-124"/>
      <point x="80" y="42"/>
      <point x="80" y="206" type="curve"/>
      <point x="80" y="498"/>
      <point x="297" y="672"/>
      <point x="576" y="672" type="curve"/>
      <point x="764" y="672"/>
      <point x="885" y="560"/>
      <point x="885" y="396" type="curve"/>
      <point x="885" y="248"/>
      <point x="800" y="92"/>
      <point x="700" y="92" type="curve"/>
      <point x="675" y="92"/>
      <point x="647" y="111"/>
      <point x="654" y="156" type="curve" smooth="yes"/>
      <point x="704" y="472" type="line"/>
      <point x="707" y="492"/>
      <point x="701" y="500"/>
      <point x="687" y="500" type="curve"/>
      <point x="672" y="500"/>
      <point x="666" y="492"/>
      <point x="664" y="477" type="curve"/>
      <point x="641" y="331" type="line"/>
      <point x="658" y="376" type="line"/>
      <point x="646" y="448"/>
      <point x="595" y="510"/>
      <point x="507" y="510" type="curve"/>
      <point x="368" y="510"/>
      <point x="266" y="345"/>
      <point x="266" y="220" type="curve"/>
      <point x="266" y="132"/>
      <point x="322" y="55"/>
      <point x="412" y="55" type="curve"/>
      <point x="498" y="55"/>
      <point x="589" y="121"/>
      <point x="634" y="230" type="curve"/>
      <point x="620" y="222" type="line"/>
      <point x="611" y="145" type="line" smooth="yes"/>
      <point x="605" y="90"/>
      <point x="639" y="55"/>
    </contour>
    <contour>
      <point x="414" y="93" type="curve"/>
      <point x="358" y="93"/>
      <point x="308" y="140"/>
      <point x="308" y="222" type="curve"/>
      <point x="308" y="324"/>
      <point x="383" y="472"/>
      <point x="508" y="472" type="curve"/>
      <point x="590" y="472"/>
      <point x="639" y="411"/>
      <point x="639" y="343" type="curve"/>
      <point x="639" y="213"/>
      <point x="515" y="93"/>
    </contour>
  </outline>
</glyph>
<glyph name="A" format="2">
  <advance width="649"/>
  <unicode hex="0041"/>
  <note>
A
</note>
  <anchor x="325" y="0" name="bottom"/>
  <anchor x="584" y="10" name="ogonek"/>
  <anchor x="325" y="700" name="top"/>
  <outline>
    <contour>
      <point x="327" y="649" type="line"/>
      <point x="312" y="657" type="line"/>
      <point x="573" y="13" type="line" smooth="yes"/>
      <point x="576" y="5"/>
      <point x="584" y="0"/>
      <point x="593" y="0" type="curve" smooth="yes"/>
      <point x="605" y="0"/>
      <point x="614" y="7"/>
      <point x="614" y="19" type="curve" smooth="yes"/>
      <point x="614" y="22"/>
      <point x="614" y="24"/>
      <point x="613" y="27" type="curve" smooth="yes"/>
      <point x="344" y="689" type="line"/>
      <point x="341" y="697"/>
      <point x="334" y="702"/>
      <point x="324" y="702" type="curve" smooth="yes"/>
      <point x="315" y="702"/>
      <point x="309" y="700"/>
      <point x="305" y="689" type="curve"/>
      <point x="36" y="27" type="line" smooth="yes"/>
      <point x="35" y="24"/>
      <point x="34" y="20"/>
      <point x="35" y="17" type="curve" smooth="yes"/>
      <point x="36" y="8"/>
      <point x="43" y="0"/>
      <point x="56" y="0" type="curve" smooth="yes"/>
      <point x="64" y="0"/>
      <point x="71" y="5"/>
      <point x="74" y="13" type="curve" smooth="yes"/>
    </contour>
    <contour>
      <point x="142" y="217" type="line"/>
      <point x="490" y="217" type="line"/>
      <point x="480" y="257" type="line"/>
      <point x="156" y="257" type="line"/>
    </contour>
  </outline>
</glyph>
<glyph name="B" format="2">
  <advance width="650"/>
  <unicode hex="0042"/>
  <note>
B
</note>
  <anchor x="325" y="0" name="bottom"/>
  <anchor x="325" y="700" name="top"/>
  <outline>
    <contour>
      <point x="389" y="700" type="curve"/>
      <point x="120" y="700" type="line"/>
      <point x="109" y="700"/>
      <point x="100" y="691"/>
      <point x="100" y="680" type="curve"/>
      <point x="100" y="20" type="line"/>
      <point x="100" y="9"/>
      <point x="109" y="0"/>
      <point x="120" y="0" type="curve"/>
      <point x="396" y="0" type="line"/>
      <point x="509" y="0"/>
      <point x="600" y="62"/>
      <point x="600" y="189" type="curve"/>
      <point x="600" y="308"/>
      <point x="518" y="370"/>
      <point x="414" y="370" type="curve"/>
      <point x="421" y="358" type="line"/>
      <point x="514" y="365"/>
      <point x="565" y="447"/>
      <point x="565" y="530" type="curve"/>
      <point x="565" y="634"/>
      <point x="496" y="700"/>
    </contour>
    <contour>
      <point x="384" y="660" type="line"/>
      <point x="473" y="660"/>
      <point x="523" y="608"/>
      <point x="523" y="531" type="curve"/>
      <point x="523" y="431"/>
      <point x="463" y="380"/>
      <point x="384" y="379" type="curve"/>
      <point x="132" y="379" type="line"/>
      <point x="142" y="362" type="line"/>
      <point x="142" y="679" type="line"/>
      <point x="131" y="660" type="line"/>
    </contour>
    <contour>
      <point x="391" y="338" type="line"/>
      <point x="485" y="338"/>
      <point x="558" y="293"/>
      <point x="558" y="189" type="curve"/>
      <point x="558" y="85"/>
      <point x="485" y="40"/>
      <point x="391" y="40" type="curve"/>
      <point x="137" y="40" type="line"/>
      <point x="142" y="32" type="line"/>
      <point x="142" y="344" type="line"/>
      <point x="138" y="338" type="line"/>
    </contour>
  </outline>
</glyph>
<glyph name="C" format="2">
  <advance width="662"/>
  <unicode hex="0043"/>
  <note>
C
</note>
  <anchor x="411" y="0" name="bottom"/>
  <anchor x="399" y="700" name="top"/>
  <outline>
    <contour>
      <point x="618" y="642" type="curve"/>
      <point x="558" y="684"/>
      <point x="480" y="710"/>
      <point x="399" y="710" type="curve"/>
      <point x="208" y="710"/>
      <point x="50" y="557"/>
      <point x="50" y="350" type="curve"/>
      <point x="50" y="143"/>
      <point x="208" y="-10"/>
      <point x="399" y="-10" type="curve"/>
      <point x="480" y="-10"/>
      <point x="570" y="23"/>
      <point x="619" y="58" type="curve"/>
      <point x="628" y="65"/>
      <point x="630" y="77"/>
      <point x="623" y="86" type="curve"/>
      <point x="616" y="95"/>
      <point x="604" y="97"/>
      <point x="595" y="90" type="curve"/>
      <point x="539" y="52"/>
      <point x="474" y="28"/>
      <point x="399" y="28" type="curve"/>
      <point x="229" y="28"/>
      <point x="92" y="161"/>
      <point x="92" y="350" type="curve"/>
      <point x="92" y="539"/>
      <point x="229" y="672"/>
      <point x="399" y="672" type="curve"/>
      <point x="473" y="672"/>
      <point x="540" y="647"/>
      <point x="596" y="609" type="curve"/>
      <point x="605" y="603"/>
      <point x="616" y="604"/>
      <point x="623" y="613" type="curve"/>
      <point x="630" y="624"/>
      <point x="628" y="634"/>
    </contour>
  </outline>
</glyph>
<glyph name="D" format="2">
  <advance width="720"/>
  <unicode hex="0044"/>
  <note>
D
</note>
  <anchor x="320" y="0" name="bottom"/>
  <anchor x="124" y="350" name="center"/>
  <anchor x="313" y="700" name="top"/>
  <outline>
    <contour>
      <point x="380" y="700" type="curve" smooth="yes"/>
      <point x="120" y="700" type="line" smooth="yes"/>
      <point x="109" y="700"/>
      <point x="100" y="691"/>
      <point x="100" y="680" type="curve" smooth="yes"/>
      <point x="100" y="20" type="line" smooth="yes"/>
      <point x="100" y="9"/>
      <point x="109" y="0"/>
      <point x="120" y="0" type="curve" smooth="yes"/>
      <point x="380" y="0" type="line" smooth="yes"/>
      <point x="581" y="0"/>
      <point x="670" y="158"/>
      <point x="670" y="350" type="curve" smooth="yes"/>
      <point x="670" y="532"/>
      <point x="581" y="700"/>
    </contour>
    <contour>
      <point x="370" y="40" type="curve" smooth="yes"/>
      <point x="136" y="40" type="line"/>
      <point x="142" y="31" type="line"/>
      <point x="142" y="668" type="line"/>
      <point x="136" y="660" type="line"/>
      <point x="370" y="660" type="line" smooth="yes"/>
      <point x="553" y="660"/>
      <point x="628" y="513"/>
      <point x="628" y="350" type="curve" smooth="yes"/>
      <point x="628" y="177"/>
      <point x="553" y="40"/>
    </contour>
  </outline>
</glyph>
<glyph name="E" format="2">
  <advance width="567"/>
  <unicode hex="0045"/>
  <note>
E
</note>
  <anchor x="320" y="0" name="bottom"/>
  <anchor x="510" y="10" name="ogonek"/>
  <anchor x="322" y="700" name="top"/>
  <anchor x="20" y="700" name="topleft"/>
  <outline>
    <contour>
      <point x="120" y="700" type="line" smooth="yes"/>
      <point x="109" y="700"/>
      <point x="100" y="691"/>
      <point x="100" y="680" type="curve" smooth="yes"/>
      <point x="100" y="20" type="line" smooth="yes"/>
      <point x="100" y="9"/>
      <point x="109" y="0"/>
      <point x="120" y="0" type="curve" smooth="yes"/>
      <point x="497" y="0" type="line" smooth="yes"/>
      <point x="508" y="0"/>
      <point x="517" y="8"/>
      <point x="517" y="20" type="curve" smooth="yes"/>
      <point x="517" y="31"/>
      <point x="508" y="40"/>
      <point x="497" y="40" type="curve" smooth="yes"/>
      <point x="138" y="40" type="line"/>
      <point x="142" y="35" type="line"/>
      <point x="142" y="352" type="line"/>
      <point x="132" y="341" type="line"/>
      <point x="452" y="341" type="line" smooth="yes"/>
      <point x="463" y="341"/>
      <point x="472" y="349"/>
      <point x="472" y="361" type="curve" smooth="yes"/>
      <point x="472" y="372"/>
      <point x="463" y="381"/>
      <point x="452" y="381" type="curve" smooth="yes"/>
      <point x="130" y="381" type="line"/>
      <point x="142" y="367" type="line"/>
      <point x="142" y="677" type="line"/>
      <point x="132" y="660" type="line"/>
      <point x="497" y="660" type="line" smooth="yes"/>
      <point x="508" y="660"/>
      <point x="517" y="668"/>
      <point x="517" y="680" type="curve" smooth="yes"/>
      <point x="517" y="691"/>
      <point x="508" y="700"/>
      <point x="497" y="700" type="curve" smooth="yes"/>
    </contour>
  </outline>
</glyph>
<glyph name="F" format="2">
  <advance width="567"/>
  <unicode hex="0046"/>
  <note>
F
</note>
  <anchor x="284" y="0" name="bottom"/>
  <anchor x="127" y="214" name="center"/>
  <anchor x="284" y="700" name="top"/>
  <outline>
    <contour>
      <point x="120" y="0" type="curve" smooth="yes"/>
      <point x="132" y="0"/>
      <point x="140" y="9"/>
      <point x="140" y="20" type="curve" smooth="yes"/>
      <point x="140" y="352" type="line"/>
      <point x="134" y="344" type="line"/>
      <point x="452" y="344" type="line" smooth="yes"/>
      <point x="463" y="344"/>
      <point x="472" y="352"/>
      <point x="472" y="364" type="curve" smooth="yes"/>
      <point x="472" y="375"/>
      <point x="463" y="384"/>
      <point x="452" y="384" type="curve" smooth="yes"/>
      <point x="136" y="384" type="line"/>
      <point x="140" y="376" type="line"/>
      <point x="140" y="664" type="line"/>
      <point x="137" y="660" type="line"/>
      <point x="497" y="660" type="line" smooth="yes"/>
      <point x="508" y="660"/>
      <point x="517" y="668"/>
      <point x="517" y="680" type="curve" smooth="yes"/>
      <point x="517" y="691"/>
      <point x="508" y="700"/>
      <point x="497" y="700" type="curve" smooth="yes"/>
      <point x="120" y="700" type="line" smooth="yes"/>
      <point x="109" y="700"/>
      <point x="100" y="691"/>
      <point x="100" y="680" type="curve" smooth="yes"/>
      <point x="100" y="20" type="line" smooth="yes"/>
      <point x="100" y="9"/>
      <point x="108" y="0"/>
    </contour>
  </outline>
</glyph>
<glyph name="G" format="2">
  <advance width="694"/>
  <unicode hex="0047"/>
  <note>
G
</note>
  <anchor x="388" y="0" name="bottom"/>
  <anchor x="377" y="700" name="top"/>
  <outline>
    <contour>
      <point x="409" y="-10" type="curve"/>
      <point x="486" y="-10"/>
      <point x="561" y="16"/>
      <point x="620" y="56" type="curve"/>
      <point x="627" y="61"/>
      <point x="629" y="69"/>
      <point x="629" y="74" type="curve"/>
      <point x="629" y="325" type="line"/>
      <point x="629" y="336"/>
      <point x="621" y="345"/>
      <point x="609" y="345" type="curve"/>
      <point x="409" y="345" type="line"/>
      <point x="398" y="345"/>
      <point x="389" y="337"/>
      <point x="389" y="325" type="curve"/>
      <point x="389" y="314"/>
      <point x="398" y="305"/>
      <point x="409" y="305" type="curve"/>
      <point x="603" y="305" type="line"/>
      <point x="589" y="318" type="line"/>
      <point x="589" y="68" type="line"/>
      <point x="593" y="86" type="line"/>
      <point x="543" y="53"/>
      <point x="475" y="30"/>
      <point x="409" y="30" type="curve"/>
      <point x="223" y="30"/>
      <point x="92" y="164"/>
      <point x="92" y="350" type="curve"/>
      <point x="92" y="536"/>
      <point x="223" y="670"/>
      <point x="409" y="670" type="curve"/>
      <point x="474" y="670"/>
      <point x="533" y="651"/>
      <point x="583" y="623" type="curve"/>
      <point x="587" y="621"/>
      <point x="591" y="619"/>
      <point x="596" y="619" type="curve"/>
      <point x="603" y="619"/>
      <point x="615" y="625"/>
      <point x="615" y="639" type="curve"/>
      <point x="615" y="646"/>
      <point x="612" y="652"/>
      <point x="606" y="656" type="curve"/>
      <point x="552" y="692"/>
      <point x="482" y="710"/>
      <point x="409" y="710" type="curve"/>
      <point x="201" y="710"/>
      <point x="50" y="559"/>
      <point x="50" y="350" type="curve"/>
      <point x="50" y="141"/>
      <point x="201" y="-10"/>
    </contour>
  </outline>
</glyph>
<glyph name="H" format="2">
  <advance width="720"/>
  <unicode hex="0048"/>
  <note>
H
</note>
  <anchor x="360" y="0" name="bottom"/>
  <anchor x="360" y="350" name="center"/>
  <anchor x="360" y="700" name="top"/>
  <anchor x="20" y="700" name="topleft"/>
  <outline>
    <contour>
      <point x="121" y="700" type="curve" smooth="yes"/>
      <point x="109" y="700"/>
      <point x="100" y="691"/>
      <point x="100" y="679" type="curve" smooth="yes"/>
      <point x="100" y="21" type="line" smooth="yes"/>
      <point x="100" y="9"/>
      <point x="108" y="0"/>
      <point x="121" y="0" type="curve" smooth="yes"/>
      <point x="132" y="0"/>
      <point x="141" y="9"/>
      <point x="142" y="21" type="curve"/>
      <point x="142" y="679" type="line" smooth="yes"/>
      <point x="142" y="691"/>
      <point x="133" y="700"/>
    </contour>
    <contour>
      <point x="599" y="700" type="curve" smooth="yes"/>
      <point x="587" y="700"/>
      <point x="578" y="691"/>
      <point x="578" y="679" type="curve" smooth="yes"/>
      <point x="578" y="21" type="line" smooth="yes"/>
      <point x="578" y="9"/>
      <point x="586" y="0"/>
      <point x="599" y="0" type="curve" smooth="yes"/>
      <point x="610" y="0"/>
      <point x="619" y="9"/>
      <point x="620" y="21" type="curve"/>
      <point x="620" y="679" type="line" smooth="yes"/>
      <point x="620" y="691"/>
      <point x="611" y="700"/>
    </contour>
    <contour>
      <point x="116" y="380" type="line"/>
      <point x="110" y="340" type="line"/>
      <point x="599" y="340" type="line"/>
      <point x="601" y="380" type="line"/>
    </contour>
  </outline>
</glyph>
<glyph name="I" format="2">
  <advance width="242"/>
  <unicode hex="0049"/>
  <note>
I
</note>
  <anchor x="121" y="0" name="bottom"/>
  <anchor x="218" y="10" name="ogonek"/>
  <anchor x="121" y="700" name="top"/>
  <anchor x="20" y="700" name="topleft"/>
  <outline>
    <contour>
      <point x="142" y="21" type="curve"/>
      <point x="142" y="679" type="line" smooth="yes"/>
      <point x="142" y="691"/>
      <point x="133" y="700"/>
      <point x="121" y="700" type="curve" smooth="yes"/>
      <point x="109" y="700"/>
      <point x="100" y="691"/>
      <point x="100" y="679" type="curve" smooth="yes"/>
      <point x="100" y="21" type="line" smooth="yes"/>
      <point x="100" y="9"/>
      <point x="108" y="0"/>
      <point x="121" y="0" type="curve" smooth="yes"/>
      <point x="132" y="0"/>
      <point x="141" y="9"/>
    </contour>
  </outline>
</glyph>
<glyph name="J" format="2">
  <advance width="578"/>
  <unicode hex="004A"/>
  <note>
J
</note>
  <anchor x="289" y="0" name="bottom"/>
  <anchor x="458" y="700" name="top"/>
  <outline>
    <contour>
      <point x="267" y="-10" type="curve" smooth="yes"/>
      <point x="393" y="-10"/>
      <point x="478" y="74"/>
      <point x="478" y="199" type="curve" smooth="yes"/>
      <point x="478" y="680" type="line" smooth="yes"/>
      <point x="478" y="691"/>
      <point x="470" y="700"/>
      <point x="458" y="700" type="curve" smooth="yes"/>
      <point x="445" y="700"/>
      <point x="436" y="691"/>
      <point x="436" y="680" type="curve" smooth="yes"/>
      <point x="436" y="199" type="line" smooth="yes"/>
      <point x="436" y="96"/>
      <point x="370" y="30"/>
      <point x="267" y="30" type="curve" smooth="yes"/>
      <point x="197" y="30"/>
      <point x="139" y="77"/>
      <point x="114" y="144" type="curve"/>
      <point x="110" y="152"/>
      <point x="105" y="157"/>
      <point x="95" y="157" type="curve" smooth="yes"/>
      <point x="86" y="157"/>
      <point x="75" y="151"/>
      <point x="75" y="139" type="curve" smooth="yes"/>
      <point x="75" y="136"/>
      <point x="76" y="132"/>
      <point x="77" y="129" type="curve"/>
      <point x="110" y="48"/>
      <point x="180" y="-10"/>
    </contour>
  </outline>
</glyph>
<glyph name="K" format="2">
  <advance width="682"/>
  <unicode hex="004B"/>
  <note>
K
</note>
  <anchor x="300" y="0" name="bottom"/>
  <anchor x="341" y="700" name="top"/>
  <outline>
    <contour>
      <point x="606" y="-5" type="curve" smooth="yes"/>
      <point x="614" y="-5"/>
      <point x="629" y="0"/>
      <point x="629" y="16" type="curve" smooth="yes"/>
      <point x="629" y="21"/>
      <point x="627" y="26"/>
      <point x="624" y="30" type="curve" smooth="yes"/>
      <point x="322" y="408" type="line"/>
      <point x="290" y="376" type="line"/>
      <point x="592" y="2" type="line" smooth="yes"/>
      <point x="596" y="-3"/>
      <point x="601" y="-5"/>
    </contour>
    <contour>
      <point x="588" y="696" type="curve" smooth="yes"/>
      <point x="583" y="696"/>
      <point x="578" y="694"/>
      <point x="574" y="690" type="curve" smooth="yes"/>
      <point x="127" y="271" type="line"/>
      <point x="136" y="228" type="line"/>
      <point x="602" y="662" type="line" smooth="yes"/>
      <point x="606" y="666"/>
      <point x="608" y="671"/>
      <point x="608" y="676" type="curve" smooth="yes"/>
      <point x="608" y="687"/>
      <point x="599" y="696"/>
    </contour>
    <contour>
      <point x="121" y="0" type="curve" smooth="yes"/>
      <point x="132" y="0"/>
      <point x="141" y="9"/>
      <point x="142" y="21" type="curve"/>
      <point x="142" y="679" type="line" smooth="yes"/>
      <point x="142" y="691"/>
      <point x="133" y="700"/>
      <point x="121" y="700" type="curve" smooth="yes"/>
      <point x="109" y="700"/>
      <point x="100" y="691"/>
      <point x="100" y="679" type="curve" smooth="yes"/>
      <point x="100" y="21" type="line" smooth="yes"/>
      <point x="100" y="9"/>
      <point x="108" y="0"/>
    </contour>
  </outline>
</glyph>
<glyph name="L" format="2">
  <advance width="522"/>
  <unicode hex="004C"/>
  <note>
L
</note>
  <anchor x="286" y="0" name="bottom"/>
  <anchor x="261" y="350" name="center"/>
  <anchor x="111" y="700" name="top"/>
  <anchor x="502" y="700" name="topright"/>
  <outline>
    <contour>
      <point x="487" y="40" type="curve"/>
      <point x="124" y="40" type="line"/>
      <point x="142" y="22" type="line"/>
      <point x="142" y="680" type="line"/>
      <point x="142" y="691"/>
      <point x="133" y="700"/>
      <point x="121" y="700" type="curve"/>
      <point x="109" y="700"/>
      <point x="100" y="691"/>
      <point x="100" y="680" type="curve"/>
      <point x="100" y="20" type="line"/>
      <point x="100" y="9"/>
      <point x="108" y="0"/>
      <point x="120" y="0" type="curve"/>
      <point x="487" y="0" type="line"/>
      <point x="498" y="0"/>
      <point x="507" y="8"/>
      <point x="507" y="20" type="curve"/>
      <point x="507" y="31"/>
      <point x="498" y="40"/>
    </contour>
  </outline>
</glyph>
<glyph name="M" format="2">
  <advance width="829"/>
  <unicode hex="004D"/>
  <note>
M
</note>
  <anchor x="415" y="0" name="bottom"/>
  <anchor x="415" y="700" name="top"/>
  <outline>
    <contour>
      <point x="119" y="700" type="curve"/>
      <point x="107" y="700"/>
      <point x="100" y="689"/>
      <point x="100" y="680" type="curve"/>
      <point x="100" y="20" type="line"/>
      <point x="100" y="9"/>
      <point x="108" y="0"/>
      <point x="120" y="0" type="curve"/>
      <point x="131" y="0"/>
      <point x="140" y="9"/>
      <point x="140" y="20" type="curve"/>
      <point x="140" y="643" type="line"/>
      <point x="124" y="643" type="line"/>
      <point x="399" y="228" type="line" smooth="yes"/>
      <point x="402" y="223"/>
      <point x="408" y="220"/>
      <point x="415" y="220" type="curve" smooth="yes"/>
      <point x="421" y="220"/>
      <point x="426" y="223"/>
      <point x="429" y="228" type="curve" smooth="yes"/>
      <point x="698" y="635" type="line"/>
      <point x="687" y="635" type="line"/>
      <point x="687" y="20" type="line"/>
      <point x="687" y="9"/>
      <point x="696" y="0"/>
      <point x="708" y="0" type="curve"/>
      <point x="719" y="0"/>
      <point x="729" y="9"/>
      <point x="729" y="20" type="curve"/>
      <point x="729" y="680" type="line"/>
      <point x="729" y="690"/>
      <point x="722" y="699"/>
      <point x="711" y="700" type="curve"/>
      <point x="704" y="701"/>
      <point x="697" y="698"/>
      <point x="692" y="691" type="curve"/>
      <point x="405" y="264" type="line"/>
      <point x="425" y="264" type="line"/>
      <point x="138" y="691" type="line"/>
      <point x="133" y="698"/>
      <point x="125" y="700"/>
    </contour>
  </outline>
</glyph>
<glyph name="N" format="2">
  <advance width="725"/>
  <unicode hex="004E"/>
  <note>
N
</note>
  <anchor x="363" y="0" name="bottom"/>
  <anchor x="363" y="700" name="top"/>
  <outline>
    <contour>
      <point x="606" y="700" type="curve"/>
      <point x="596" y="700"/>
      <point x="587" y="692"/>
      <point x="587" y="681" type="curve"/>
      <point x="587" y="43" type="line"/>
      <point x="595" y="63" type="line"/>
      <point x="133" y="693" type="line"/>
      <point x="129" y="698"/>
      <point x="123" y="700"/>
      <point x="118" y="700" type="curve"/>
      <point x="110" y="700"/>
      <point x="100" y="695"/>
      <point x="100" y="680" type="curve"/>
      <point x="100" y="17" type="line"/>
      <point x="100" y="8"/>
      <point x="107" y="0"/>
      <point x="119" y="0" type="curve"/>
      <point x="129" y="0"/>
      <point x="138" y="8"/>
      <point x="138" y="17" type="curve"/>
      <point x="138" y="649" type="line"/>
      <point x="124" y="642" type="line"/>
      <point x="588" y="8" type="line"/>
      <point x="592" y="3"/>
      <point x="598" y="0"/>
      <point x="604" y="0" type="curve"/>
      <point x="615" y="0"/>
      <point x="625" y="7"/>
      <point x="625" y="22" type="curve"/>
      <point x="625" y="681" type="line"/>
      <point x="625" y="692"/>
      <point x="618" y="700"/>
    </contour>
  </outline>
</glyph>
<glyph name="O" format="2">
  <advance width="768"/>
  <unicode hex="004F"/>
  <note>
O
</note>
  <anchor x="384" y="0" name="bottom"/>
  <anchor x="384" y="350" name="center"/>
  <anchor x="691" y="10" name="ogonek"/>
  <anchor x="384" y="700" name="top"/>
  <anchor x="20" y="700" name="topleft"/>
  <anchor x="391" y="697" name="topright"/>
  <outline>
    <contour>
      <point x="718" y="350" type="curve"/>
      <point x="718" y="563"/>
      <point x="579" y="710"/>
      <point x="384" y="710" type="curve"/>
      <point x="189" y="710"/>
      <point x="50" y="563"/>
      <point x="50" y="350" type="curve"/>
      <point x="50" y="137"/>
      <point x="189" y="-10"/>
      <point x="384" y="-10" type="curve"/>
      <point x="579" y="-10"/>
      <point x="718" y="137"/>
    </contour>
    <contour>
      <point x="676" y="350" type="curve"/>
      <point x="676" y="159"/>
      <point x="555" y="30"/>
      <point x="384" y="30" type="curve"/>
      <point x="213" y="30"/>
      <point x="92" y="159"/>
      <point x="92" y="350" type="curve"/>
      <point x="92" y="541"/>
      <point x="213" y="670"/>
      <point x="384" y="670" type="curve"/>
      <point x="555" y="670"/>
      <point x="676" y="541"/>
    </contour>
  </outline>
</glyph>
<glyph name="P" format="2">
  <advance width="594"/>
  <unicode hex="0050"/>
  <note>
P
</note>
  <anchor x="297" y="0" name="bottom"/>
  <anchor x="124" y="172" name="center"/>
  <anchor x="297" y="700" name="top"/>
  <outline>
    <contour>
      <point x="360" y="700" type="curve"/>
      <point x="120" y="700" type="line"/>
      <point x="109" y="700"/>
      <point x="100" y="691"/>
      <point x="100" y="680" type="curve"/>
      <point x="100" y="20" type="line"/>
      <point x="100" y="9"/>
      <point x="108" y="0"/>
      <point x="121" y="0" type="curve"/>
      <point x="132" y="0"/>
      <point x="142" y="9"/>
      <point x="142" y="20" type="curve"/>
      <point x="142" y="318" type="line"/>
      <point x="138" y="311" type="line"/>
      <point x="360" y="311" type="line"/>
      <point x="474" y="311"/>
      <point x="549" y="396"/>
      <point x="549" y="509" type="curve"/>
      <point x="549" y="622"/>
      <point x="474" y="700"/>
    </contour>
    <contour>
      <point x="360" y="351" type="curve"/>
      <point x="138" y="351" type="line"/>
      <point x="142" y="348" type="line"/>
      <point x="142" y="665" type="line"/>
      <point x="139" y="660" type="line"/>
      <point x="360" y="660" type="line"/>
      <point x="451" y="660"/>
      <point x="507" y="600"/>
      <point x="507" y="509" type="curve"/>
      <point x="507" y="418"/>
      <point x="451" y="351"/>
    </contour>
  </outline>
</glyph>
<glyph name="Q" format="2">
  <advance width="782"/>
  <unicode hex="0051"/>
  <note>
Q
</note>
  <anchor x="391" y="0" name="bottom"/>
  <anchor x="391" y="700" name="top"/>
  <outline>
    <contour>
      <point x="780" y="-65" type="curve" smooth="yes"/>
      <point x="765" y="-65"/>
      <point x="755" y="-83"/>
      <point x="736" y="-94" type="curve" smooth="yes"/>
      <point x="715" y="-106"/>
      <point x="678" y="-127"/>
      <point x="621" y="-127" type="curve"/>
      <point x="493" y="-127"/>
      <point x="437" y="-40"/>
      <point x="320" y="-40" type="curve"/>
      <point x="321" y="-48" type="line"/>
      <point x="468" y="0" type="line"/>
      <point x="376" y="-4" type="line"/>
      <point x="215" y="-60" type="line"/>
      <point x="208" y="-63"/>
      <point x="204" y="-70"/>
      <point x="204" y="-77" type="curve"/>
      <point x="204" y="-89"/>
      <point x="213" y="-98"/>
      <point x="224" y="-98" type="curve"/>
      <point x="241" y="-98"/>
      <point x="264" y="-76"/>
      <point x="301" y="-76" type="curve"/>
      <point x="425" y="-76"/>
      <point x="464" y="-165"/>
      <point x="621" y="-165" type="curve"/>
      <point x="696" y="-165"/>
      <point x="797" y="-122"/>
      <point x="797" y="-82" type="curve"/>
      <point x="797" y="-72"/>
      <point x="791" y="-65"/>
    </contour>
    <contour>
      <point x="718" y="350" type="curve"/>
      <point x="718" y="563"/>
      <point x="579" y="710"/>
      <point x="384" y="710" type="curve"/>
      <point x="189" y="710"/>
      <point x="50" y="563"/>
      <point x="50" y="350" type="curve"/>
      <point x="50" y="137"/>
      <point x="189" y="-10"/>
      <point x="384" y="-10" type="curve"/>
      <point x="579" y="-10"/>
      <point x="718" y="137"/>
    </contour>
    <contour>
      <point x="676" y="350" type="curve"/>
      <point x="676" y="159"/>
      <point x="555" y="30"/>
      <point x="384" y="30" type="curve"/>
      <point x="213" y="30"/>
      <point x="92" y="159"/>
      <point x="92" y="350" type="curve"/>
      <point x="92" y="541"/>
      <point x="213" y="670"/>
      <point x="384" y="670" type="curve"/>
      <point x="555" y="670"/>
      <point x="676" y="541"/>
    </contour>
  </outline>
</glyph>
<glyph name="R" format="2">
  <advance width="664"/>
  <unicode hex="0052"/>
  <note>
R
</note>
  <anchor x="327" y="0" name="bottom"/>
  <anchor x="327" y="700" name="top"/>
  <outline>
    <contour>
      <point x="121" y="0" type="curve"/>
      <point x="133" y="0"/>
      <point x="142" y="9"/>
      <point x="142" y="20" type="curve"/>
      <point x="142" y="325" type="line"/>
      <point x="133" y="313" type="line"/>
      <point x="376" y="313" type="line"/>
      <point x="433" y="313"/>
      <point x="522" y="294"/>
      <point x="522" y="170" type="curve"/>
      <point x="522" y="49"/>
      <point x="553" y="19"/>
      <point x="581" y="3" type="curve"/>
      <point x="592" y="-3"/>
      <point x="604" y="3"/>
      <point x="608" y="15" type="curve"/>
      <point x="611" y="25"/>
      <point x="606" y="34"/>
      <point x="598" y="39" type="curve"/>
      <point x="578" y="52"/>
      <point x="564" y="73"/>
      <point x="564" y="170" type="curve"/>
      <point x="564" y="284"/>
      <point x="486" y="347"/>
      <point x="406" y="347" type="curve"/>
      <point x="452" y="339" type="line"/>
      <point x="528" y="360"/>
      <point x="582" y="427"/>
      <point x="582" y="519" type="curve"/>
      <point x="582" y="623"/>
      <point x="502" y="700"/>
      <point x="384" y="700" type="curve"/>
      <point x="120" y="700" type="line"/>
      <point x="109" y="700"/>
      <point x="100" y="691"/>
      <point x="100" y="680" type="curve"/>
      <point x="100" y="20" type="line"/>
      <point x="100" y="9"/>
      <point x="108" y="0"/>
    </contour>
    <contour>
      <point x="132" y="353" type="line"/>
      <point x="142" y="342" type="line"/>
      <point x="142" y="667" type="line"/>
      <point x="137" y="660" type="line"/>
      <point x="379" y="660" type="line"/>
      <point x="478" y="660"/>
      <point x="540" y="599"/>
      <point x="540" y="518" type="curve"/>
      <point x="540" y="419"/>
      <point x="468" y="360"/>
      <point x="389" y="353" type="curve"/>
    </contour>
  </outline>
</glyph>
<glyph name="S" format="2">
  <advance width="550"/>
  <unicode hex="0053"/>
  <note>
S
</note>
  <anchor x="275" y="0" name="bottom"/>
  <anchor x="275" y="700" name="top"/>
  <outline>
    <contour>
      <point x="283" y="-10" type="curve"/>
      <point x="416" y="-9"/>
      <point x="499" y="72"/>
      <point x="499" y="163" type="curve"/>
      <point x="499" y="304"/>
      <point x="391" y="340"/>
      <point x="289" y="376" type="curve"/>
      <point x="202" y="407"/>
      <point x="111" y="444"/>
      <point x="111" y="536" type="curve" smooth="yes"/>
      <point x="111" y="621"/>
      <point x="190" y="670"/>
      <point x="288" y="670" type="curve"/>
      <point x="360" y="670"/>
      <point x="421" y="639"/>
      <point x="457" y="592" type="curve"/>
      <point x="461" y="587"/>
      <point x="466" y="586"/>
      <point x="470" y="586" type="curve"/>
      <point x="482" y="586"/>
      <point x="494" y="597"/>
      <point x="494" y="607" type="curve"/>
      <point x="494" y="611"/>
      <point x="491" y="618"/>
      <point x="484" y="628" type="curve"/>
      <point x="442" y="682"/>
      <point x="364" y="710"/>
      <point x="288" y="710" type="curve"/>
      <point x="152" y="710"/>
      <point x="68" y="633"/>
      <point x="68" y="535" type="curve" smooth="yes"/>
      <point x="68" y="407"/>
      <point x="170" y="372"/>
      <point x="269" y="335" type="curve"/>
      <point x="363" y="300"/>
      <point x="454" y="267"/>
      <point x="456" y="165" type="curve"/>
      <point x="456" y="83"/>
      <point x="381" y="30"/>
      <point x="279" y="30" type="curve"/>
      <point x="201" y="30"/>
      <point x="127" y="62"/>
      <point x="74" y="124" type="curve"/>
      <point x="68" y="131"/>
      <point x="63" y="133"/>
      <point x="57" y="133" type="curve"/>
      <point x="46" y="133"/>
      <point x="35" y="120"/>
      <point x="35" y="110" type="curve"/>
      <point x="35" y="102"/>
      <point x="38" y="98"/>
      <point x="41" y="95" type="curve"/>
      <point x="110" y="26"/>
      <point x="179" y="-11"/>
    </contour>
  </outline>
</glyph>
<glyph name="T" format="2">
  <advance width="596"/>
  <unicode hex="0054"/>
  <note>
T
</note>
  <anchor x="298" y="0" name="bottom"/>
  <anchor x="298" y="350" name="center"/>
  <anchor x="298" y="700" name="top"/>
  <outline>
    <contour>
      <point x="298" y="0" type="curve" smooth="yes"/>
      <point x="309" y="0"/>
      <point x="318" y="9"/>
      <point x="318" y="20" type="curve" smooth="yes"/>
      <point x="318" y="676" type="line"/>
      <point x="278" y="676" type="line"/>
      <point x="278" y="20" type="line" smooth="yes"/>
      <point x="278" y="9"/>
      <point x="286" y="0"/>
    </contour>
    <contour>
      <point x="55" y="662" type="curve" smooth="yes"/>
      <point x="541" y="662" type="line" smooth="yes"/>
      <point x="552" y="662"/>
      <point x="561" y="669"/>
      <point x="561" y="681" type="curve" smooth="yes"/>
      <point x="561" y="692"/>
      <point x="552" y="700"/>
      <point x="541" y="700" type="curve" smooth="yes"/>
      <point x="55" y="700" type="line" smooth="yes"/>
      <point x="44" y="700"/>
      <point x="35" y="692"/>
      <point x="35" y="681" type="curve" smooth="yes"/>
      <point x="35" y="670"/>
      <point x="44" y="662"/>
    </contour>
  </outline>
</glyph>
<glyph name="U" format="2">
  <advance width="715"/>
  <unicode hex="0055"/>
  <note>
U
</note>
  <anchor x="358" y="0" name="bottom"/>
  <anchor x="643" y="10" name="ogonek"/>
  <anchor x="358" y="700" name="top"/>
  <anchor x="521" y="697" name="topright"/>
  <outline>
    <contour>
      <point x="595" y="700" type="curve"/>
      <point x="583" y="700"/>
      <point x="575" y="691"/>
      <point x="575" y="680" type="curve"/>
      <point x="575" y="248" type="line"/>
      <point x="575" y="128"/>
      <point x="477" y="30"/>
      <point x="358" y="30" type="curve"/>
      <point x="239" y="30"/>
      <point x="142" y="128"/>
      <point x="142" y="248" type="curve"/>
      <point x="142" y="680" type="line"/>
      <point x="142" y="691"/>
      <point x="133" y="700"/>
      <point x="121" y="700" type="curve"/>
      <point x="108" y="700"/>
      <point x="100" y="691"/>
      <point x="100" y="680" type="curve"/>
      <point x="100" y="248" type="line"/>
      <point x="100" y="106"/>
      <point x="216" y="-10"/>
      <point x="358" y="-10" type="curve"/>
      <point x="499" y="-10"/>
      <point x="615" y="106"/>
      <point x="615" y="248" type="curve"/>
      <point x="615" y="680" type="line"/>
      <point x="615" y="691"/>
      <point x="607" y="700"/>
    </contour>
  </outline>
</glyph>
<glyph name="V" format="2">
  <advance width="660"/>
  <unicode hex="0056"/>
  <note>
V
</note>
  <anchor x="330" y="0" name="bottom"/>
  <anchor x="330" y="700" name="top"/>
  <outline>
    <contour>
      <point x="605" y="700" type="curve"/>
      <point x="597" y="700"/>
      <point x="590" y="695"/>
      <point x="586" y="687" type="curve"/>
      <point x="325" y="59" type="line"/>
      <point x="337" y="58" type="line"/>
      <point x="77" y="684" type="line" smooth="yes"/>
      <point x="72" y="696"/>
      <point x="65" y="700"/>
      <point x="55" y="700" type="curve"/>
      <point x="45" y="700"/>
      <point x="36" y="692"/>
      <point x="36" y="681" type="curve"/>
      <point x="36" y="676"/>
      <point x="38" y="671"/>
      <point x="39" y="669" type="curve"/>
      <point x="311" y="13" type="line"/>
      <point x="314" y="5"/>
      <point x="322" y="0"/>
      <point x="330" y="0" type="curve"/>
      <point x="338" y="0"/>
      <point x="345" y="5"/>
      <point x="349" y="13" type="curve"/>
      <point x="623" y="672" type="line"/>
      <point x="624" y="675"/>
      <point x="625" y="679"/>
      <point x="625" y="682" type="curve"/>
      <point x="625" y="692"/>
      <point x="618" y="700"/>
    </contour>
  </outline>
</glyph>
<glyph name="W" format="2">
  <advance width="974"/>
  <unicode hex="0057"/>
  <note>
W
</note>
  <anchor x="487" y="0" name="bottom"/>
  <anchor x="487" y="700" name="top"/>
  <outline>
    <contour>
      <point x="918" y="702" type="curve" smooth="yes"/>
      <point x="907" y="702"/>
      <point x="901" y="697"/>
      <point x="898" y="689" type="curve"/>
      <point x="683" y="63" type="line"/>
      <point x="692" y="64" type="line"/>
      <point x="506" y="532" type="line"/>
      <point x="503" y="540"/>
      <point x="495" y="545"/>
      <point x="487" y="545" type="curve"/>
      <point x="478" y="545"/>
      <point x="471" y="540"/>
      <point x="468" y="532" type="curve"/>
      <point x="284" y="67" type="line"/>
      <point x="291" y="68" type="line"/>
      <point x="76" y="689" type="line"/>
      <point x="73" y="697"/>
      <point x="65" y="702"/>
      <point x="57" y="702" type="curve" smooth="yes"/>
      <point x="47" y="702"/>
      <point x="35" y="695"/>
      <point x="35" y="682" type="curve" smooth="yes"/>
      <point x="35" y="680"/>
      <point x="36" y="676"/>
      <point x="37" y="673" type="curve"/>
      <point x="266" y="13" type="line"/>
      <point x="268" y="5"/>
      <point x="276" y="0"/>
      <point x="283" y="0" type="curve" smooth="yes"/>
      <point x="292" y="0"/>
      <point x="300" y="3"/>
      <point x="304" y="12" type="curve"/>
      <point x="491" y="484" type="line"/>
      <point x="483" y="484" type="line"/>
      <point x="670" y="12" type="line"/>
      <point x="673" y="3"/>
      <point x="681" y="0"/>
      <point x="690" y="0" type="curve" smooth="yes"/>
      <point x="697" y="0"/>
      <point x="705" y="5"/>
      <point x="708" y="13" type="curve"/>
      <point x="937" y="673" type="line"/>
      <point x="938" y="676"/>
      <point x="939" y="681"/>
      <point x="939" y="683" type="curve" smooth="yes"/>
      <point x="939" y="696"/>
      <point x="930" y="702"/>
    </contour>
  </outline>
</glyph>
<glyph name="X" format="2">
  <advance width="589"/>
  <unicode hex="0058"/>
  <note>
X
</note>
  <anchor x="295" y="0" name="bottom"/>
  <anchor x="295" y="700" name="top"/>
  <outline>
    <contour>
      <point x="539" y="704" type="curve" smooth="yes"/>
      <point x="533" y="704"/>
      <point x="528" y="701"/>
      <point x="524" y="696" type="curve" smooth="yes"/>
      <point x="293" y="379" type="line"/>
      <point x="315" y="345" type="line"/>
      <point x="554" y="674" type="line" smooth="yes"/>
      <point x="557" y="678"/>
      <point x="559" y="684"/>
      <point x="559" y="688" type="curve" smooth="yes"/>
      <point x="559" y="698"/>
      <point x="550" y="704"/>
    </contour>
    <contour>
      <point x="50" y="703" type="curve" smooth="yes"/>
      <point x="39" y="703"/>
      <point x="30" y="695"/>
      <point x="30" y="683" type="curve" smooth="yes"/>
      <point x="30" y="679"/>
      <point x="31" y="675"/>
      <point x="34" y="671" type="curve" smooth="yes"/>
      <point x="522" y="5" type="line" smooth="yes"/>
      <point x="526" y="-1"/>
      <point x="532" y="-3"/>
      <point x="538" y="-3" type="curve" smooth="yes"/>
      <point x="549" y="-3"/>
      <point x="559" y="5"/>
      <point x="559" y="17" type="curve" smooth="yes"/>
      <point x="559" y="21"/>
      <point x="557" y="25"/>
      <point x="554" y="29" type="curve" smooth="yes"/>
      <point x="67" y="695" type="line" smooth="yes"/>
      <point x="63" y="701"/>
      <point x="56" y="703"/>
    </contour>
    <contour>
      <point x="50" y="-3" type="curve" smooth="yes"/>
      <point x="56" y="-3"/>
      <point x="61" y="-1"/>
      <point x="65" y="5" type="curve" smooth="yes"/>
      <point x="295" y="319" type="line"/>
      <point x="275" y="353" type="line"/>
      <point x="36" y="27" type="line" smooth="yes"/>
      <point x="33" y="22"/>
      <point x="31" y="18"/>
      <point x="31" y="14" type="curve" smooth="yes"/>
      <point x="31" y="7"/>
      <point x="37" y="-3"/>
    </contour>
  </outline>
</glyph>
<glyph name="Y" format="2">
  <advance width="547"/>
  <unicode hex="0059"/>
  <note>
Y
</note>
  <anchor x="274" y="0" name="bottom"/>
  <anchor x="274" y="700" name="top"/>
  <anchor x="20" y="700" name="topleft"/>
  <outline>
    <contour>
      <point x="507" y="704" type="curve" smooth="yes"/>
      <point x="500" y="704"/>
      <point x="494" y="701"/>
      <point x="490" y="695" type="curve"/>
      <point x="270" y="394" type="line"/>
      <point x="280" y="392" type="line"/>
      <point x="58" y="695" type="line"/>
      <point x="54" y="701"/>
      <point x="47" y="704"/>
      <point x="41" y="704" type="curve" smooth="yes"/>
      <point x="31" y="704"/>
      <point x="20" y="695"/>
      <point x="20" y="685" type="curve" smooth="yes"/>
      <point x="20" y="680"/>
      <point x="21" y="676"/>
      <point x="24" y="672" type="curve"/>
      <point x="258" y="351" type="line"/>
      <point x="253" y="372" type="line"/>
      <point x="253" y="20" type="line"/>
      <point x="253" y="9"/>
      <point x="261" y="0"/>
      <point x="274" y="0" type="curve"/>
      <point x="286" y="0"/>
      <point x="295" y="9"/>
      <point x="295" y="20" type="curve"/>
      <point x="295" y="379" type="line"/>
      <point x="286" y="350" type="line"/>
      <point x="523" y="672" type="line"/>
      <point x="525" y="676"/>
      <point x="527" y="680"/>
      <point x="527" y="685" type="curve" smooth="yes"/>
      <point x="527" y="692"/>
      <point x="520" y="704"/>
    </contour>
  </outline>
</glyph>
<glyph name="Z" format="2">
  <advance width="643"/>
  <unicode hex="005A"/>
  <note>
Z
</note>
  <anchor x="322" y="0" name="bottom"/>
  <anchor x="322" y="700" name="top"/>
  <outline>
    <contour>
      <point x="570" y="700" type="curve"/>
      <point x="100" y="700" type="line"/>
      <point x="89" y="700"/>
      <point x="80" y="692"/>
      <point x="80" y="681" type="curve"/>
      <point x="80" y="671"/>
      <point x="89" y="662"/>
      <point x="100" y="662" type="curve"/>
      <point x="545" y="662" type="line"/>
      <point x="539" y="666" type="line"/>
      <point x="64" y="33" type="line"/>
      <point x="61" y="29"/>
      <point x="60" y="25"/>
      <point x="60" y="21" type="curve" smooth="yes"/>
      <point x="60" y="11"/>
      <point x="67" y="0"/>
      <point x="80" y="0" type="curve"/>
      <point x="572" y="0" type="line"/>
      <point x="583" y="0"/>
      <point x="592" y="8"/>
      <point x="592" y="19" type="curve"/>
      <point x="592" y="28"/>
      <point x="583" y="38"/>
      <point x="572" y="38" type="curve"/>
      <point x="112" y="38" type="line"/>
      <point x="111" y="28" type="line"/>
      <point x="589" y="668" type="line"/>
      <point x="592" y="672"/>
      <point x="593" y="676"/>
      <point x="593" y="680" type="curve" smooth="yes"/>
      <point x="593" y="689"/>
      <point x="587" y="700"/>
    </contour>
  </outline>
</glyph>
<glyph name="bracketleft" format="2">
  <advance width="393"/>
  <unicode hex="005B"/>
  <note>
bracketleft
</note>
  <outline>
    <contour>
      <point x="100" y="-190" type="curve" smooth="yes"/>
      <point x="333" y="-190" type="line" smooth="yes"/>
      <point x="344" y="-190"/>
      <point x="353" y="-181"/>
      <point x="353" y="-171" type="curve" smooth="yes"/>
      <point x="353" y="-160"/>
      <point x="344" y="-150"/>
      <point x="333" y="-150" type="curve" smooth="yes"/>
      <point x="114" y="-150" type="line"/>
      <point x="120" y="-163" type="line"/>
      <point x="120" y="669" type="line"/>
      <point x="110" y="662" type="line"/>
      <point x="333" y="662" type="line" smooth="yes"/>
      <point x="344" y="662"/>
      <point x="353" y="670"/>
      <point x="353" y="681" type="curve" smooth="yes"/>
      <point x="353" y="692"/>
      <point x="344" y="700"/>
      <point x="333" y="700" type="curve" smooth="yes"/>
      <point x="100" y="700" type="line" smooth="yes"/>
      <point x="89" y="700"/>
      <point x="80" y="691"/>
      <point x="80" y="680" type="curve" smooth="yes"/>
      <point x="80" y="-170" type="line" smooth="yes"/>
      <point x="80" y="-181"/>
      <point x="89" y="-190"/>
    </contour>
  </outline>
</glyph>
<glyph name="backslash" format="2">
  <advance width="508"/>
  <unicode hex="005C"/>
  <note>
backslash
</note>
  <outline>
    <contour>
      <point x="488" y="-133" type="curve" smooth="yes"/>
      <point x="499" y="-133"/>
      <point x="508" y="-126"/>
      <point x="508" y="-116" type="curve" smooth="yes"/>
      <point x="508" y="-112"/>
      <point x="507" y="-108"/>
      <point x="505" y="-104" type="curve" smooth="yes"/>
      <point x="52" y="784" type="line" smooth="yes"/>
      <point x="46" y="795"/>
      <point x="45" y="803"/>
      <point x="24" y="803" type="curve" smooth="yes"/>
      <point x="12" y="803"/>
      <point x="5" y="796"/>
      <point x="5" y="787" type="curve" smooth="yes"/>
      <point x="5" y="783"/>
      <point x="5" y="779"/>
      <point x="8" y="774" type="curve" smooth="yes"/>
      <point x="461" y="-114" type="line" smooth="yes"/>
      <point x="466" y="-124"/>
      <point x="471" y="-133"/>
    </contour>
  </outline>
</glyph>
<glyph name="bracketright" format="2">
  <advance width="393"/>
  <unicode hex="005D"/>
  <note>
bracketright
</note>
  <outline>
    <contour>
      <point x="293" y="700" type="curve" smooth="yes"/>
      <point x="60" y="700" type="line" smooth="yes"/>
      <point x="49" y="700"/>
      <point x="40" y="691"/>
      <point x="40" y="681" type="curve" smooth="yes"/>
      <point x="40" y="670"/>
      <point x="49" y="660"/>
      <point x="60" y="660" type="curve" smooth="yes"/>
      <point x="279" y="660" type="line"/>
      <point x="273" y="673" type="line"/>
      <point x="273" y="-159" type="line"/>
      <point x="283" y="-152" type="line"/>
      <point x="60" y="-152" type="line" smooth="yes"/>
      <point x="49" y="-152"/>
      <point x="40" y="-160"/>
      <point x="40" y="-171" type="curve" smooth="yes"/>
      <point x="40" y="-182"/>
      <point x="49" y="-190"/>
      <point x="60" y="-190" type="curve" smooth="yes"/>
      <point x="293" y="-190" type="line" smooth="yes"/>
      <point x="304" y="-190"/>
      <point x="313" y="-181"/>
      <point x="313" y="-170" type="curve" smooth="yes"/>
      <point x="313" y="680" type="line" smooth="yes"/>
      <point x="313" y="691"/>
      <point x="304" y="700"/>
    </contour>
  </outline>
</glyph>
<glyph name="asciicircum" format="2">
  <advance width="484"/>
  <unicode hex="005E"/>
  <note>
asciicircum
</note>
  <outline>
    <contour>
      <point x="77" y="422" type="curve" smooth="yes"/>
      <point x="91" y="422"/>
      <point x="97" y="429"/>
      <point x="104" y="443" type="curve" smooth="yes"/>
      <point x="248" y="718" type="line"/>
      <point x="236" y="718" type="line"/>
      <point x="378" y="443" type="line" smooth="yes"/>
      <point x="385" y="430"/>
      <point x="392" y="422"/>
      <point x="405" y="422" type="curve" smooth="yes"/>
      <point x="418" y="422"/>
      <point x="424" y="431"/>
      <point x="424" y="441" type="curve" smooth="yes"/>
      <point x="424" y="445"/>
      <point x="423" y="449"/>
      <point x="421" y="453" type="curve" smooth="yes"/>
      <point x="268" y="738" type="line" smooth="yes"/>
      <point x="260" y="753"/>
      <point x="255" y="760"/>
      <point x="242" y="760" type="curve"/>
      <point x="230" y="760"/>
      <point x="224" y="754"/>
      <point x="216" y="738" type="curve" smooth="yes"/>
      <point x="63" y="454" type="line" smooth="yes"/>
      <point x="60" y="449"/>
      <point x="59" y="444"/>
      <point x="59" y="440" type="curve" smooth="yes"/>
      <point x="59" y="430"/>
      <point x="66" y="422"/>
    </contour>
  </outline>
</glyph>
<glyph name="underscore" format="2">
  <advance width="654"/>
  <unicode hex="005F"/>
  <note>
underscore
</note>
  <outline>
    <contour>
      <point x="82" y="-160" type="curve"/>
      <point x="572" y="-160" type="line"/>
      <point x="585" y="-160"/>
      <point x="594" y="-151"/>
      <point x="594" y="-140" type="curve"/>
      <point x="594" y="-127"/>
      <point x="585" y="-120"/>
      <point x="572" y="-120" type="curve"/>
      <point x="82" y="-120" type="line"/>
      <point x="69" y="-120"/>
      <point x="60" y="-127"/>
      <point x="60" y="-140" type="curve"/>
      <point x="60" y="-151"/>
      <point x="69" y="-160"/>
    </contour>
  </outline>
</glyph>
<glyph name="grave" format="2">
  <advance width="215"/>
  <unicode hex="0060"/>
  <anchor x="162" y="515" name="_top"/>
  <outline>
    <contour>
      <point x="154" y="554" type="curve"/>
      <point x="161" y="554"/>
      <point x="165" y="560"/>
      <point x="165" y="566" type="curve"/>
      <point x="165" y="570"/>
      <point x="163" y="574"/>
      <point x="160" y="579" type="curve"/>
      <point x="98" y="672" type="line"/>
      <point x="94" y="679"/>
      <point x="86" y="688"/>
      <point x="72" y="688" type="curve"/>
      <point x="58" y="688"/>
      <point x="50" y="680"/>
      <point x="50" y="665" type="curve"/>
      <point x="50" y="657"/>
      <point x="53" y="653"/>
      <point x="57" y="648" type="curve"/>
      <point x="128" y="569" type="line"/>
      <point x="135" y="562"/>
      <point x="144" y="554"/>
    </contour>
  </outline>
</glyph>
<glyph name="a" format="2">
  <advance width="595"/>
  <unicode hex="0061"/>
  <note>
a
</note>
  <anchor x="278" y="0" name="bottom"/>
  <anchor x="535" y="10" name="ogonek"/>
  <anchor x="288" y="499" name="top"/>
  <outline>
    <contour>
      <point x="492" y="499" type="curve"/>
      <point x="480" y="499"/>
      <point x="472" y="489"/>
      <point x="472" y="479" type="curve"/>
      <point x="472" y="334" type="line"/>
      <point x="488" y="309" type="line"/>
      <point x="488" y="427"/>
      <point x="395" y="515"/>
      <point x="280" y="515" type="curve"/>
      <point x="148" y="515"/>
      <point x="48" y="406"/>
      <point x="48" y="255" type="curve"/>
      <point x="48" y="104"/>
      <point x="146" y="-10"/>
      <point x="280" y="-10" type="curve"/>
      <point x="397" y="-10"/>
      <point x="488" y="89"/>
      <point x="488" y="175" type="curve"/>
      <point x="472" y="162" type="line"/>
      <point x="472" y="20" type="line"/>
      <point x="472" y="9"/>
      <point x="480" y="0"/>
      <point x="492" y="0" type="curve"/>
      <point x="503" y="0"/>
      <point x="512" y="9"/>
      <point x="512" y="20" type="curve"/>
      <point x="512" y="479" type="line"/>
      <point x="512" y="490"/>
      <point x="504" y="499"/>
    </contour>
    <contour>
      <point x="282" y="28" type="curve"/>
      <point x="169" y="28"/>
      <point x="88" y="125"/>
      <point x="88" y="255" type="curve"/>
      <point x="88" y="385"/>
      <point x="171" y="477"/>
      <point x="282" y="477" type="curve"/>
      <point x="394" y="477"/>
      <point x="476" y="379"/>
      <point x="476" y="255" type="curve"/>
      <point x="476" y="125"/>
      <point x="394" y="28"/>
    </contour>
  </outline>
</glyph>
<glyph name="b" format="2">
  <advance width="595"/>
  <unicode hex="0062"/>
  <note>
b
</note>
  <anchor x="298" y="0" name="bottom"/>
  <anchor x="298" y="499" name="top"/>
  <outline>
    <contour>
      <point x="315" y="515" type="curve"/>
      <point x="226" y="515"/>
      <point x="147" y="462"/>
      <point x="110" y="364" type="curve"/>
      <point x="123" y="357" type="line"/>
      <point x="123" y="719" type="line"/>
      <point x="123" y="730"/>
      <point x="115" y="739"/>
      <point x="103" y="739" type="curve"/>
      <point x="91" y="739"/>
      <point x="83" y="730"/>
      <point x="83" y="719" type="curve"/>
      <point x="83" y="20" type="line"/>
      <point x="83" y="9"/>
      <point x="92" y="0"/>
      <point x="103" y="0" type="curve"/>
      <point x="115" y="0"/>
      <point x="123" y="9"/>
      <point x="123" y="20" type="curve"/>
      <point x="123" y="147" type="line"/>
      <point x="110" y="133" type="line"/>
      <point x="152" y="45"/>
      <point x="226" y="-10"/>
      <point x="315" y="-10" type="curve"/>
      <point x="447" y="-10"/>
      <point x="547" y="105"/>
      <point x="547" y="255" type="curve"/>
      <point x="547" y="406"/>
      <point x="448" y="515"/>
    </contour>
    <contour>
      <point x="313" y="477" type="curve"/>
      <point x="424" y="477"/>
      <point x="507" y="384"/>
      <point x="507" y="255" type="curve"/>
      <point x="507" y="126"/>
      <point x="424" y="28"/>
      <point x="313" y="28" type="curve"/>
      <point x="199" y="28"/>
      <point x="119" y="125"/>
      <point x="119" y="255" type="curve"/>
      <point x="119" y="385"/>
      <point x="199" y="477"/>
    </contour>
  </outline>
</glyph>
<glyph name="c" format="2">
  <advance width="513"/>
  <unicode hex="0063"/>
  <note>
c
</note>
  <anchor x="257" y="0" name="bottom"/>
  <anchor x="297" y="499" name="top"/>
  <outline>
    <contour>
      <point x="300" y="515" type="curve"/>
      <point x="148" y="515"/>
      <point x="48" y="392"/>
      <point x="48" y="253" type="curve"/>
      <point x="48" y="102"/>
      <point x="149" y="-10"/>
      <point x="296" y="-10" type="curve"/>
      <point x="404" y="-10"/>
      <point x="473" y="46"/>
      <point x="473" y="71" type="curve"/>
      <point x="473" y="82"/>
      <point x="466" y="89"/>
      <point x="456" y="89" type="curve"/>
      <point x="441" y="89"/>
      <point x="436" y="71"/>
      <point x="408" y="55" type="curve"/>
      <point x="385" y="42"/>
      <point x="359" y="28"/>
      <point x="299" y="28" type="curve"/>
      <point x="174" y="28"/>
      <point x="88" y="124"/>
      <point x="88" y="253" type="curve"/>
      <point x="88" y="378"/>
      <point x="183" y="477"/>
      <point x="299" y="477" type="curve"/>
      <point x="348" y="477"/>
      <point x="382" y="469"/>
      <point x="401" y="460" type="curve"/>
      <point x="431" y="445"/>
      <point x="431" y="424"/>
      <point x="454" y="424" type="curve"/>
      <point x="465" y="424"/>
      <point x="473" y="434"/>
      <point x="473" y="444" type="curve"/>
      <point x="473" y="480"/>
      <point x="389" y="515"/>
    </contour>
  </outline>
</glyph>
<glyph name="d" format="2">
  <advance width="595"/>
  <unicode hex="0064"/>
  <note>
d
</note>
  <anchor x="298" y="0" name="bottom"/>
  <anchor x="468" y="614" name="center"/>
  <anchor x="298" y="499" name="top"/>
  <anchor x="575" y="499" name="topright"/>
  <outline>
    <contour>
      <point x="492" y="740" type="curve"/>
      <point x="480" y="740"/>
      <point x="472" y="731"/>
      <point x="472" y="720" type="curve"/>
      <point x="472" y="334" type="line"/>
      <point x="488" y="309" type="line"/>
      <point x="488" y="427"/>
      <point x="390" y="515"/>
      <point x="280" y="515" type="curve"/>
      <point x="148" y="515"/>
      <point x="48" y="403"/>
      <point x="48" y="253" type="curve"/>
      <point x="48" y="103"/>
      <point x="148" y="-10"/>
      <point x="280" y="-10" type="curve"/>
      <point x="398" y="-10"/>
      <point x="488" y="92"/>
      <point x="488" y="184" type="curve"/>
      <point x="472" y="162" type="line"/>
      <point x="472" y="20" type="line"/>
      <point x="472" y="9"/>
      <point x="480" y="0"/>
      <point x="492" y="0" type="curve"/>
      <point x="503" y="0"/>
      <point x="512" y="9"/>
      <point x="512" y="20" type="curve"/>
      <point x="512" y="720" type="line"/>
      <point x="512" y="731"/>
      <point x="504" y="740"/>
    </contour>
    <contour>
      <point x="282" y="28" type="curve"/>
      <point x="171" y="28"/>
      <point x="88" y="124"/>
      <point x="88" y="253" type="curve"/>
      <point x="88" y="382"/>
      <point x="172" y="477"/>
      <point x="282" y="477" type="curve"/>
      <point x="394" y="477"/>
      <point x="476" y="382"/>
      <point x="476" y="253" type="curve"/>
      <point x="476" y="123"/>
      <point x="395" y="28"/>
    </contour>
  </outline>
</glyph>
<glyph name="e" format="2">
  <advance width="548"/>
  <unicode hex="0065"/>
  <note>
e
</note>
  <anchor x="274" y="0" name="bottom"/>
  <anchor x="493" y="10" name="ogonek"/>
  <anchor x="281" y="499" name="top"/>
  <outline>
    <contour>
      <point x="304" y="-10" type="curve"/>
      <point x="383" y="-10"/>
      <point x="450" y="36"/>
      <point x="491" y="90" type="curve"/>
      <point x="494" y="94"/>
      <point x="495" y="98"/>
      <point x="495" y="102" type="curve"/>
      <point x="495" y="111"/>
      <point x="487" y="120"/>
      <point x="478" y="120" type="curve"/>
      <point x="471" y="120"/>
      <point x="466" y="117"/>
      <point x="461" y="111" type="curve"/>
      <point x="431" y="66"/>
      <point x="371" y="28"/>
      <point x="304" y="28" type="curve"/>
      <point x="162" y="28"/>
      <point x="87" y="131"/>
      <point x="87" y="253" type="curve"/>
      <point x="87" y="403"/>
      <point x="193" y="475"/>
      <point x="274" y="475" type="curve"/>
      <point x="359" y="475"/>
      <point x="448" y="419"/>
      <point x="459" y="313" type="curve"/>
      <point x="459" y="295" type="line"/>
      <point x="469" y="304" type="line"/>
      <point x="66" y="304" type="line"/>
      <point x="72" y="266" type="line"/>
      <point x="480" y="266" type="line"/>
      <point x="491" y="266"/>
      <point x="500" y="276"/>
      <point x="500" y="287" type="curve"/>
      <point x="495" y="443"/>
      <point x="387" y="515"/>
      <point x="274" y="515" type="curve"/>
      <point x="158" y="515"/>
      <point x="48" y="417"/>
      <point x="48" y="250" type="curve"/>
      <point x="48" y="92"/>
      <point x="154" y="-10"/>
    </contour>
  </outline>
</glyph>
<glyph name="f" format="2">
  <advance width="332"/>
  <unicode hex="0066"/>
  <note>
f
</note>
  <anchor x="166" y="0" name="bottom"/>
  <anchor x="166" y="499" name="top"/>
  <outline>
    <contour>
      <point x="239" y="735" type="curve" smooth="yes"/>
      <point x="177" y="735"/>
      <point x="127" y="697"/>
      <point x="127" y="615" type="curve" smooth="yes"/>
      <point x="127" y="20" type="line" smooth="yes"/>
      <point x="127" y="9"/>
      <point x="135" y="0"/>
      <point x="147" y="0" type="curve" smooth="yes"/>
      <point x="158" y="0"/>
      <point x="167" y="9"/>
      <point x="167" y="20" type="curve" smooth="yes"/>
      <point x="167" y="615" type="line" smooth="yes"/>
      <point x="167" y="673"/>
      <point x="195" y="699"/>
      <point x="235" y="699" type="curve" smooth="yes"/>
      <point x="257" y="699"/>
      <point x="276" y="687"/>
      <point x="290" y="687" type="curve" smooth="yes"/>
      <point x="300" y="687"/>
      <point x="309" y="697"/>
      <point x="309" y="707" type="curve" smooth="yes"/>
      <point x="309" y="730"/>
      <point x="262" y="735"/>
    </contour>
    <contour>
      <point x="285" y="493" type="curve" smooth="yes"/>
      <point x="47" y="493" type="line" smooth="yes"/>
      <point x="37" y="493"/>
      <point x="28" y="486"/>
      <point x="28" y="474" type="curve" smooth="yes"/>
      <point x="28" y="464"/>
      <point x="37" y="455"/>
      <point x="47" y="455" type="curve" smooth="yes"/>
      <point x="285" y="455" type="line" smooth="yes"/>
      <point x="295" y="455"/>
      <point x="304" y="463"/>
      <point x="304" y="474" type="curve" smooth="yes"/>
      <point x="304" y="485"/>
      <point x="295" y="493"/>
    </contour>
  </outline>
</glyph>
<glyph name="g" format="2">
  <advance width="615"/>
  <unicode hex="0067"/>
  <note>
g
</note>
  <anchor x="308" y="0" name="bottom"/>
  <anchor x="308" y="499" name="top"/>
  <outline>
    <contour>
      <point x="290" y="515" type="curve"/>
      <point x="152" y="515"/>
      <point x="48" y="403"/>
      <point x="48" y="253" type="curve"/>
      <point x="48" y="103"/>
      <point x="152" y="-10"/>
      <point x="290" y="-10" type="curve"/>
      <point x="371" y="-10"/>
      <point x="471" y="33"/>
      <point x="502" y="147" type="curve"/>
      <point x="492" y="148" type="line"/>
      <point x="492" y="49" type="line"/>
      <point x="492" y="-77"/>
      <point x="414" y="-162"/>
      <point x="288" y="-162" type="curve"/>
      <point x="234" y="-162"/>
      <point x="194" y="-149"/>
      <point x="177" y="-142" type="curve"/>
      <point x="148" y="-130"/>
      <point x="141" y="-111"/>
      <point x="128" y="-111" type="curve"/>
      <point x="117" y="-111"/>
      <point x="111" y="-119"/>
      <point x="111" y="-129" type="curve"/>
      <point x="111" y="-165"/>
      <point x="206" y="-200"/>
      <point x="286" y="-200" type="curve"/>
      <point x="431" y="-200"/>
      <point x="532" y="-105"/>
      <point x="532" y="49" type="curve"/>
      <point x="532" y="479" type="line"/>
      <point x="532" y="490"/>
      <point x="524" y="499"/>
      <point x="512" y="499" type="curve"/>
      <point x="500" y="499"/>
      <point x="492" y="490"/>
      <point x="492" y="479" type="curve"/>
      <point x="492" y="379" type="line"/>
      <point x="505" y="342" type="line"/>
      <point x="505" y="418"/>
      <point x="410" y="515"/>
    </contour>
    <contour>
      <point x="292" y="477" type="curve"/>
      <point x="408" y="477"/>
      <point x="496" y="387"/>
      <point x="496" y="253" type="curve"/>
      <point x="496" y="119"/>
      <point x="408" y="28"/>
      <point x="292" y="28" type="curve"/>
      <point x="175" y="28"/>
      <point x="88" y="124"/>
      <point x="88" y="253" type="curve"/>
      <point x="88" y="382"/>
      <point x="175" y="477"/>
    </contour>
  </outline>
</glyph>
<glyph name="h" format="2">
  <advance width="562"/>
  <unicode hex="0068"/>
  <note>
h
</note>
  <anchor x="281" y="0" name="bottom"/>
  <anchor x="123" y="589" name="center"/>
  <anchor x="103" y="700" name="top"/>
  <outline>
    <contour>
      <point x="301" y="505" type="curve"/>
      <point x="204" y="505"/>
      <point x="98" y="420"/>
      <point x="98" y="323" type="curve"/>
      <point x="123" y="371" type="line"/>
      <point x="123" y="720" type="line"/>
      <point x="123" y="731"/>
      <point x="115" y="740"/>
      <point x="103" y="740" type="curve"/>
      <point x="92" y="740"/>
      <point x="83" y="731"/>
      <point x="83" y="720" type="curve"/>
      <point x="83" y="20" type="line"/>
      <point x="83" y="9"/>
      <point x="91" y="0"/>
      <point x="103" y="0" type="curve"/>
      <point x="114" y="0"/>
      <point x="123" y="9"/>
      <point x="123" y="20" type="curve"/>
      <point x="123" y="312" type="line"/>
      <point x="123" y="397"/>
      <point x="215" y="467"/>
      <point x="301" y="467" type="curve"/>
      <point x="400" y="467"/>
      <point x="439" y="397"/>
      <point x="439" y="312" type="curve"/>
      <point x="439" y="20" type="line"/>
      <point x="439" y="9"/>
      <point x="447" y="0"/>
      <point x="459" y="0" type="curve"/>
      <point x="470" y="0"/>
      <point x="479" y="9"/>
      <point x="479" y="20" type="curve"/>
      <point x="479" y="312" type="line"/>
      <point x="479" y="418"/>
      <point x="421" y="505"/>
    </contour>
  </outline>
</glyph>
<glyph name="k" format="2">
  <advance width="524"/>
  <unicode hex="006B"/>
  <note>
k
</note>
  <anchor x="262" y="0" name="bottom"/>
  <anchor x="262" y="499" name="top"/>
  <outline>
    <contour>
      <point x="108" y="0" type="curve" smooth="yes"/>
      <point x="120" y="0"/>
      <point x="128" y="9"/>
      <point x="128" y="20" type="curve"/>
      <point x="128" y="720" type="line"/>
      <point x="128" y="731"/>
      <point x="120" y="740"/>
      <point x="108" y="740" type="curve" smooth="yes"/>
      <point x="96" y="740"/>
      <point x="88" y="731"/>
      <point x="88" y="720" type="curve" smooth="yes"/>
      <point x="88" y="20" type="line" smooth="yes"/>
      <point x="88" y="9"/>
      <point x="96" y="0"/>
    </contour>
    <contour>
      <point x="455" y="505" type="curve" smooth="yes"/>
      <point x="450" y="505"/>
      <point x="446" y="503"/>
      <point x="442" y="499" type="curve"/>
      <point x="119" y="228" type="line"/>
      <point x="121" y="180" type="line"/>
      <point x="468" y="469" type="line" smooth="yes"/>
      <point x="473" y="473"/>
      <point x="475" y="479"/>
      <point x="475" y="484" type="curve" smooth="yes"/>
      <point x="475" y="496"/>
      <point x="465" y="505"/>
    </contour>
    <contour>
      <point x="461" y="0" type="curve" smooth="yes"/>
      <point x="466" y="0"/>
      <point x="481" y="6"/>
      <point x="481" y="20" type="curve" smooth="yes"/>
      <point x="481" y="26"/>
      <point x="479" y="31"/>
      <point x="475" y="35" type="curve" smooth="yes"/>
      <point x="234" y="291" type="line"/>
      <point x="204" y="265" type="line"/>
      <point x="446" y="7" type="line" smooth="yes"/>
      <point x="450" y="3"/>
      <point x="456" y="0"/>
    </contour>
  </outline>
</glyph>
<glyph name="l" format="2">
  <advance width="216"/>
  <unicode hex="006C"/>
  <note>
l
</note>
  <anchor x="108" y="0" name="bottom"/>
  <anchor x="108" y="366" name="center"/>
  <anchor x="108" y="740" name="top"/>
  <anchor x="196" y="740" name="topright"/>
  <outline>
    <contour>
      <point x="128" y="20" type="curve" smooth="yes"/>
      <point x="128" y="720" type="line" smooth="yes"/>
      <point x="128" y="731"/>
      <point x="120" y="740"/>
      <point x="108" y="740" type="curve" smooth="yes"/>
      <point x="97" y="740"/>
      <point x="88" y="731"/>
      <point x="88" y="720" type="curve" smooth="yes"/>
      <point x="88" y="20" type="line" smooth="yes"/>
      <point x="88" y="9"/>
      <point x="96" y="0"/>
      <point x="108" y="0" type="curve" smooth="yes"/>
      <point x="119" y="0"/>
      <point x="128" y="9"/>
    </contour>
  </outline>
</glyph>
<glyph name="m" format="2">
  <advance width="909"/>
  <unicode hex="006D"/>
  <note>
m
</note>
  <anchor x="455" y="0" name="bottom"/>
  <anchor x="455" y="499" name="top"/>
  <outline>
    <contour>
      <point x="296" y="505" type="curve"/>
      <point x="192" y="505"/>
      <point x="93" y="411"/>
      <point x="93" y="319" type="curve"/>
      <point x="123" y="370" type="line"/>
      <point x="123" y="479" type="line"/>
      <point x="123" y="490"/>
      <point x="115" y="499"/>
      <point x="103" y="499" type="curve"/>
      <point x="92" y="499"/>
      <point x="83" y="490"/>
      <point x="83" y="479" type="curve"/>
      <point x="83" y="20" type="line"/>
      <point x="83" y="9"/>
      <point x="91" y="0"/>
      <point x="103" y="0" type="curve"/>
      <point x="114" y="0"/>
      <point x="123" y="9"/>
      <point x="123" y="20" type="curve"/>
      <point x="123" y="312" type="line"/>
      <point x="123" y="397"/>
      <point x="212" y="467"/>
      <point x="296" y="467" type="curve"/>
      <point x="391" y="467"/>
      <point x="429" y="397"/>
      <point x="429" y="312" type="curve"/>
      <point x="429" y="20" type="line"/>
      <point x="429" y="9"/>
      <point x="437" y="0"/>
      <point x="449" y="0" type="curve"/>
      <point x="461" y="0"/>
      <point x="469" y="9"/>
      <point x="469" y="20" type="curve"/>
      <point x="469" y="307" type="line"/>
      <point x="469" y="395"/>
      <point x="560" y="467"/>
      <point x="647" y="467" type="curve"/>
      <point x="745" y="467"/>
      <point x="786" y="395"/>
      <point x="786" y="307" type="curve"/>
      <point x="786" y="20" type="line"/>
      <point x="786" y="9"/>
      <point x="794" y="0"/>
      <point x="806" y="0" type="curve"/>
      <point x="818" y="0"/>
      <point x="826" y="9"/>
      <point x="826" y="20" type="curve"/>
      <point x="826" y="311" type="line"/>
      <point x="826" y="420"/>
      <point x="771" y="505"/>
      <point x="651" y="505" type="curve"/>
      <point x="575" y="505"/>
      <point x="480" y="454"/>
      <point x="454" y="389" type="curve"/>
      <point x="449" y="370" type="line"/>
      <point x="462" y="379" type="line" smooth="yes"/>
      <point x="439" y="465"/>
      <point x="371" y="505"/>
    </contour>
  </outline>
</glyph>
<glyph name="n" format="2">
  <advance width="572"/>
  <unicode hex="006E"/>
  <note>
n
</note>
  <anchor x="286" y="0" name="bottom"/>
  <anchor x="286" y="499" name="top"/>
  <outline>
    <contour>
      <point x="310" y="515" type="curve"/>
      <point x="211" y="515"/>
      <point x="98" y="430"/>
      <point x="98" y="333" type="curve"/>
      <point x="123" y="381" type="line"/>
      <point x="123" y="479" type="line"/>
      <point x="123" y="490"/>
      <point x="115" y="499"/>
      <point x="103" y="499" type="curve"/>
      <point x="92" y="499"/>
      <point x="83" y="490"/>
      <point x="83" y="479" type="curve"/>
      <point x="83" y="20" type="line"/>
      <point x="83" y="9"/>
      <point x="91" y="0"/>
      <point x="103" y="0" type="curve"/>
      <point x="114" y="0"/>
      <point x="123" y="9"/>
      <point x="123" y="20" type="curve"/>
      <point x="123" y="322" type="line"/>
      <point x="123" y="407"/>
      <point x="218" y="477"/>
      <point x="306" y="477" type="curve"/>
      <point x="407" y="477"/>
      <point x="449" y="407"/>
      <point x="449" y="322" type="curve"/>
      <point x="449" y="20" type="line"/>
      <point x="449" y="9"/>
      <point x="457" y="0"/>
      <point x="469" y="0" type="curve"/>
      <point x="479" y="0"/>
      <point x="489" y="9"/>
      <point x="489" y="20" type="curve"/>
      <point x="489" y="326" type="line"/>
      <point x="489" y="432"/>
      <point x="435" y="515"/>
    </contour>
  </outline>
</glyph>
<glyph name="o" format="2">
  <advance width="589"/>
  <unicode hex="006F"/>
  <note>
o
</note>
  <anchor x="295" y="0" name="bottom"/>
  <anchor x="295" y="250" name="center"/>
  <anchor x="530" y="10" name="ogonek"/>
  <anchor x="295" y="509" name="top"/>
  <anchor x="312" y="496" name="topright"/>
  <outline>
    <contour>
      <point x="541" y="252" type="curve"/>
      <point x="541" y="402"/>
      <point x="436" y="515"/>
      <point x="295" y="515" type="curve"/>
      <point x="154" y="515"/>
      <point x="48" y="402"/>
      <point x="48" y="252" type="curve"/>
      <point x="48" y="103"/>
      <point x="154" y="-10"/>
      <point x="295" y="-10" type="curve"/>
      <point x="436" y="-10"/>
      <point x="541" y="103"/>
    </contour>
    <contour>
      <point x="501" y="252" type="curve"/>
      <point x="501" y="124"/>
      <point x="414" y="28"/>
      <point x="295" y="28" type="curve"/>
      <point x="177" y="28"/>
      <point x="88" y="124"/>
      <point x="88" y="252" type="curve"/>
      <point x="88" y="381"/>
      <point x="177" y="477"/>
      <point x="295" y="477" type="curve"/>
      <point x="414" y="477"/>
      <point x="501" y="381"/>
    </contour>
  </outline>
</glyph>
<glyph name="p" format="2">
  <advance width="595"/>
  <unicode hex="0070"/>
  <note>
p
</note>
  <anchor x="298" y="0" name="bottom"/>
  <anchor x="298" y="499" name="top"/>
  <outline>
    <contour>
      <point x="315" y="505" type="curve"/>
      <point x="226" y="505"/>
      <point x="147" y="463"/>
      <point x="110" y="364" type="curve"/>
      <point x="123" y="357" type="line"/>
      <point x="123" y="485" type="line"/>
      <point x="123" y="496"/>
      <point x="115" y="505"/>
      <point x="103" y="505" type="curve"/>
      <point x="91" y="505"/>
      <point x="83" y="496"/>
      <point x="83" y="485" type="curve"/>
      <point x="83" y="-180" type="line"/>
      <point x="83" y="-191"/>
      <point x="92" y="-200"/>
      <point x="103" y="-200" type="curve"/>
      <point x="115" y="-200"/>
      <point x="123" y="-191"/>
      <point x="123" y="-180" type="curve"/>
      <point x="123" y="147" type="line"/>
      <point x="110" y="133" type="line"/>
      <point x="152" y="45"/>
      <point x="226" y="-6"/>
      <point x="315" y="-6" type="curve"/>
      <point x="447" y="-6"/>
      <point x="547" y="103"/>
      <point x="547" y="250" type="curve"/>
      <point x="547" y="398"/>
      <point x="448" y="505"/>
    </contour>
    <contour>
      <point x="313" y="467" type="curve"/>
      <point x="424" y="467"/>
      <point x="507" y="376"/>
      <point x="507" y="250" type="curve"/>
      <point x="507" y="124"/>
      <point x="424" y="32"/>
      <point x="313" y="32" type="curve"/>
      <point x="199" y="32"/>
      <point x="119" y="123"/>
      <point x="119" y="250" type="curve"/>
      <point x="119" y="377"/>
      <point x="199" y="467"/>
    </contour>
  </outline>
</glyph>
<glyph name="q" format="2">
  <advance width="595"/>
  <unicode hex="0071"/>
  <note>
q
</note>
  <anchor x="298" y="0" name="bottom"/>
  <anchor x="298" y="499" name="top"/>
  <outline>
    <contour>
      <point x="492" y="505" type="curve"/>
      <point x="480" y="505"/>
      <point x="472" y="496"/>
      <point x="472" y="485" type="curve"/>
      <point x="472" y="334" type="line"/>
      <point x="488" y="309" type="line"/>
      <point x="488" y="427"/>
      <point x="390" y="515"/>
      <point x="280" y="515" type="curve"/>
      <point x="148" y="515"/>
      <point x="48" y="403"/>
      <point x="48" y="253" type="curve"/>
      <point x="48" y="103"/>
      <point x="148" y="-10"/>
      <point x="280" y="-10" type="curve"/>
      <point x="398" y="-10"/>
      <point x="488" y="92"/>
      <point x="488" y="184" type="curve"/>
      <point x="472" y="162" type="line"/>
      <point x="472" y="-180" type="line"/>
      <point x="472" y="-191"/>
      <point x="480" y="-200"/>
      <point x="492" y="-200" type="curve"/>
      <point x="503" y="-200"/>
      <point x="512" y="-191"/>
      <point x="512" y="-180" type="curve"/>
      <point x="512" y="485" type="line"/>
      <point x="512" y="496"/>
      <point x="504" y="505"/>
    </contour>
    <contour>
      <point x="282" y="28" type="curve"/>
      <point x="171" y="28"/>
      <point x="88" y="124"/>
      <point x="88" y="253" type="curve"/>
      <point x="88" y="382"/>
      <point x="172" y="477"/>
      <point x="282" y="477" type="curve"/>
      <point x="394" y="477"/>
      <point x="476" y="382"/>
      <point x="476" y="253" type="curve"/>
      <point x="476" y="123"/>
      <point x="395" y="28"/>
    </contour>
  </outline>
</glyph>
<glyph name="r" format="2">
  <advance width="368"/>
  <unicode hex="0072"/>
  <note>
r
</note>
  <anchor x="103" y="0" name="bottom"/>
  <anchor x="184" y="499" name="top"/>
  <outline>
    <contour>
      <point x="103" y="0" type="curve"/>
      <point x="114" y="0"/>
      <point x="123" y="9"/>
      <point x="123" y="20" type="curve"/>
      <point x="123" y="270" type="line"/>
      <point x="123" y="364"/>
      <point x="213" y="480"/>
      <point x="298" y="480" type="curve"/>
      <point x="319" y="480"/>
      <point x="329" y="471"/>
      <point x="337" y="471" type="curve"/>
      <point x="347" y="471"/>
      <point x="355" y="480"/>
      <point x="355" y="492" type="curve"/>
      <point x="355" y="512"/>
      <point x="327" y="515"/>
      <point x="309" y="515" type="curve"/>
      <point x="179" y="514"/>
      <point x="106" y="387"/>
      <point x="106" y="284" type="curve"/>
      <point x="123" y="310" type="line"/>
      <point x="123" y="479" type="line"/>
      <point x="123" y="490"/>
      <point x="115" y="499"/>
      <point x="103" y="499" type="curve"/>
      <point x="92" y="499"/>
      <point x="83" y="490"/>
      <point x="83" y="479" type="curve"/>
      <point x="83" y="20" type="line"/>
      <point x="83" y="9"/>
      <point x="91" y="0"/>
    </contour>
  </outline>
</glyph>
<glyph name="s" format="2">
  <advance width="465"/>
  <unicode hex="0073"/>
  <note>
s
</note>
  <anchor x="233" y="0" name="bottom"/>
  <anchor x="233" y="499" name="top"/>
  <outline>
    <contour>
      <point x="55" y="80" type="curve"/>
      <point x="107" y="16"/>
      <point x="172" y="-10"/>
      <point x="242" y="-10" type="curve"/>
      <point x="344" y="-10"/>
      <point x="417" y="41"/>
      <point x="417" y="126" type="curve"/>
      <point x="417" y="221"/>
      <point x="346" y="249"/>
      <point x="259" y="271" type="curve" smooth="yes"/>
      <point x="177" y="292"/>
      <point x="116" y="317"/>
      <point x="112" y="379" type="curve"/>
      <point x="112" y="444"/>
      <point x="172" y="477"/>
      <point x="238" y="477" type="curve"/>
      <point x="290" y="477"/>
      <point x="337" y="458"/>
      <point x="372" y="420" type="curve"/>
      <point x="378" y="412"/>
      <point x="389" y="413"/>
      <point x="397" y="418" type="curve"/>
      <point x="406" y="427"/>
      <point x="407" y="440"/>
      <point x="397" y="448" type="curve"/>
      <point x="350" y="499"/>
      <point x="290" y="515"/>
      <point x="242" y="515" type="curve"/>
      <point x="142" y="515"/>
      <point x="74" y="457"/>
      <point x="74" y="379" type="curve"/>
      <point x="74" y="291"/>
      <point x="154" y="254"/>
      <point x="248" y="231" type="curve" smooth="yes"/>
      <point x="313" y="215"/>
      <point x="379" y="192"/>
      <point x="379" y="124" type="curve"/>
      <point x="379" y="60"/>
      <point x="312" y="26"/>
      <point x="246" y="26" type="curve"/>
      <point x="172" y="26"/>
      <point x="119" y="59"/>
      <point x="84" y="109" type="curve"/>
      <point x="76" y="118"/>
      <point x="63" y="119"/>
      <point x="56" y="112" type="curve"/>
      <point x="46" y="105"/>
      <point x="45" y="96"/>
    </contour>
  </outline>
</glyph>
<glyph name="t" format="2">
  <advance width="316"/>
  <unicode hex="0074"/>
  <note>
t
</note>
  <anchor x="158" y="0" name="bottom"/>
  <anchor x="158" y="250" name="center"/>
  <anchor x="141" y="650" name="top"/>
  <anchor x="296" y="499" name="topright"/>
  <outline>
    <contour>
      <point x="37" y="503" type="line"/>
      <point x="27" y="503"/>
      <point x="18" y="495"/>
      <point x="18" y="484" type="curve"/>
      <point x="18" y="474"/>
      <point x="27" y="465"/>
      <point x="37" y="465" type="curve"/>
      <point x="269" y="465" type="line"/>
      <point x="279" y="465"/>
      <point x="288" y="473"/>
      <point x="288" y="484" type="curve"/>
      <point x="288" y="493"/>
      <point x="279" y="503"/>
      <point x="269" y="503" type="curve"/>
    </contour>
    <contour>
      <point x="139" y="650" type="curve"/>
      <point x="128" y="650"/>
      <point x="119" y="641"/>
      <point x="119" y="630" type="curve"/>
      <point x="119" y="107" type="line"/>
      <point x="119" y="-11"/>
      <point x="198" y="0"/>
      <point x="215" y="0" type="curve"/>
      <point x="237" y="0"/>
      <point x="255" y="10"/>
      <point x="255" y="22" type="curve"/>
      <point x="255" y="31"/>
      <point x="247" y="40"/>
      <point x="238" y="40" type="curve"/>
      <point x="228" y="40"/>
      <point x="223" y="36"/>
      <point x="214" y="36" type="curve" smooth="yes"/>
      <point x="189" y="36"/>
      <point x="159" y="43"/>
      <point x="159" y="109" type="curve"/>
      <point x="159" y="630" type="line"/>
      <point x="159" y="641"/>
      <point x="151" y="650"/>
    </contour>
  </outline>
</glyph>
<glyph name="u" format="2">
  <advance width="563"/>
  <unicode hex="0075"/>
  <note>
u
</note>
  <anchor x="282" y="0" name="bottom"/>
  <anchor x="507" y="10" name="ogonek"/>
  <anchor x="282" y="499" name="top"/>
  <anchor x="384" y="496" name="topright"/>
  <outline>
    <contour>
      <point x="460" y="499" type="curve" smooth="yes"/>
      <point x="448" y="499"/>
      <point x="440" y="490"/>
      <point x="440" y="479" type="curve" smooth="yes"/>
      <point x="440" y="188" type="line" smooth="yes"/>
      <point x="440" y="86"/>
      <point x="379" y="32"/>
      <point x="281" y="32" type="curve" smooth="yes"/>
      <point x="184" y="32"/>
      <point x="123" y="86"/>
      <point x="123" y="188" type="curve" smooth="yes"/>
      <point x="123" y="479" type="line" smooth="yes"/>
      <point x="123" y="490"/>
      <point x="115" y="499"/>
      <point x="103" y="499" type="curve" smooth="yes"/>
      <point x="92" y="499"/>
      <point x="83" y="490"/>
      <point x="83" y="479" type="curve" smooth="yes"/>
      <point x="83" y="188" type="line" smooth="yes"/>
      <point x="83" y="59"/>
      <point x="162" y="-6"/>
      <point x="281" y="-6" type="curve" smooth="yes"/>
      <point x="401" y="-6"/>
      <point x="480" y="59"/>
      <point x="480" y="188" type="curve" smooth="yes"/>
      <point x="480" y="479" type="line" smooth="yes"/>
      <point x="480" y="490"/>
      <point x="472" y="499"/>
    </contour>
  </outline>
</glyph>
<glyph name="v" format="2">
  <advance width="518"/>
  <unicode hex="0076"/>
  <note>
v
</note>
  <anchor x="259" y="0" name="bottom"/>
  <anchor x="259" y="499" name="top"/>
  <outline>
    <contour>
      <point x="59" y="517" type="curve"/>
      <point x="44" y="517"/>
      <point x="38" y="507"/>
      <point x="38" y="497" type="curve" smooth="yes"/>
      <point x="38" y="494"/>
      <point x="39" y="491"/>
      <point x="40" y="488" type="curve"/>
      <point x="240" y="13" type="line"/>
      <point x="243" y="5"/>
      <point x="251" y="0"/>
      <point x="259" y="0" type="curve" smooth="yes"/>
      <point x="267" y="0"/>
      <point x="275" y="5"/>
      <point x="278" y="13" type="curve"/>
      <point x="477" y="489" type="line" smooth="yes"/>
      <point x="478" y="491"/>
      <point x="480" y="494"/>
      <point x="480" y="501" type="curve" smooth="yes"/>
      <point x="480" y="511"/>
      <point x="468" y="517"/>
      <point x="461" y="517" type="curve" smooth="yes"/>
      <point x="451" y="517"/>
      <point x="443" y="512"/>
      <point x="440" y="504" type="curve"/>
      <point x="252" y="54" type="line"/>
      <point x="262" y="61" type="line"/>
      <point x="77" y="504" type="line"/>
      <point x="74" y="512"/>
      <point x="66" y="517"/>
    </contour>
  </outline>
</glyph>
<glyph name="w" format="2">
  <advance width="746"/>
  <unicode hex="0077"/>
  <note>
w
</note>
  <anchor x="373" y="0" name="bottom"/>
  <anchor x="373" y="479" name="top"/>
  <outline>
    <contour>
      <point x="687" y="517" type="curve" smooth="yes"/>
      <point x="679" y="517"/>
      <point x="672" y="512"/>
      <point x="669" y="504" type="curve" smooth="yes"/>
      <point x="522" y="44" type="line"/>
      <point x="542" y="44" type="line"/>
      <point x="389" y="397" type="line" smooth="yes"/>
      <point x="386" y="405"/>
      <point x="378" y="410"/>
      <point x="370" y="410" type="curve" smooth="yes"/>
      <point x="362" y="410"/>
      <point x="354" y="405"/>
      <point x="351" y="397" type="curve" smooth="yes"/>
      <point x="209" y="45" type="line"/>
      <point x="226" y="45" type="line"/>
      <point x="77" y="504" type="line" smooth="yes"/>
      <point x="74" y="512"/>
      <point x="67" y="517"/>
      <point x="59" y="517" type="curve" smooth="yes"/>
      <point x="47" y="517"/>
      <point x="38" y="510"/>
      <point x="38" y="498" type="curve" smooth="yes"/>
      <point x="38" y="496"/>
      <point x="39" y="491"/>
      <point x="40" y="488" type="curve" smooth="yes"/>
      <point x="200" y="13" type="line" smooth="yes"/>
      <point x="203" y="5"/>
      <point x="211" y="0"/>
      <point x="219" y="0" type="curve" smooth="yes"/>
      <point x="227" y="0"/>
      <point x="235" y="5"/>
      <point x="238" y="13" type="curve" smooth="yes"/>
      <point x="374" y="355" type="line"/>
      <point x="359" y="360" type="line"/>
      <point x="513" y="13" type="line"/>
      <point x="517" y="5"/>
      <point x="524" y="0"/>
      <point x="532" y="0" type="curve" smooth="yes"/>
      <point x="540" y="0"/>
      <point x="547" y="5"/>
      <point x="551" y="13" type="curve"/>
      <point x="706" y="488" type="line" smooth="yes"/>
      <point x="707" y="491"/>
      <point x="708" y="496"/>
      <point x="708" y="498" type="curve" smooth="yes"/>
      <point x="708" y="511"/>
      <point x="698" y="517"/>
    </contour>
  </outline>
</glyph>
<glyph name="x" format="2">
  <advance width="483"/>
  <unicode hex="0078"/>
  <note>
x
</note>
  <anchor x="242" y="0" name="bottom"/>
  <anchor x="242" y="499" name="top"/>
  <outline>
    <contour>
      <point x="61" y="510" type="curve" smooth="yes"/>
      <point x="50" y="510"/>
      <point x="40" y="501"/>
      <point x="40" y="489" type="curve" smooth="yes"/>
      <point x="40" y="485"/>
      <point x="41" y="481"/>
      <point x="44" y="477" type="curve" smooth="yes"/>
      <point x="406" y="5" type="line" smooth="yes"/>
      <point x="411" y="-1"/>
      <point x="417" y="-4"/>
      <point x="423" y="-4" type="curve" smooth="yes"/>
      <point x="433" y="-4"/>
      <point x="442" y="5"/>
      <point x="442" y="16" type="curve" smooth="yes"/>
      <point x="442" y="20"/>
      <point x="441" y="24"/>
      <point x="438" y="28" type="curve"/>
      <point x="77" y="501" type="line" smooth="yes"/>
      <point x="73" y="507"/>
      <point x="67" y="510"/>
    </contour>
    <contour>
      <point x="61" y="-4" type="curve" smooth="yes"/>
      <point x="67" y="-4"/>
      <point x="73" y="-1"/>
      <point x="77" y="4" type="curve"/>
      <point x="245" y="223" type="line"/>
      <point x="221" y="254" type="line"/>
      <point x="46" y="27" type="line" smooth="yes"/>
      <point x="43" y="23"/>
      <point x="42" y="19"/>
      <point x="42" y="15" type="curve" smooth="yes"/>
      <point x="42" y="2"/>
      <point x="51" y="-4"/>
    </contour>
    <contour>
      <point x="423" y="510" type="curve" smooth="yes"/>
      <point x="417" y="510"/>
      <point x="411" y="507"/>
      <point x="406" y="501" type="curve" smooth="yes"/>
      <point x="241" y="281" type="line"/>
      <point x="262" y="246" type="line"/>
      <point x="437" y="480" type="line" smooth="yes"/>
      <point x="440" y="484"/>
      <point x="442" y="489"/>
      <point x="442" y="493" type="curve" smooth="yes"/>
      <point x="442" y="502"/>
      <point x="436" y="510"/>
    </contour>
  </outline>
</glyph>
<glyph name="y" format="2">
  <advance width="562"/>
  <unicode hex="0079"/>
  <note>
y
</note>
  <anchor x="281" y="0" name="bottom"/>
  <anchor x="281" y="499" name="top"/>
  <outline>
    <contour>
      <point x="459" y="515" type="curve"/>
      <point x="447" y="515"/>
      <point x="439" y="506"/>
      <point x="439" y="495" type="curve"/>
      <point x="439" y="183" type="line"/>
      <point x="439" y="106"/>
      <point x="350" y="28"/>
      <point x="261" y="28" type="curve"/>
      <point x="161" y="28"/>
      <point x="123" y="88"/>
      <point x="123" y="183" type="curve"/>
      <point x="123" y="495" type="line"/>
      <point x="123" y="506"/>
      <point x="115" y="515"/>
      <point x="103" y="515" type="curve"/>
      <point x="91" y="515"/>
      <point x="83" y="506"/>
      <point x="83" y="495" type="curve"/>
      <point x="83" y="183" type="line"/>
      <point x="83" y="68"/>
      <point x="136" y="-10"/>
      <point x="261" y="-10" type="curve"/>
      <point x="336" y="-10"/>
      <point x="412" y="37"/>
      <point x="441" y="98" type="curve"/>
      <point x="439" y="123" type="line"/>
      <point x="439" y="49" type="line"/>
      <point x="439" y="-77"/>
      <point x="361" y="-164"/>
      <point x="245" y="-164" type="curve"/>
      <point x="188" y="-164"/>
      <point x="139" y="-140"/>
      <point x="116" y="-126" type="curve"/>
      <point x="106" y="-120"/>
      <point x="95" y="-125"/>
      <point x="90" y="-135" type="curve"/>
      <point x="85" y="-146"/>
      <point x="91" y="-155"/>
      <point x="101" y="-162" type="curve"/>
      <point x="132" y="-183"/>
      <point x="181" y="-200"/>
      <point x="243" y="-200" type="curve"/>
      <point x="378" y="-200"/>
      <point x="479" y="-105"/>
      <point x="479" y="49" type="curve"/>
      <point x="479" y="495" type="line"/>
      <point x="479" y="506"/>
      <point x="471" y="515"/>
    </contour>
  </outline>
</glyph>
<glyph name="z" format="2">
  <advance width="477"/>
  <unicode hex="007A"/>
  <note>
z
</note>
  <anchor x="234" y="0" name="bottom"/>
  <anchor x="262" y="499" name="top"/>
  <outline>
    <contour>
      <point x="397" y="38" type="curve"/>
      <point x="87" y="38" type="line"/>
      <point x="102" y="33" type="line"/>
      <point x="422" y="481" type="line"/>
      <point x="425" y="485"/>
      <point x="427" y="490"/>
      <point x="427" y="495" type="curve"/>
      <point x="426" y="506"/>
      <point x="418" y="515"/>
      <point x="407" y="515" type="curve"/>
      <point x="101" y="515" type="line"/>
      <point x="90" y="515"/>
      <point x="81" y="507"/>
      <point x="81" y="496" type="curve"/>
      <point x="81" y="486"/>
      <point x="90" y="477"/>
      <point x="101" y="477" type="curve"/>
      <point x="382" y="477" type="line"/>
      <point x="377" y="485" type="line"/>
      <point x="55" y="33" type="line"/>
      <point x="52" y="29"/>
      <point x="50" y="25"/>
      <point x="50" y="20" type="curve" smooth="yes"/>
      <point x="50" y="13"/>
      <point x="58" y="0"/>
      <point x="71" y="0" type="curve"/>
      <point x="397" y="0" type="line"/>
      <point x="408" y="0"/>
      <point x="417" y="8"/>
      <point x="417" y="19" type="curve"/>
      <point x="417" y="28"/>
      <point x="408" y="38"/>
    </contour>
  </outline>
</glyph>
<glyph name="braceleft" format="2">
  <advance width="436"/>
  <unicode hex="007B"/>
  <note>
braceleft
</note>
  <outline>
    <contour>
      <point x="369" y="-200" type="curve" smooth="yes"/>
      <point x="377" y="-200"/>
      <point x="383" y="-195"/>
      <point x="385" y="-189" type="curve"/>
      <point x="387" y="-178"/>
      <point x="381" y="-169"/>
      <point x="370" y="-166" type="curve" smooth="yes"/>
      <point x="235" y="-129"/>
      <point x="211" y="-91"/>
      <point x="211" y="6" type="curve" smooth="yes"/>
      <point x="211" y="81" type="line" smooth="yes"/>
      <point x="211" y="167"/>
      <point x="181" y="240"/>
      <point x="119" y="256" type="curve"/>
      <point x="121" y="255" type="line"/>
      <point x="179" y="269"/>
      <point x="211" y="344"/>
      <point x="211" y="429" type="curve" smooth="yes"/>
      <point x="211" y="504" type="line" smooth="yes"/>
      <point x="211" y="601"/>
      <point x="236" y="636"/>
      <point x="370" y="676" type="curve" smooth="yes"/>
      <point x="380" y="679"/>
      <point x="386" y="686"/>
      <point x="386" y="694" type="curve"/>
      <point x="386" y="701"/>
      <point x="382" y="714"/>
      <point x="360" y="708" type="curve" smooth="yes"/>
      <point x="257" y="678"/>
      <point x="171" y="648"/>
      <point x="171" y="510" type="curve" smooth="yes"/>
      <point x="171" y="431" type="line" smooth="yes"/>
      <point x="171" y="353"/>
      <point x="149" y="274"/>
      <point x="51" y="274" type="curve" smooth="yes"/>
      <point x="45" y="274" type="line" smooth="yes"/>
      <point x="34" y="274"/>
      <point x="25" y="266"/>
      <point x="25" y="256" type="curve" smooth="yes"/>
      <point x="25" y="245"/>
      <point x="34" y="236"/>
      <point x="45" y="236" type="curve" smooth="yes"/>
      <point x="51" y="236" type="line" smooth="yes"/>
      <point x="145" y="236"/>
      <point x="171" y="157"/>
      <point x="171" y="79" type="curve" smooth="yes"/>
      <point x="171" y="0" type="line" smooth="yes"/>
      <point x="171" y="-100"/>
      <point x="201" y="-164"/>
      <point x="362" y="-199" type="curve"/>
      <point x="364" y="-199"/>
      <point x="366" y="-200"/>
    </contour>
  </outline>
</glyph>
<glyph name="bar" format="2">
  <advance width="190"/>
  <unicode hex="007C"/>
  <note>
bar
</note>
  <outline>
    <contour>
      <point x="115" y="-180" type="curve" smooth="yes"/>
      <point x="115" y="760" type="line" smooth="yes"/>
      <point x="115" y="771"/>
      <point x="107" y="780"/>
      <point x="95" y="780" type="curve" smooth="yes"/>
      <point x="83" y="780"/>
      <point x="75" y="771"/>
      <point x="75" y="760" type="curve" smooth="yes"/>
      <point x="75" y="-180" type="line" smooth="yes"/>
      <point x="75" y="-191"/>
      <point x="83" y="-200"/>
      <point x="95" y="-200" type="curve" smooth="yes"/>
      <point x="107" y="-200"/>
      <point x="115" y="-191"/>
    </contour>
  </outline>
</glyph>
<glyph name="braceright" format="2">
  <advance width="436"/>
  <unicode hex="007D"/>
  <note>
braceright
</note>
  <outline>
    <contour>
      <point x="68" y="-200" type="curve" smooth="yes"/>
      <point x="70" y="-200"/>
      <point x="72" y="-200"/>
      <point x="74" y="-199" type="curve" smooth="yes"/>
      <point x="221" y="-125"/>
      <point x="265" y="-100"/>
      <point x="265" y="0" type="curve" smooth="yes"/>
      <point x="265" y="79" type="line" smooth="yes"/>
      <point x="265" y="157"/>
      <point x="287" y="236"/>
      <point x="385" y="236" type="curve" smooth="yes"/>
      <point x="391" y="236" type="line" smooth="yes"/>
      <point x="402" y="236"/>
      <point x="411" y="244"/>
      <point x="411" y="254" type="curve" smooth="yes"/>
      <point x="411" y="265"/>
      <point x="402" y="274"/>
      <point x="391" y="274" type="curve" smooth="yes"/>
      <point x="385" y="274" type="line" smooth="yes"/>
      <point x="291" y="274"/>
      <point x="265" y="353"/>
      <point x="265" y="431" type="curve" smooth="yes"/>
      <point x="265" y="510" type="line" smooth="yes"/>
      <point x="265" y="610"/>
      <point x="235" y="674"/>
      <point x="74" y="709" type="curve"/>
      <point x="72" y="709"/>
      <point x="70" y="710"/>
      <point x="67" y="710" type="curve" smooth="yes"/>
      <point x="59" y="710"/>
      <point x="53" y="705"/>
      <point x="51" y="699" type="curve"/>
      <point x="49" y="688"/>
      <point x="55" y="679"/>
      <point x="66" y="676" type="curve" smooth="yes"/>
      <point x="201" y="639"/>
      <point x="225" y="601"/>
      <point x="225" y="504" type="curve" smooth="yes"/>
      <point x="225" y="429" type="line" smooth="yes"/>
      <point x="225" y="343"/>
      <point x="255" y="270"/>
      <point x="317" y="254" type="curve"/>
      <point x="315" y="255" type="line"/>
      <point x="257" y="241"/>
      <point x="225" y="166"/>
      <point x="225" y="81" type="curve" smooth="yes"/>
      <point x="225" y="6" type="line" smooth="yes"/>
      <point x="225" y="-91"/>
      <point x="200" y="-126"/>
      <point x="66" y="-166" type="curve" smooth="yes"/>
      <point x="56" y="-169"/>
      <point x="50" y="-176"/>
      <point x="50" y="-184" type="curve"/>
      <point x="50" y="-191"/>
      <point x="54" y="-200"/>
    </contour>
  </outline>
</glyph>
<glyph name="asciitilde" format="2">
  <advance width="437"/>
  <unicode hex="007E"/>
  <note>
asciitilde
</note>
  <outline>
    <contour>
      <point x="307" y="213" type="curve"/>
      <point x="357" y="213"/>
      <point x="387" y="249"/>
      <point x="387" y="299" type="curve"/>
      <point x="387" y="307"/>
      <point x="378" y="312"/>
      <point x="370" y="312" type="curve"/>
      <point x="359" y="312"/>
      <point x="352" y="304"/>
      <point x="351" y="294" type="curve"/>
      <point x="347" y="267"/>
      <point x="335" y="251"/>
      <point x="315" y="251" type="curve"/>
      <point x="266" y="251"/>
      <point x="190" y="306"/>
      <point x="133" y="306" type="curve"/>
      <point x="75" y="306"/>
      <point x="50" y="254"/>
      <point x="50" y="224" type="curve"/>
      <point x="50" y="213"/>
      <point x="57" y="210"/>
      <point x="66" y="210" type="curve"/>
      <point x="74" y="210"/>
      <point x="82" y="214"/>
      <point x="85" y="224" type="curve"/>
      <point x="94" y="255"/>
      <point x="109" y="266"/>
      <point x="129" y="266" type="curve"/>
      <point x="178" y="266"/>
      <point x="254" y="213"/>
    </contour>
  </outline>
</glyph>
<glyph name="cent" format="2">
  <advance width="513"/>
  <unicode hex="00A2"/>
  <note>
cent
</note>
  <anchor x="257" y="90" name="bottom"/>
  <anchor x="297" y="589" name="top"/>
  <outline>
    <contour>
      <point x="307" y="20" type="curve" smooth="yes"/>
      <point x="307" y="92" type="line"/>
      <point x="307" y="103" type="line"/>
      <point x="307" y="582" type="line"/>
      <point x="307" y="596" type="line"/>
      <point x="307" y="665" type="line" smooth="yes"/>
      <point x="307" y="676"/>
      <point x="299" y="685"/>
      <point x="287" y="685" type="curve" smooth="yes"/>
      <point x="275" y="685"/>
      <point x="267" y="676"/>
      <point x="267" y="665" type="curve" smooth="yes"/>
      <point x="267" y="592" type="line"/>
      <point x="267" y="578" type="line"/>
      <point x="267" y="115" type="line"/>
      <point x="267" y="96" type="line"/>
      <point x="267" y="20" type="line" smooth="yes"/>
      <point x="267" y="9"/>
      <point x="275" y="0"/>
      <point x="287" y="0" type="curve" smooth="yes"/>
      <point x="299" y="0"/>
      <point x="307" y="9"/>
    </contour>
    <contour>
      <point x="296" y="80" type="curve"/>
      <point x="404" y="80"/>
      <point x="473" y="136"/>
      <point x="473" y="161" type="curve"/>
      <point x="473" y="172"/>
      <point x="466" y="179"/>
      <point x="456" y="179" type="curve"/>
      <point x="441" y="179"/>
      <point x="436" y="161"/>
      <point x="408" y="145" type="curve"/>
      <point x="385" y="132"/>
      <point x="359" y="118"/>
      <point x="299" y="118" type="curve"/>
      <point x="174" y="118"/>
      <point x="88" y="214"/>
      <point x="88" y="343" type="curve"/>
      <point x="88" y="468"/>
      <point x="183" y="567"/>
      <point x="299" y="567" type="curve"/>
      <point x="348" y="567"/>
      <point x="382" y="559"/>
      <point x="401" y="550" type="curve"/>
      <point x="431" y="535"/>
      <point x="431" y="514"/>
      <point x="454" y="514" type="curve"/>
      <point x="465" y="514"/>
      <point x="473" y="524"/>
      <point x="473" y="534" type="curve"/>
      <point x="473" y="570"/>
      <point x="389" y="605"/>
      <point x="300" y="605" type="curve"/>
      <point x="148" y="605"/>
      <point x="48" y="482"/>
      <point x="48" y="343" type="curve"/>
      <point x="48" y="192"/>
      <point x="149" y="80"/>
    </contour>
  </outline>
</glyph>
<glyph name="sterling" format="2">
  <advance width="611"/>
  <unicode hex="00A3"/>
  <note>
sterling
</note>
  <outline>
    <contour>
      <point x="71" y="335" type="curve"/>
      <point x="464" y="335" type="line"/>
      <point x="476" y="335"/>
      <point x="485" y="343"/>
      <point x="485" y="355" type="curve"/>
      <point x="485" y="366"/>
      <point x="476" y="375"/>
      <point x="464" y="375" type="curve"/>
      <point x="71" y="375" type="line"/>
      <point x="59" y="375"/>
      <point x="50" y="366"/>
      <point x="50" y="355" type="curve"/>
      <point x="50" y="343"/>
      <point x="59" y="335"/>
    </contour>
    <contour>
      <point x="249" y="57" type="curve"/>
      <point x="182" y="57"/>
      <point x="142" y="35"/>
      <point x="67" y="16" type="curve" smooth="yes"/>
      <point x="55" y="13"/>
      <point x="50" y="5"/>
      <point x="50" y="-3" type="curve"/>
      <point x="50" y="-10"/>
      <point x="55" y="-21"/>
      <point x="67" y="-21" type="curve" smooth="yes"/>
      <point x="72" y="-21"/>
      <point x="91" y="-11"/>
      <point x="110" y="-8" type="curve" smooth="yes"/>
      <point x="128" y="-5"/>
      <point x="189" y="20"/>
      <point x="248" y="19" type="curve"/>
      <point x="332" y="18"/>
      <point x="416" y="-24"/>
      <point x="501" y="-24" type="curve"/>
      <point x="531" y="-24"/>
      <point x="570" y="-13"/>
      <point x="604" y="10" type="curve"/>
      <point x="608" y="14"/>
      <point x="617" y="21"/>
      <point x="617" y="33" type="curve"/>
      <point x="617" y="40"/>
      <point x="613" y="51"/>
      <point x="599" y="51" type="curve" smooth="yes"/>
      <point x="594" y="51"/>
      <point x="588" y="50"/>
      <point x="579" y="40" type="curve"/>
      <point x="561" y="24"/>
      <point x="541" y="16"/>
      <point x="500" y="16" type="curve"/>
      <point x="431" y="16"/>
      <point x="333" y="57"/>
    </contour>
    <contour>
      <point x="147" y="7" type="line"/>
      <point x="191" y="34"/>
      <point x="228" y="88"/>
      <point x="228" y="163" type="curve"/>
      <point x="228" y="250"/>
      <point x="178" y="339"/>
      <point x="178" y="472" type="curve"/>
      <point x="178" y="591"/>
      <point x="245" y="670"/>
      <point x="351" y="670" type="curve"/>
      <point x="423" y="670"/>
      <point x="484" y="639"/>
      <point x="520" y="592" type="curve"/>
      <point x="524" y="587"/>
      <point x="529" y="586"/>
      <point x="533" y="586" type="curve"/>
      <point x="545" y="586"/>
      <point x="557" y="597"/>
      <point x="557" y="607" type="curve"/>
      <point x="557" y="611"/>
      <point x="554" y="618"/>
      <point x="547" y="628" type="curve"/>
      <point x="505" y="682"/>
      <point x="427" y="710"/>
      <point x="351" y="710" type="curve"/>
      <point x="220" y="710"/>
      <point x="136" y="616"/>
      <point x="136" y="471" type="curve"/>
      <point x="136" y="340"/>
      <point x="186" y="257"/>
      <point x="186" y="163" type="curve"/>
      <point x="186" y="90"/>
      <point x="145" y="32"/>
      <point x="120" y="23" type="curve"/>
    </contour>
  </outline>
</glyph>
<glyph name="currency" format="2">
  <advance width="464"/>
  <unicode hex="00A4"/>
  <note>
currency
</note>
  <outline>
    <contour>
      <point x="68" y="467" type="curve" smooth="yes"/>
      <point x="59" y="467"/>
      <point x="50" y="457"/>
      <point x="50" y="448" type="curve" smooth="yes"/>
      <point x="50" y="444"/>
      <point x="53" y="439"/>
      <point x="57" y="435" type="curve"/>
      <point x="117" y="380" type="line"/>
      <point x="117" y="380"/>
      <point x="141" y="408"/>
      <point x="141" y="408" type="curve"/>
      <point x="81" y="461" type="line"/>
      <point x="77" y="465"/>
      <point x="73" y="467"/>
    </contour>
    <contour>
      <point x="396" y="467" type="curve" smooth="yes"/>
      <point x="391" y="467"/>
      <point x="387" y="465"/>
      <point x="383" y="461" type="curve"/>
      <point x="326" y="409" type="line"/>
      <point x="326" y="409"/>
      <point x="348" y="382"/>
      <point x="348" y="382" type="curve"/>
      <point x="407" y="435" type="line"/>
      <point x="411" y="439"/>
      <point x="414" y="444"/>
      <point x="414" y="448" type="curve" smooth="yes"/>
      <point x="414" y="457"/>
      <point x="404" y="467"/>
    </contour>
    <contour>
      <point x="396" y="131" type="curve" smooth="yes"/>
      <point x="405" y="131"/>
      <point x="414" y="141"/>
      <point x="414" y="150" type="curve" smooth="yes"/>
      <point x="414" y="154"/>
      <point x="411" y="159"/>
      <point x="407" y="163" type="curve"/>
      <point x="350" y="216" type="line"/>
      <point x="350" y="216"/>
      <point x="326" y="189"/>
      <point x="326" y="189" type="curve"/>
      <point x="383" y="137" type="line"/>
      <point x="387" y="133"/>
      <point x="391" y="131"/>
    </contour>
    <contour>
      <point x="68" y="131" type="curve" smooth="yes"/>
      <point x="73" y="131"/>
      <point x="77" y="133"/>
      <point x="81" y="137" type="curve"/>
      <point x="143" y="193" type="line"/>
      <point x="143" y="193"/>
      <point x="118" y="220"/>
      <point x="118" y="220" type="curve"/>
      <point x="57" y="163" type="line"/>
      <point x="53" y="159"/>
      <point x="50" y="154"/>
      <point x="50" y="150" type="curve" smooth="yes"/>
      <point x="50" y="141"/>
      <point x="60" y="131"/>
    </contour>
    <contour>
      <point x="232" y="144" type="curve"/>
      <point x="315" y="144"/>
      <point x="382" y="213"/>
      <point x="382" y="299" type="curve"/>
      <point x="382" y="385"/>
      <point x="315" y="454"/>
      <point x="232" y="454" type="curve"/>
      <point x="149" y="454"/>
      <point x="83" y="385"/>
      <point x="83" y="299" type="curve"/>
      <point x="83" y="213"/>
      <point x="149" y="144"/>
    </contour>
    <contour>
      <point x="232" y="174" type="curve"/>
      <point x="169" y="174"/>
      <point x="118" y="229"/>
      <point x="118" y="298" type="curve"/>
      <point x="118" y="367"/>
      <point x="169" y="423"/>
      <point x="232" y="423" type="curve"/>
      <point x="295" y="423"/>
      <point x="347" y="367"/>
      <point x="347" y="298" type="curve"/>
      <point x="347" y="229"/>
      <point x="295" y="174"/>
    </contour>
  </outline>
</glyph>
<glyph name="yen" format="2">
  <advance width="547"/>
  <unicode hex="00A5"/>
  <note>
yen
</note>
  <anchor x="274" y="0" name="bottom"/>
  <anchor x="274" y="700" name="top"/>
  <anchor x="20" y="700" name="topleft"/>
  <outline>
    <contour>
      <point x="97" y="168" type="curve"/>
      <point x="452" y="164" type="line"/>
      <point x="464" y="164"/>
      <point x="473" y="172"/>
      <point x="473" y="183" type="curve"/>
      <point x="473" y="195"/>
      <point x="464" y="203"/>
      <point x="452" y="203" type="curve"/>
      <point x="97" y="207" type="line"/>
      <point x="85" y="207"/>
      <point x="76" y="199"/>
      <point x="76" y="187" type="curve"/>
      <point x="76" y="176"/>
      <point x="85" y="168"/>
    </contour>
    <contour>
      <point x="97" y="298" type="curve"/>
      <point x="452" y="294" type="line"/>
      <point x="464" y="294"/>
      <point x="473" y="302"/>
      <point x="473" y="313" type="curve"/>
      <point x="473" y="325"/>
      <point x="464" y="333"/>
      <point x="452" y="333" type="curve"/>
      <point x="97" y="337" type="line"/>
      <point x="85" y="337"/>
      <point x="76" y="329"/>
      <point x="76" y="317" type="curve"/>
      <point x="76" y="306"/>
      <point x="85" y="298"/>
    </contour>
    <contour>
      <point x="507" y="704" type="curve" smooth="yes"/>
      <point x="500" y="704"/>
      <point x="494" y="701"/>
      <point x="490" y="695" type="curve"/>
      <point x="270" y="394" type="line"/>
      <point x="280" y="392" type="line"/>
      <point x="58" y="695" type="line"/>
      <point x="54" y="701"/>
      <point x="47" y="704"/>
      <point x="41" y="704" type="curve" smooth="yes"/>
      <point x="31" y="704"/>
      <point x="20" y="695"/>
      <point x="20" y="685" type="curve" smooth="yes"/>
      <point x="20" y="680"/>
      <point x="21" y="676"/>
      <point x="24" y="672" type="curve"/>
      <point x="258" y="351" type="line"/>
      <point x="253" y="372" type="line"/>
      <point x="253" y="20" type="line"/>
      <point x="253" y="9"/>
      <point x="261" y="0"/>
      <point x="274" y="0" type="curve"/>
      <point x="286" y="0"/>
      <point x="295" y="9"/>
      <point x="295" y="20" type="curve"/>
      <point x="295" y="379" type="line"/>
      <point x="286" y="350" type="line"/>
      <point x="523" y="672" type="line"/>
      <point x="525" y="676"/>
      <point x="527" y="680"/>
      <point x="527" y="685" type="curve" smooth="yes"/>
      <point x="527" y="692"/>
      <point x="520" y="704"/>
    </contour>
  </outline>
</glyph>
<glyph name="brokenbar" format="2">
  <advance width="191"/>
  <unicode hex="00A6"/>
  <note>
brokenbar
</note>
  <outline>
    <contour>
      <point x="116" y="390" type="curve" smooth="yes"/>
      <point x="116" y="760" type="line" smooth="yes"/>
      <point x="116" y="771"/>
      <point x="108" y="780"/>
      <point x="96" y="780" type="curve" smooth="yes"/>
      <point x="84" y="780"/>
      <point x="76" y="771"/>
      <point x="76" y="760" type="curve" smooth="yes"/>
      <point x="76" y="390" type="line" smooth="yes"/>
      <point x="76" y="379"/>
      <point x="84" y="370"/>
      <point x="96" y="370" type="curve" smooth="yes"/>
      <point x="108" y="370"/>
      <point x="116" y="379"/>
    </contour>
    <contour>
      <point x="115" y="-180" type="curve" smooth="yes"/>
      <point x="115" y="190" type="line" smooth="yes"/>
      <point x="115" y="201"/>
      <point x="107" y="210"/>
      <point x="95" y="210" type="curve" smooth="yes"/>
      <point x="83" y="210"/>
      <point x="75" y="201"/>
      <point x="75" y="190" type="curve" smooth="yes"/>
      <point x="75" y="-180" type="line" smooth="yes"/>
      <point x="75" y="-191"/>
      <point x="83" y="-200"/>
      <point x="95" y="-200" type="curve" smooth="yes"/>
      <point x="107" y="-200"/>
      <point x="115" y="-191"/>
    </contour>
  </outline>
</glyph>
<glyph name="section" format="2">
  <advance width="524"/>
  <unicode hex="00A7"/>
  <note>
section
</note>
  <outline>
    <contour>
      <point x="474" y="279" type="curve" smooth="yes"/>
      <point x="474" y="366"/>
      <point x="409" y="403"/>
      <point x="304" y="435" type="curve" smooth="yes"/>
      <point x="267" y="445"/>
      <point x="148" y="473"/>
      <point x="148" y="562" type="curve" smooth="yes"/>
      <point x="148" y="638"/>
      <point x="222" y="665"/>
      <point x="282" y="665" type="curve" smooth="yes"/>
      <point x="337" y="665"/>
      <point x="373" y="642"/>
      <point x="403" y="619" type="curve" smooth="yes"/>
      <point x="407" y="616"/>
      <point x="412" y="615"/>
      <point x="416" y="615" type="curve" smooth="yes"/>
      <point x="429" y="615"/>
      <point x="435" y="627"/>
      <point x="435" y="636" type="curve" smooth="yes"/>
      <point x="435" y="642"/>
      <point x="431" y="647"/>
      <point x="426" y="651" type="curve" smooth="yes"/>
      <point x="394" y="677"/>
      <point x="349" y="705"/>
      <point x="282" y="705" type="curve" smooth="yes"/>
      <point x="215" y="705"/>
      <point x="108" y="672"/>
      <point x="108" y="562" type="curve" smooth="yes"/>
      <point x="108" y="506"/>
      <point x="142" y="457"/>
      <point x="210" y="430" type="curve"/>
      <point x="212" y="443" type="line"/>
      <point x="112" y="430"/>
      <point x="66" y="369"/>
      <point x="66" y="305" type="curve" smooth="yes"/>
      <point x="66" y="220"/>
      <point x="133" y="179"/>
      <point x="236" y="148" type="curve" smooth="yes"/>
      <point x="335" y="118"/>
      <point x="396" y="80"/>
      <point x="396" y="22" type="curve" smooth="yes"/>
      <point x="396" y="-90"/>
      <point x="294" y="-99"/>
      <point x="252" y="-99" type="curve" smooth="yes"/>
      <point x="170" y="-99"/>
      <point x="110" y="-55"/>
      <point x="82" y="-27" type="curve" smooth="yes"/>
      <point x="78" y="-23"/>
      <point x="72" y="-22"/>
      <point x="68" y="-22" type="curve" smooth="yes"/>
      <point x="57" y="-22"/>
      <point x="49" y="-32"/>
      <point x="49" y="-41" type="curve" smooth="yes"/>
      <point x="49" y="-49"/>
      <point x="54" y="-55"/>
      <point x="59" y="-60" type="curve" smooth="yes"/>
      <point x="90" y="-91"/>
      <point x="163" y="-139"/>
      <point x="254" y="-139" type="curve" smooth="yes"/>
      <point x="352" y="-139"/>
      <point x="436" y="-91"/>
      <point x="436" y="22" type="curve" smooth="yes"/>
      <point x="436" y="84"/>
      <point x="401" y="119"/>
      <point x="324" y="158" type="curve"/>
      <point x="327" y="145" type="line"/>
      <point x="421" y="156"/>
      <point x="474" y="215"/>
    </contour>
    <contour>
      <point x="244" y="188" type="line" smooth="yes"/>
      <point x="147" y="219"/>
      <point x="106" y="254"/>
      <point x="106" y="307" type="curve" smooth="yes"/>
      <point x="106" y="361"/>
      <point x="162" y="410"/>
      <point x="224" y="410" type="curve" smooth="yes"/>
      <point x="296" y="395" type="line" smooth="yes"/>
      <point x="391" y="365"/>
      <point x="434" y="338"/>
      <point x="434" y="279" type="curve" smooth="yes"/>
      <point x="434" y="229"/>
      <point x="386" y="176"/>
      <point x="304" y="176" type="curve" smooth="yes"/>
    </contour>
  </outline>
</glyph>
<glyph name="dieresis" format="2">
  <advance width="392"/>
  <unicode hex="00A8"/>
  <anchor x="196" y="515" name="_top"/>
  <outline>
    <contour>
      <point x="278" y="600" type="curve" smooth="yes"/>
      <point x="298" y="600"/>
      <point x="312" y="615"/>
      <point x="312" y="636" type="curve" smooth="yes"/>
      <point x="312" y="644" type="line" smooth="yes"/>
      <point x="312" y="665"/>
      <point x="298" y="680"/>
      <point x="279" y="680" type="curve" smooth="yes"/>
      <point x="258" y="680"/>
      <point x="243" y="665"/>
      <point x="243" y="644" type="curve" smooth="yes"/>
      <point x="243" y="636" type="line" smooth="yes"/>
      <point x="243" y="615"/>
      <point x="257" y="600"/>
    </contour>
    <contour>
      <point x="115" y="600" type="curve" smooth="yes"/>
      <point x="135" y="600"/>
      <point x="149" y="615"/>
      <point x="149" y="636" type="curve" smooth="yes"/>
      <point x="149" y="644" type="line" smooth="yes"/>
      <point x="149" y="665"/>
      <point x="135" y="680"/>
      <point x="116" y="680" type="curve" smooth="yes"/>
      <point x="95" y="680"/>
      <point x="80" y="665"/>
      <point x="80" y="644" type="curve" smooth="yes"/>
      <point x="80" y="636" type="line" smooth="yes"/>
      <point x="80" y="615"/>
      <point x="94" y="600"/>
    </contour>
  </outline>
</glyph>
<glyph name="copyright" format="2">
  <advance width="800"/>
  <unicode hex="00A9"/>
  <note>
copyright
</note>
  <outline>
    <contour>
      <point x="400" y="0" type="curve"/>
      <point x="592" y="0"/>
      <point x="750" y="146"/>
      <point x="750" y="350" type="curve"/>
      <point x="750" y="554"/>
      <point x="592" y="700"/>
      <point x="400" y="700" type="curve"/>
      <point x="207" y="700"/>
      <point x="50" y="554"/>
      <point x="50" y="350" type="curve"/>
      <point x="50" y="146"/>
      <point x="207" y="0"/>
    </contour>
    <contour>
      <point x="400" y="38" type="curve"/>
      <point x="230" y="38"/>
      <point x="90" y="167"/>
      <point x="90" y="350" type="curve"/>
      <point x="90" y="532"/>
      <point x="230" y="662"/>
      <point x="400" y="662" type="curve"/>
      <point x="570" y="662"/>
      <point x="710" y="532"/>
      <point x="710" y="350" type="curve"/>
      <point x="710" y="167"/>
      <point x="570" y="38"/>
    </contour>
    <contour>
      <point x="419" y="158" type="curve"/>
      <point x="462" y="158"/>
      <point x="504" y="171"/>
      <point x="538" y="193" type="curve"/>
      <point x="547" y="201"/>
      <point x="549" y="214"/>
      <point x="542" y="221" type="curve"/>
      <point x="536" y="230"/>
      <point x="524" y="231"/>
      <point x="516" y="226" type="curve"/>
      <point x="487" y="208"/>
      <point x="455" y="196"/>
      <point x="419" y="196" type="curve"/>
      <point x="316" y="196"/>
      <point x="262" y="261"/>
      <point x="262" y="350" type="curve"/>
      <point x="262" y="438"/>
      <point x="318" y="503"/>
      <point x="419" y="503" type="curve"/>
      <point x="455" y="503"/>
      <point x="487" y="491"/>
      <point x="515" y="473" type="curve"/>
      <point x="524" y="467"/>
      <point x="536" y="468"/>
      <point x="542" y="477" type="curve"/>
      <point x="549" y="486"/>
      <point x="546" y="499"/>
      <point x="538" y="505" type="curve"/>
      <point x="505" y="528"/>
      <point x="462" y="541"/>
      <point x="419" y="541" type="curve"/>
      <point x="295" y="541"/>
      <point x="222" y="456"/>
      <point x="222" y="350" type="curve"/>
      <point x="222" y="244"/>
      <point x="295" y="158"/>
    </contour>
  </outline>
</glyph>
<glyph name="ordfeminine" format="2">
  <advance width="349"/>
  <unicode hex="00AA"/>
  <note>
ordfeminine
</note>
  <outline>
    <contour>
      <point x="149" y="391" type="curve"/>
      <point x="218" y="391"/>
      <point x="275" y="453"/>
      <point x="275" y="503" type="curve"/>
      <point x="259" y="474" type="line"/>
      <point x="259" y="421" type="line"/>
      <point x="259" y="410"/>
      <point x="267" y="401"/>
      <point x="279" y="401" type="curve"/>
      <point x="290" y="401"/>
      <point x="299" y="409"/>
      <point x="299" y="421" type="curve"/>
      <point x="299" y="674" type="line"/>
      <point x="299" y="685"/>
      <point x="291" y="694"/>
      <point x="279" y="694" type="curve"/>
      <point x="267" y="694"/>
      <point x="259" y="684"/>
      <point x="259" y="674" type="curve"/>
      <point x="259" y="624" type="line"/>
      <point x="275" y="583" type="line"/>
      <point x="275" y="665"/>
      <point x="222" y="710"/>
      <point x="157" y="710" type="curve"/>
      <point x="82" y="710"/>
      <point x="25" y="643"/>
      <point x="25" y="555" type="curve"/>
      <point x="25" y="465"/>
      <point x="67" y="391"/>
    </contour>
    <contour>
      <point x="156" y="429" type="curve"/>
      <point x="95" y="429"/>
      <point x="65" y="486"/>
      <point x="65" y="555" type="curve"/>
      <point x="65" y="622"/>
      <point x="111" y="672"/>
      <point x="164" y="672" type="curve"/>
      <point x="222" y="672"/>
      <point x="263" y="629"/>
      <point x="263" y="555" type="curve"/>
      <point x="263" y="476"/>
      <point x="219" y="429"/>
    </contour>
  </outline>
</glyph>
<glyph name="logicalnot" format="2">
  <advance width="639"/>
  <unicode hex="00AC"/>
  <note>
logicalnot
</note>
  <outline>
    <contour>
      <point x="569" y="135" type="curve"/>
      <point x="581" y="135"/>
      <point x="589" y="145"/>
      <point x="589" y="158" type="curve"/>
      <point x="589" y="373" type="line"/>
      <point x="589" y="387"/>
      <point x="578" y="398"/>
      <point x="564" y="398" type="curve"/>
      <point x="72" y="398" type="line"/>
      <point x="60" y="398"/>
      <point x="50" y="388"/>
      <point x="50" y="378" type="curve"/>
      <point x="50" y="366"/>
      <point x="60" y="358"/>
      <point x="72" y="358" type="curve"/>
      <point x="563" y="358" type="line"/>
      <point x="547" y="366" type="line"/>
      <point x="547" y="157" type="line"/>
      <point x="547" y="145"/>
      <point x="557" y="135"/>
    </contour>
  </outline>
</glyph>
<glyph name="registered" format="2">
  <advance width="548"/>
  <unicode hex="00AE"/>
  <note>
registered
</note>
  <outline>
    <contour>
      <point x="216" y="363" type="curve"/>
      <point x="226" y="363"/>
      <point x="235" y="371"/>
      <point x="235" y="379" type="curve"/>
      <point x="235" y="468" type="line"/>
      <point x="225" y="458" type="line"/>
      <point x="274" y="458" type="line"/>
      <point x="297" y="458"/>
      <point x="308" y="440"/>
      <point x="308" y="417" type="curve"/>
      <point x="308" y="380"/>
      <point x="323" y="360"/>
      <point x="341" y="360" type="curve"/>
      <point x="357" y="360"/>
      <point x="370" y="367"/>
      <point x="370" y="379" type="curve"/>
      <point x="370" y="384"/>
      <point x="368" y="388"/>
      <point x="360" y="390" type="curve"/>
      <point x="351" y="392"/>
      <point x="347" y="398"/>
      <point x="347" y="420" type="curve"/>
      <point x="347" y="454"/>
      <point x="320" y="481"/>
      <point x="297" y="483" type="curve"/>
      <point x="300" y="474" type="line"/>
      <point x="343" y="481"/>
      <point x="366" y="498"/>
      <point x="366" y="536" type="curve"/>
      <point x="366" y="584"/>
      <point x="336" y="602"/>
      <point x="281" y="602" type="curve"/>
      <point x="212" y="602" type="line"/>
      <point x="204" y="602"/>
      <point x="197" y="594"/>
      <point x="197" y="587" type="curve"/>
      <point x="197" y="379" type="line"/>
      <point x="197" y="371"/>
      <point x="206" y="363"/>
    </contour>
    <contour>
      <point x="276" y="494" type="curve"/>
      <point x="224" y="494" type="line"/>
      <point x="235" y="486" type="line"/>
      <point x="235" y="579" type="line"/>
      <point x="218" y="566" type="line"/>
      <point x="281" y="566" type="line"/>
      <point x="310" y="566"/>
      <point x="328" y="560"/>
      <point x="328" y="532" type="curve"/>
      <point x="328" y="506"/>
      <point x="305" y="494"/>
    </contour>
    <contour>
      <point x="274" y="258" type="curve"/>
      <point x="397" y="258"/>
      <point x="498" y="352"/>
      <point x="498" y="482" type="curve"/>
      <point x="498" y="612"/>
      <point x="397" y="706"/>
      <point x="274" y="706" type="curve"/>
      <point x="151" y="706"/>
      <point x="50" y="612"/>
      <point x="50" y="482" type="curve"/>
      <point x="50" y="352"/>
      <point x="151" y="258"/>
    </contour>
    <contour>
      <point x="274" y="296" type="curve"/>
      <point x="170" y="296"/>
      <point x="90" y="371"/>
      <point x="90" y="482" type="curve"/>
      <point x="90" y="593"/>
      <point x="170" y="668"/>
      <point x="274" y="668" type="curve"/>
      <point x="378" y="668"/>
      <point x="456" y="593"/>
      <point x="456" y="482" type="curve"/>
      <point x="456" y="371"/>
      <point x="378" y="296"/>
    </contour>
  </outline>
</glyph>
<glyph name="macron" format="2">
  <advance width="380"/>
  <unicode hex="00AF"/>
  <anchor x="170" y="515" name="_top"/>
  <outline>
    <contour>
      <point x="70" y="566" type="curve" smooth="yes"/>
      <point x="310" y="566" type="line" smooth="yes"/>
      <point x="323" y="566"/>
      <point x="330" y="573"/>
      <point x="330" y="586" type="curve" smooth="yes"/>
      <point x="330" y="600"/>
      <point x="323" y="607"/>
      <point x="310" y="607" type="curve" smooth="yes"/>
      <point x="70" y="607" type="line" smooth="yes"/>
      <point x="57" y="607"/>
      <point x="50" y="600"/>
      <point x="50" y="586" type="curve" smooth="yes"/>
      <point x="50" y="573"/>
      <point x="57" y="566"/>
    </contour>
  </outline>
</glyph>
<glyph name="degree" format="2">
  <advance width="312"/>
  <unicode hex="00B0"/>
  <note>
degree
</note>
  <outline>
    <contour>
      <point x="156" y="432" type="curve"/>
      <point x="230" y="432"/>
      <point x="287" y="495"/>
      <point x="287" y="570" type="curve"/>
      <point x="287" y="643"/>
      <point x="232" y="706"/>
      <point x="156" y="706" type="curve"/>
      <point x="82" y="706"/>
      <point x="25" y="643"/>
      <point x="25" y="568" type="curve"/>
      <point x="25" y="495"/>
      <point x="83" y="432"/>
    </contour>
    <contour>
      <point x="156" y="470" type="curve"/>
      <point x="104" y="470"/>
      <point x="65" y="517"/>
      <point x="65" y="568" type="curve"/>
      <point x="65" y="621"/>
      <point x="104" y="668"/>
      <point x="156" y="668" type="curve"/>
      <point x="208" y="668"/>
      <point x="247" y="621"/>
      <point x="247" y="570" type="curve"/>
      <point x="247" y="517"/>
      <point x="208" y="470"/>
    </contour>
  </outline>
</glyph>
<glyph name="plusminus" format="2">
  <advance width="504"/>
  <unicode hex="00B1"/>
  <note>
plusminus
</note>
  <outline>
    <contour>
      <point x="78" y="266" type="curve"/>
      <point x="420" y="266" type="line"/>
      <point x="432" y="266"/>
      <point x="441" y="275"/>
      <point x="441" y="285" type="curve"/>
      <point x="441" y="297"/>
      <point x="432" y="306"/>
      <point x="420" y="306" type="curve"/>
      <point x="78" y="306" type="line"/>
      <point x="66" y="306"/>
      <point x="57" y="298"/>
      <point x="57" y="287" type="curve"/>
      <point x="57" y="275"/>
      <point x="66" y="266"/>
    </contour>
    <contour>
      <point x="253" y="113" type="curve"/>
      <point x="265" y="113"/>
      <point x="274" y="122"/>
      <point x="274" y="135" type="curve"/>
      <point x="274" y="440" type="line"/>
      <point x="274" y="452"/>
      <point x="266" y="461"/>
      <point x="253" y="461" type="curve"/>
      <point x="241" y="461"/>
      <point x="232" y="452"/>
      <point x="232" y="439" type="curve"/>
      <point x="232" y="134" type="line"/>
      <point x="232" y="122"/>
      <point x="241" y="113"/>
    </contour>
    <contour>
      <point x="72" y="0" type="curve"/>
      <point x="433" y="0" type="line"/>
      <point x="445" y="0"/>
      <point x="454" y="6"/>
      <point x="454" y="19" type="curve"/>
      <point x="454" y="33"/>
      <point x="445" y="40"/>
      <point x="433" y="40" type="curve"/>
      <point x="71" y="40" type="line"/>
      <point x="59" y="40"/>
      <point x="50" y="31"/>
      <point x="50" y="21" type="curve"/>
      <point x="50" y="9"/>
      <point x="59" y="0"/>
    </contour>
  </outline>
</glyph>
<glyph name="acute" format="2">
  <advance width="288"/>
  <unicode hex="00B4"/>
  <anchor x="96" y="569" name="_top"/>
  <outline>
    <contour>
      <point x="96" y="596" type="curve"/>
      <point x="106" y="596"/>
      <point x="115" y="604"/>
      <point x="122" y="611" type="curve"/>
      <point x="197" y="688" type="line"/>
      <point x="201" y="693"/>
      <point x="204" y="697"/>
      <point x="204" y="705" type="curve"/>
      <point x="204" y="722"/>
      <point x="192" y="730"/>
      <point x="178" y="730" type="curve"/>
      <point x="164" y="730"/>
      <point x="156" y="721"/>
      <point x="152" y="714" type="curve"/>
      <point x="90" y="621" type="line"/>
      <point x="87" y="616"/>
      <point x="85" y="612"/>
      <point x="85" y="608" type="curve"/>
      <point x="85" y="602"/>
      <point x="89" y="596"/>
    </contour>
  </outline>
</glyph>
<glyph name="micro" format="2">
  <advance width="536"/>
  <unicode hex="00B5"/>
  <note>
uni00B5
</note>
  <outline>
    <contour>
      <point x="100" y="-150" type="curve" smooth="yes"/>
      <point x="112" y="-150"/>
      <point x="120" y="-141"/>
      <point x="120" y="-130" type="curve" smooth="yes"/>
      <point x="120" y="89" type="line"/>
      <point x="104" y="109" type="line"/>
      <point x="113" y="33"/>
      <point x="187" y="-10"/>
      <point x="253" y="-10" type="curve" smooth="yes"/>
      <point x="332" y="-10"/>
      <point x="405" y="46"/>
      <point x="428" y="104" type="curve"/>
      <point x="426" y="114" type="line"/>
      <point x="426" y="20" type="line" smooth="yes"/>
      <point x="426" y="9"/>
      <point x="434" y="0"/>
      <point x="446" y="0" type="curve" smooth="yes"/>
      <point x="457" y="0"/>
      <point x="466" y="9"/>
      <point x="466" y="20" type="curve" smooth="yes"/>
      <point x="466" y="495" type="line" smooth="yes"/>
      <point x="466" y="506"/>
      <point x="458" y="515"/>
      <point x="446" y="515" type="curve" smooth="yes"/>
      <point x="435" y="515"/>
      <point x="426" y="506"/>
      <point x="426" y="495" type="curve" smooth="yes"/>
      <point x="426" y="183" type="line" smooth="yes"/>
      <point x="426" y="110"/>
      <point x="337" y="30"/>
      <point x="253" y="30" type="curve" smooth="yes"/>
      <point x="158" y="30"/>
      <point x="120" y="99"/>
      <point x="120" y="183" type="curve" smooth="yes"/>
      <point x="120" y="495" type="line" smooth="yes"/>
      <point x="120" y="506"/>
      <point x="112" y="515"/>
      <point x="100" y="515" type="curve" smooth="yes"/>
      <point x="89" y="515"/>
      <point x="80" y="506"/>
      <point x="80" y="495" type="curve" smooth="yes"/>
      <point x="80" y="-130" type="line" smooth="yes"/>
      <point x="80" y="-141"/>
      <point x="88" y="-150"/>
    </contour>
  </outline>
</glyph>
<glyph name="paragraph" format="2">
  <advance width="620"/>
  <unicode hex="00B6"/>
  <note>
paragraph
</note>
  <outline>
    <contour>
      <point x="500" y="0" type="curve" smooth="yes"/>
      <point x="513" y="0"/>
      <point x="520" y="9"/>
      <point x="520" y="23" type="curve" smooth="yes"/>
      <point x="520" y="680" type="line" smooth="yes"/>
      <point x="520" y="691"/>
      <point x="511" y="700"/>
      <point x="500" y="700" type="curve" smooth="yes"/>
      <point x="334" y="700" type="line" smooth="yes"/>
      <point x="125" y="700"/>
      <point x="50" y="654"/>
      <point x="50" y="487" type="curve" smooth="yes"/>
      <point x="50" y="326"/>
      <point x="120" y="268"/>
      <point x="313" y="264" type="curve"/>
      <point x="355" y="264" type="line"/>
      <point x="338" y="291" type="line"/>
      <point x="338" y="56" type="line" smooth="yes"/>
      <point x="338" y="15"/>
      <point x="308" y="-21"/>
      <point x="265" y="-21" type="curve" smooth="yes"/>
      <point x="248" y="-21"/>
      <point x="237" y="-14"/>
      <point x="228" y="-7" type="curve" smooth="yes"/>
      <point x="220" y="-1"/>
      <point x="213" y="4"/>
      <point x="204" y="4" type="curve" smooth="yes"/>
      <point x="191" y="4"/>
      <point x="182" y="-7"/>
      <point x="182" y="-17" type="curve" smooth="yes"/>
      <point x="182" y="-38"/>
      <point x="220" y="-59"/>
      <point x="265" y="-59" type="curve" smooth="yes"/>
      <point x="335" y="-59"/>
      <point x="378" y="-8"/>
      <point x="378" y="55" type="curve" smooth="yes"/>
      <point x="378" y="671" type="line"/>
      <point x="361" y="660" type="line"/>
      <point x="499" y="660" type="line"/>
      <point x="480" y="671" type="line"/>
      <point x="480" y="23" type="line" smooth="yes"/>
      <point x="480" y="9"/>
      <point x="487" y="0"/>
    </contour>
  </outline>
</glyph>
<glyph name="periodcentered" format="2">
  <advance width="186"/>
  <unicode hex="00B7"/>
  <note>
periodcentered
</note>
  <outline>
    <contour>
      <point x="91" y="255" type="curve" smooth="yes"/>
      <point x="95" y="255" type="line" smooth="yes"/>
      <point x="113" y="255"/>
      <point x="126" y="268"/>
      <point x="126" y="286" type="curve" smooth="yes"/>
      <point x="126" y="309" type="line" smooth="yes"/>
      <point x="126" y="327"/>
      <point x="113" y="340"/>
      <point x="95" y="340" type="curve" smooth="yes"/>
      <point x="91" y="340" type="line" smooth="yes"/>
      <point x="73" y="340"/>
      <point x="60" y="327"/>
      <point x="60" y="309" type="curve" smooth="yes"/>
      <point x="60" y="286" type="line" smooth="yes"/>
      <point x="60" y="268"/>
      <point x="73" y="255"/>
    </contour>
  </outline>
</glyph>
<glyph name="cedilla" format="2">
  <advance width="283"/>
  <unicode hex="00B8"/>
  <anchor x="141" y="0" name="_bottom"/>
  <outline>
    <contour>
      <point x="66" y="-141" type="curve" smooth="yes"/>
      <point x="75" y="-141"/>
      <point x="82" y="-136"/>
      <point x="87" y="-126" type="curve" smooth="yes"/>
      <point x="154" y="10" type="line"/>
      <point x="126" y="10" type="line"/>
      <point x="36" y="-100" type="line" smooth="yes"/>
      <point x="32" y="-104"/>
      <point x="31" y="-109"/>
      <point x="31" y="-114" type="curve" smooth="yes"/>
      <point x="31" y="-129"/>
      <point x="55" y="-141"/>
    </contour>
  </outline>
</glyph>
<glyph name="ordmasculine" format="2">
  <advance width="348"/>
  <unicode hex="00BA"/>
  <note>
ordmasculine
</note>
  <outline>
    <contour>
      <point x="323" y="549" type="curve"/>
      <point x="323" y="640"/>
      <point x="259" y="710"/>
      <point x="173" y="710" type="curve"/>
      <point x="88" y="710"/>
      <point x="25" y="640"/>
      <point x="25" y="549" type="curve"/>
      <point x="25" y="459"/>
      <point x="88" y="392"/>
      <point x="173" y="392" type="curve"/>
      <point x="259" y="392"/>
      <point x="323" y="459"/>
    </contour>
    <contour>
      <point x="285" y="549" type="curve"/>
      <point x="285" y="482"/>
      <point x="241" y="429"/>
      <point x="173" y="429" type="curve"/>
      <point x="106" y="429"/>
      <point x="63" y="482"/>
      <point x="63" y="549" type="curve"/>
      <point x="63" y="620"/>
      <point x="106" y="672"/>
      <point x="173" y="672" type="curve"/>
      <point x="241" y="672"/>
      <point x="285" y="620"/>
    </contour>
  </outline>
</glyph>
<glyph name="Aring" format="2">
  <advance width="649"/>
  <unicode hex="00C5"/>
  <anchor x="325" y="591" name="_top"/>
  <anchor x="325" y="859" name="top"/>
  <anchor x="325" y="0" name="bottom"/>
  <anchor x="584" y="10" name="ogonek"/>
  <outline>
    <contour>
      <point x="325" y="671" type="curve" smooth="yes"/>
      <point x="377" y="671"/>
      <point x="423" y="713"/>
      <point x="423" y="765" type="curve" smooth="yes"/>
      <point x="423" y="817"/>
      <point x="377" y="859"/>
      <point x="325" y="859" type="curve" smooth="yes"/>
      <point x="273" y="859"/>
      <point x="227" y="817"/>
      <point x="227" y="765" type="curve" smooth="yes"/>
      <point x="227" y="713"/>
      <point x="273" y="671"/>
    </contour>
    <contour>
      <point x="325" y="703" type="curve" smooth="yes"/>
      <point x="291" y="703"/>
      <point x="263" y="731"/>
      <point x="263" y="765" type="curve" smooth="yes"/>
      <point x="263" y="799"/>
      <point x="291" y="827"/>
      <point x="325" y="827" type="curve" smooth="yes"/>
      <point x="359" y="827"/>
      <point x="387" y="799"/>
      <point x="387" y="765" type="curve" smooth="yes"/>
      <point x="387" y="731"/>
      <point x="359" y="703"/>
    </contour>
    <component base="A"/>
  </outline>
</glyph>
<glyph name="AE" format="2">
  <advance width="931"/>
  <unicode hex="00C6"/>
  <note>
AE
</note>
  <anchor x="466" y="0" name="bottom"/>
  <anchor x="633" y="700" name="top"/>
  <outline>
    <contour>
      <point x="168" y="217" type="line"/>
      <point x="129" y="177" type="line"/>
      <point x="491" y="177" type="line"/>
      <point x="474" y="191" type="line"/>
      <point x="474" y="20" type="line" smooth="yes"/>
      <point x="474" y="9"/>
      <point x="483" y="0"/>
      <point x="494" y="0" type="curve" smooth="yes"/>
      <point x="861" y="0" type="line" smooth="yes"/>
      <point x="872" y="0"/>
      <point x="881" y="8"/>
      <point x="881" y="20" type="curve" smooth="yes"/>
      <point x="881" y="31"/>
      <point x="872" y="40"/>
      <point x="861" y="40" type="curve" smooth="yes"/>
      <point x="508" y="40" type="line"/>
      <point x="514" y="30" type="line"/>
      <point x="514" y="350" type="line"/>
      <point x="506" y="341" type="line"/>
      <point x="816" y="341" type="line" smooth="yes"/>
      <point x="827" y="341"/>
      <point x="836" y="349"/>
      <point x="836" y="361" type="curve" smooth="yes"/>
      <point x="836" y="372"/>
      <point x="827" y="381"/>
      <point x="816" y="381" type="curve" smooth="yes"/>
      <point x="508" y="381" type="line"/>
      <point x="514" y="371" type="line"/>
      <point x="514" y="670" type="line"/>
      <point x="507" y="660" type="line"/>
      <point x="861" y="660" type="line" smooth="yes"/>
      <point x="872" y="660"/>
      <point x="881" y="668"/>
      <point x="881" y="680" type="curve" smooth="yes"/>
      <point x="881" y="691"/>
      <point x="872" y="700"/>
      <point x="861" y="700" type="curve" smooth="yes"/>
      <point x="492" y="700" type="line" smooth="yes"/>
      <point x="485" y="700"/>
      <point x="479" y="697"/>
      <point x="474" y="691" type="curve"/>
      <point x="12" y="31" type="line" smooth="yes"/>
      <point x="10" y="28"/>
      <point x="9" y="24"/>
      <point x="9" y="20" type="curve" smooth="yes"/>
      <point x="9" y="8"/>
      <point x="18" y="-1"/>
      <point x="28" y="-1" type="curve" smooth="yes"/>
      <point x="34" y="-1"/>
      <point x="41" y="2"/>
      <point x="45" y="8" type="curve"/>
      <point x="487" y="640" type="line"/>
      <point x="474" y="662" type="line"/>
      <point x="474" y="201" type="line"/>
      <point x="491" y="217" type="line"/>
    </contour>
  </outline>
</glyph>
<glyph name="multiply" format="2">
  <advance width="420"/>
  <unicode hex="00D7"/>
  <note>
multiply
</note>
  <outline>
    <contour>
      <point x="55" y="67" type="curve" smooth="yes"/>
      <point x="61" y="67"/>
      <point x="66" y="69"/>
      <point x="71" y="74" type="curve" smooth="yes"/>
      <point x="379" y="379" type="line"/>
      <point x="383" y="384"/>
      <point x="385" y="389"/>
      <point x="385" y="394" type="curve" smooth="yes"/>
      <point x="385" y="406"/>
      <point x="376" y="415"/>
      <point x="365" y="415" type="curve" smooth="yes"/>
      <point x="359" y="415"/>
      <point x="354" y="413"/>
      <point x="349" y="408" type="curve"/>
      <point x="41" y="103" type="line"/>
      <point x="37" y="99"/>
      <point x="35" y="93"/>
      <point x="35" y="88" type="curve" smooth="yes"/>
      <point x="35" y="76"/>
      <point x="44" y="67"/>
    </contour>
    <contour>
      <point x="345" y="73" type="line"/>
      <point x="350" y="69"/>
      <point x="355" y="67"/>
      <point x="360" y="67" type="curve" smooth="yes"/>
      <point x="367" y="67"/>
      <point x="380" y="72"/>
      <point x="380" y="87" type="curve" smooth="yes"/>
      <point x="380" y="92"/>
      <point x="378" y="98"/>
      <point x="373" y="102" type="curve"/>
      <point x="81" y="405" type="line" smooth="yes"/>
      <point x="76" y="410"/>
      <point x="70" y="412"/>
      <point x="65" y="412" type="curve" smooth="yes"/>
      <point x="53" y="412"/>
      <point x="46" y="402"/>
      <point x="46" y="392" type="curve" smooth="yes"/>
      <point x="46" y="387"/>
      <point x="48" y="382"/>
      <point x="52" y="377" type="curve"/>
    </contour>
  </outline>
</glyph>
<glyph name="Oslash" format="2">
  <advance width="721"/>
  <unicode hex="00D8"/>
  <note>
Oslash
</note>
  <anchor x="361" y="0" name="bottom"/>
  <anchor x="361" y="700" name="top"/>
  <anchor x="384" y="350" name="center"/>
  <anchor x="691" y="10" name="ogonek"/>
  <anchor x="20" y="700" name="topleft"/>
  <anchor x="391" y="697" name="topright"/>
  <outline>
    <contour>
      <point x="66" y="-20" type="curve" smooth="yes"/>
      <point x="79" y="-20"/>
      <point x="85" y="-12"/>
      <point x="91" y="-4" type="curve" smooth="yes"/>
      <point x="667" y="687" type="line" smooth="yes"/>
      <point x="672" y="693"/>
      <point x="673" y="698"/>
      <point x="673" y="702" type="curve" smooth="yes"/>
      <point x="673" y="712"/>
      <point x="664" y="718"/>
      <point x="656" y="718" type="curve" smooth="yes"/>
      <point x="646" y="718"/>
      <point x="642" y="717"/>
      <point x="634" y="707" type="curve" smooth="yes"/>
      <point x="54" y="10" type="line"/>
      <point x="51" y="6"/>
      <point x="49" y="1"/>
      <point x="49" y="-3" type="curve" smooth="yes"/>
      <point x="49" y="-12"/>
      <point x="56" y="-20"/>
    </contour>
    <component base="O"/>
  </outline>
</glyph>
<glyph name="Thorn" format="2">
  <advance width="583"/>
  <unicode hex="00DE"/>
  <note>
Thorn
</note>
  <anchor x="262" y="0" name="bottom"/>
  <anchor x="262" y="700" name="top"/>
  <outline>
    <contour>
      <point x="140" y="20" type="curve" smooth="yes"/>
      <point x="140" y="720" type="line" smooth="yes"/>
      <point x="140" y="731"/>
      <point x="132" y="740"/>
      <point x="120" y="740" type="curve" smooth="yes"/>
      <point x="109" y="740"/>
      <point x="100" y="731"/>
      <point x="100" y="720" type="curve" smooth="yes"/>
      <point x="100" y="20" type="line" smooth="yes"/>
      <point x="100" y="9"/>
      <point x="108" y="0"/>
      <point x="120" y="0" type="curve" smooth="yes"/>
      <point x="131" y="0"/>
      <point x="140" y="9"/>
    </contour>
    <contour>
      <point x="127" y="238" type="line"/>
      <point x="127" y="198" type="line"/>
      <point x="349" y="198" type="line"/>
      <point x="463" y="198"/>
      <point x="538" y="283"/>
      <point x="538" y="396" type="curve"/>
      <point x="538" y="509"/>
      <point x="463" y="587"/>
      <point x="349" y="587" type="curve"/>
      <point x="109" y="587" type="line"/>
      <point x="128" y="547" type="line"/>
      <point x="349" y="547" type="line"/>
      <point x="440" y="547"/>
      <point x="496" y="487"/>
      <point x="496" y="396" type="curve"/>
      <point x="496" y="305"/>
      <point x="440" y="238"/>
      <point x="349" y="238" type="curve"/>
    </contour>
  </outline>
</glyph>
<glyph name="germandbls" format="2">
  <advance width="586"/>
  <unicode hex="00DF"/>
  <note>
germandbls
</note>
  <outline>
    <contour>
      <point x="118" y="0" type="curve"/>
      <point x="131" y="0"/>
      <point x="138" y="7"/>
      <point x="138" y="20" type="curve"/>
      <point x="140" y="493" type="line"/>
      <point x="140" y="577"/>
      <point x="176" y="686"/>
      <point x="294" y="686" type="curve"/>
      <point x="370" y="686"/>
      <point x="413" y="639"/>
      <point x="413" y="589" type="curve"/>
      <point x="413" y="559"/>
      <point x="388" y="504"/>
      <point x="319" y="491" type="curve"/>
      <point x="308" y="488"/>
      <point x="302" y="479"/>
      <point x="302" y="471" type="curve" smooth="yes"/>
      <point x="302" y="461"/>
      <point x="309" y="450"/>
      <point x="323" y="447" type="curve"/>
      <point x="403" y="429"/>
      <point x="498" y="372"/>
      <point x="498" y="232" type="curve"/>
      <point x="498" y="107"/>
      <point x="407" y="25"/>
      <point x="319" y="25" type="curve"/>
      <point x="294" y="25"/>
      <point x="272" y="30"/>
      <point x="255" y="40" type="curve"/>
      <point x="243" y="48"/>
      <point x="231" y="46"/>
      <point x="225" y="34" type="curve"/>
      <point x="218" y="23"/>
      <point x="223" y="12"/>
      <point x="235" y="6" type="curve"/>
      <point x="256" y="-7"/>
      <point x="289" y="-10"/>
      <point x="319" y="-10" type="curve"/>
      <point x="437" y="-10"/>
      <point x="538" y="93"/>
      <point x="538" y="237" type="curve"/>
      <point x="538" y="360"/>
      <point x="465" y="446"/>
      <point x="367" y="475" type="curve"/>
      <point x="367" y="471" type="line"/>
      <point x="431" y="492"/>
      <point x="453" y="560"/>
      <point x="453" y="591" type="curve"/>
      <point x="453" y="660"/>
      <point x="403" y="726"/>
      <point x="294" y="726" type="curve"/>
      <point x="146" y="726"/>
      <point x="100" y="587"/>
      <point x="100" y="493" type="curve"/>
      <point x="98" y="20" type="line"/>
      <point x="98" y="7"/>
      <point x="105" y="0"/>
    </contour>
    <contour>
      <point x="47" y="465" type="curve"/>
      <point x="108" y="465" type="line"/>
      <point x="118" y="465"/>
      <point x="127" y="473"/>
      <point x="127" y="484" type="curve"/>
      <point x="127" y="493"/>
      <point x="118" y="503"/>
      <point x="108" y="503" type="curve"/>
      <point x="47" y="503" type="line"/>
      <point x="37" y="503"/>
      <point x="28" y="495"/>
      <point x="28" y="484" type="curve"/>
      <point x="28" y="474"/>
      <point x="37" y="465"/>
    </contour>
  </outline>
</glyph>
<glyph name="ae" format="2">
  <advance width="887"/>
  <unicode hex="00E6"/>
  <note>
ae
</note>
  <anchor x="406" y="0" name="bottom"/>
  <anchor x="838" y="10" name="ogonek"/>
  <anchor x="457" y="515" name="top"/>
  <outline>
    <contour>
      <point x="266" y="515" type="curve"/>
      <point x="187" y="515"/>
      <point x="107" y="459"/>
      <point x="66" y="405" type="curve"/>
      <point x="63" y="401"/>
      <point x="62" y="397"/>
      <point x="62" y="393" type="curve"/>
      <point x="62" y="384"/>
      <point x="69" y="375"/>
      <point x="79" y="375" type="curve"/>
      <point x="86" y="375"/>
      <point x="91" y="378"/>
      <point x="96" y="384" type="curve"/>
      <point x="126" y="429"/>
      <point x="199" y="477"/>
      <point x="266" y="477" type="curve"/>
      <point x="324" y="477"/>
      <point x="390" y="458"/>
      <point x="390" y="370" type="curve"/>
      <point x="390" y="251" type="line"/>
      <point x="426" y="252" type="line"/>
      <point x="426" y="388" type="line"/>
      <point x="426" y="485"/>
      <point x="350" y="515"/>
    </contour>
    <contour>
      <point x="198" y="-10" type="curve"/>
      <point x="320" y="-10"/>
      <point x="389" y="70"/>
      <point x="426" y="125" type="curve"/>
      <point x="404" y="157" type="line"/>
      <point x="379" y="106"/>
      <point x="290" y="28"/>
      <point x="202" y="28" type="curve"/>
      <point x="151" y="28"/>
      <point x="88" y="63"/>
      <point x="88" y="140" type="curve"/>
      <point x="88" y="218"/>
      <point x="172" y="266"/>
      <point x="322" y="266" type="curve"/>
      <point x="819" y="266" type="line"/>
      <point x="830" y="266"/>
      <point x="839" y="276"/>
      <point x="839" y="287" type="curve"/>
      <point x="834" y="443"/>
      <point x="726" y="515"/>
      <point x="613" y="515" type="curve"/>
      <point x="497" y="515"/>
      <point x="387" y="417"/>
      <point x="387" y="250" type="curve"/>
      <point x="387" y="92"/>
      <point x="493" y="-10"/>
      <point x="643" y="-10" type="curve"/>
      <point x="722" y="-10"/>
      <point x="789" y="36"/>
      <point x="830" y="90" type="curve"/>
      <point x="833" y="94"/>
      <point x="834" y="98"/>
      <point x="834" y="102" type="curve"/>
      <point x="834" y="111"/>
      <point x="826" y="120"/>
      <point x="817" y="120" type="curve"/>
      <point x="810" y="120"/>
      <point x="805" y="117"/>
      <point x="800" y="111" type="curve"/>
      <point x="770" y="66"/>
      <point x="710" y="28"/>
      <point x="643" y="28" type="curve"/>
      <point x="501" y="28"/>
      <point x="426" y="131"/>
      <point x="426" y="253" type="curve"/>
      <point x="426" y="403"/>
      <point x="532" y="475"/>
      <point x="613" y="475" type="curve"/>
      <point x="698" y="475"/>
      <point x="787" y="419"/>
      <point x="798" y="313" type="curve"/>
      <point x="798" y="295" type="line"/>
      <point x="808" y="304" type="line"/>
      <point x="320" y="304" type="line"/>
      <point x="142" y="304"/>
      <point x="48" y="239"/>
      <point x="48" y="136" type="curve"/>
      <point x="48" y="39"/>
      <point x="128" y="-10"/>
    </contour>
  </outline>
</glyph>
<glyph name="eth" format="2">
  <advance width="561"/>
  <unicode hex="00F0"/>
  <note>
eth
</note>
  <outline>
    <contour>
      <point x="280" y="-1" type="curve" smooth="yes"/>
      <point x="409" y="-1"/>
      <point x="513" y="118"/>
      <point x="513" y="285" type="curve"/>
      <point x="513" y="409"/>
      <point x="439" y="688"/>
      <point x="192" y="739" type="curve"/>
      <point x="190" y="740"/>
      <point x="187" y="740"/>
      <point x="185" y="740" type="curve" smooth="yes"/>
      <point x="173" y="740"/>
      <point x="167" y="732"/>
      <point x="167" y="718" type="curve"/>
      <point x="167" y="709"/>
      <point x="173" y="703"/>
      <point x="183" y="700" type="curve"/>
      <point x="353" y="669"/>
      <point x="433" y="514"/>
      <point x="460" y="368" type="curve"/>
      <point x="477" y="362" type="line"/>
      <point x="449" y="436"/>
      <point x="385" y="513"/>
      <point x="280" y="513" type="curve"/>
      <point x="151" y="513"/>
      <point x="48" y="402"/>
      <point x="48" y="261" type="curve"/>
      <point x="48" y="119"/>
      <point x="151" y="-1"/>
    </contour>
    <contour>
      <point x="280" y="37" type="curve"/>
      <point x="175" y="37"/>
      <point x="88" y="141"/>
      <point x="88" y="261" type="curve"/>
      <point x="88" y="380"/>
      <point x="173" y="475"/>
      <point x="280" y="475" type="curve"/>
      <point x="387" y="475"/>
      <point x="472" y="371"/>
      <point x="472" y="261" type="curve"/>
      <point x="472" y="141"/>
      <point x="385" y="37"/>
    </contour>
    <contour>
      <point x="231" y="553" type="curve"/>
      <point x="354" y="601" type="line"/>
      <point x="386" y="613" type="line"/>
      <point x="468" y="645" type="line"/>
      <point x="479" y="649"/>
      <point x="484" y="660"/>
      <point x="480" y="671" type="curve"/>
      <point x="476" y="682"/>
      <point x="465" y="687"/>
      <point x="454" y="682" type="curve"/>
      <point x="358" y="644" type="line"/>
      <point x="323" y="631" type="line"/>
      <point x="217" y="590" type="line"/>
      <point x="206" y="586"/>
      <point x="201" y="575"/>
      <point x="205" y="564" type="curve"/>
      <point x="209" y="553"/>
      <point x="220" y="549"/>
    </contour>
  </outline>
</glyph>
<glyph name="divide" format="2">
  <advance width="544"/>
  <unicode hex="00F7"/>
  <note>
divide
</note>
  <outline>
    <contour>
      <point x="233" y="365" type="curve" smooth="yes"/>
      <point x="233" y="346"/>
      <point x="248" y="331"/>
      <point x="267" y="331" type="curve" smooth="yes"/>
      <point x="286" y="331"/>
      <point x="302" y="346"/>
      <point x="302" y="365" type="curve" smooth="yes"/>
      <point x="302" y="385"/>
      <point x="286" y="401"/>
      <point x="267" y="401" type="curve" smooth="yes"/>
      <point x="248" y="401"/>
      <point x="233" y="385"/>
    </contour>
    <contour>
      <point x="233" y="24" type="curve" smooth="yes"/>
      <point x="233" y="5"/>
      <point x="248" y="-10"/>
      <point x="267" y="-10" type="curve" smooth="yes"/>
      <point x="286" y="-10"/>
      <point x="302" y="5"/>
      <point x="302" y="24" type="curve" smooth="yes"/>
      <point x="302" y="43"/>
      <point x="286" y="59"/>
      <point x="267" y="59" type="curve" smooth="yes"/>
      <point x="248" y="59"/>
      <point x="233" y="43"/>
    </contour>
    <contour>
      <point x="71" y="177" type="curve"/>
      <point x="473" y="177" type="line"/>
      <point x="485" y="177"/>
      <point x="494" y="186"/>
      <point x="494" y="196" type="curve"/>
      <point x="494" y="208"/>
      <point x="485" y="217"/>
      <point x="473" y="217" type="curve"/>
      <point x="71" y="217" type="line"/>
      <point x="59" y="217"/>
      <point x="50" y="209"/>
      <point x="50" y="198" type="curve"/>
      <point x="50" y="186"/>
      <point x="59" y="177"/>
    </contour>
  </outline>
</glyph>
